<?xml version="1.0" encoding="utf-8" standalone="no"?>
<!DOCTYPE svg PUBLIC "-//W3C//DTD SVG 1.1//EN"
  "http://www.w3.org/Graphics/SVG/1.1/DTD/svg11.dtd">
<svg xmlns:xlink="http://www.w3.org/1999/xlink" width="504pt" height="428.4pt" viewBox="0 0 504 428.4" xmlns="http://www.w3.org/2000/svg" version="1.1">
 <metadata>
  <rdf:RDF xmlns:dc="http://purl.org/dc/elements/1.1/" xmlns:cc="http://creativecommons.org/ns#" xmlns:rdf="http://www.w3.org/1999/02/22-rdf-syntax-ns#">
   <cc:Work>
    <dc:type rdf:resource="http://purl.org/dc/dcmitype/StillImage"/>
    <dc:date>2023-03-26T17:27:05.082557</dc:date>
    <dc:format>image/svg+xml</dc:format>
    <dc:creator>
     <cc:Agent>
      <dc:title>Matplotlib v3.7.1, https://matplotlib.org/</dc:title>
     </cc:Agent>
    </dc:creator>
   </cc:Work>
  </rdf:RDF>
 </metadata>
 <defs>
  <style type="text/css">*{stroke-linejoin: round; stroke-linecap: butt}</style>
 </defs>
 <g id="figure_1">
  <g id="patch_1">
   <path d="M 0 428.4 
L 504 428.4 
L 504 0 
L 0 0 
L 0 428.4 
z
" style="fill: none"/>
  </g>
  <g id="axes_1">
   <g id="patch_2">
    <path d="M 435.463828 398.018438 
C 435.463828 300.740495 396.779099 207.347296 327.993206 138.561404 
C 259.207313 69.775511 165.814114 31.090781 68.536172 31.090781 
L 68.536172 398.018438 
C 68.536172 398.018438 68.536172 398.018438 68.536172 398.018438 
C 68.536172 398.018438 68.536172 398.018438 68.536172 398.018438 
L 435.463828 398.018438 
z
" style="fill: none"/>
   </g>
   <g id="PolyCollection_1">
    <defs>
     <path id="m7e5eec1bbf" d="M 417.119624 -30.381562 
L 68.536172 -30.381562 
L 68.536172 -30.381562 
L 68.536172 -30.381562 
L 68.536172 -30.381562 
L 68.536172 -30.381562 
L 68.536172 -30.381562 
L 68.536172 -30.381562 
L 68.536172 -30.381562 
L 68.536172 -30.381562 
L 68.536172 -30.381562 
L 68.536172 -30.381562 
L 68.536172 -30.381562 
L 68.536172 -30.381562 
L 68.536172 -30.381562 
L 68.536172 -30.381562 
L 68.536172 -30.381562 
L 68.536172 -30.381562 
L 68.536172 -30.381562 
L 68.536172 -30.381562 
L 68.536172 -30.381562 
L 68.536172 -30.381562 
L 68.536172 -30.381562 
L 68.536172 -30.381562 
L 68.536172 -30.381562 
L 68.536172 -30.381562 
L 68.536172 -30.381562 
L 68.536172 -30.381562 
L 68.536172 -30.381562 
L 68.536172 -30.381562 
L 68.536172 -30.381562 
L 68.536172 -30.381562 
L 68.536172 -30.381562 
L 68.536172 -30.381562 
L 68.536172 -30.381562 
L 68.536172 -30.381562 
L 68.536172 -30.381562 
L 68.536172 -30.381562 
L 68.536172 -30.381562 
L 68.536172 -30.381562 
L 68.536172 -30.381562 
L 68.536172 -30.381562 
L 68.536172 -30.381562 
L 68.536172 -30.381562 
L 68.536172 -30.381562 
L 68.536172 -30.381562 
L 68.536172 -30.381562 
L 68.536172 -30.381562 
L 68.536172 -30.381562 
L 68.536172 -30.381562 
L 68.536172 -30.381562 
L 68.536172 -30.381562 
L 68.536172 -30.381562 
L 68.536172 -30.381562 
L 68.536172 -30.381562 
L 68.536172 -30.381562 
L 68.536172 -30.381562 
L 68.536172 -30.381562 
L 68.536172 -30.381562 
L 68.536172 -30.381562 
L 68.536172 -30.381562 
L 68.536172 -30.381562 
L 68.536172 -30.381562 
L 68.536172 -30.381562 
L 68.536172 -30.381562 
L 68.536172 -30.381562 
L 68.536172 -30.381562 
L 68.536172 -30.381562 
L 68.536172 -30.381562 
L 68.536172 -30.381562 
L 68.536172 -30.381562 
L 68.536172 -30.381562 
L 68.536172 -30.381562 
L 68.536172 -30.381562 
L 68.536172 -30.381562 
L 68.536172 -30.381562 
L 68.536172 -30.381562 
L 68.536172 -30.381562 
L 68.536172 -30.381562 
L 68.536172 -30.381562 
L 68.536172 -30.381562 
L 68.536172 -30.381562 
L 68.536172 -30.381562 
L 68.536172 -30.381562 
L 68.536172 -30.381562 
L 68.536172 -30.381562 
L 68.536172 -30.381562 
L 68.536172 -30.381562 
L 68.536172 -30.381562 
L 68.536172 -30.381562 
L 68.536172 -30.381562 
L 68.536172 -30.381562 
L 68.536172 -30.381562 
L 68.536172 -30.381562 
L 68.536172 -30.381562 
L 68.536172 -30.381562 
L 68.536172 -30.381562 
L 68.536172 -30.381562 
L 68.536172 -30.381562 
L 68.536172 -30.381562 
L 68.536172 -30.381562 
L 68.536172 -30.381562 
L 68.536172 -30.381562 
L 68.536172 -30.381562 
L 68.536172 -30.381562 
L 68.536172 -30.381562 
L 68.536172 -30.381562 
L 68.536172 -30.381562 
L 68.536172 -30.381562 
L 68.536172 -30.381562 
L 68.536172 -30.381562 
L 68.536172 -30.381562 
L 68.536172 -30.381562 
L 68.536172 -30.381562 
L 68.536172 -30.381562 
L 68.536172 -30.381562 
L 68.536172 -30.381562 
L 68.536172 -30.381562 
L 68.536172 -30.381562 
L 68.536172 -30.381562 
L 68.536172 -30.381562 
L 68.536172 -30.381562 
L 68.536172 -30.381562 
L 68.536172 -30.381562 
L 68.536172 -30.381562 
L 68.536172 -30.381562 
L 68.536172 -30.381562 
L 68.536172 -30.381562 
L 68.536172 -30.381562 
L 68.536172 -30.381562 
L 68.536172 -30.381562 
L 68.536172 -30.381562 
L 68.536172 -30.381562 
L 68.536172 -30.381562 
L 68.536172 -30.381562 
L 68.536172 -30.381562 
L 68.536172 -30.381562 
L 68.536172 -30.381562 
L 68.536172 -30.381562 
L 68.536172 -30.381562 
L 68.536172 -30.381562 
L 68.536172 -30.381562 
L 68.536172 -30.381562 
L 68.536172 -30.381562 
L 68.536172 -30.381562 
L 68.536172 -30.381562 
L 68.536172 -30.381562 
L 68.536172 -30.381562 
L 68.536172 -30.381562 
L 68.536172 -30.381562 
L 68.536172 -30.381562 
L 68.536172 -30.381562 
L 68.536172 -30.381562 
L 68.536172 -30.381562 
L 68.536172 -30.381562 
L 68.536172 -30.381562 
L 68.536172 -30.381562 
L 68.536172 -30.381562 
L 68.536172 -30.381562 
L 68.536172 -30.381562 
L 68.536172 -30.381562 
L 68.536172 -30.381562 
L 68.536172 -30.381562 
L 68.536172 -30.381562 
L 68.536172 -30.381562 
L 68.536172 -30.381562 
L 68.536172 -30.381562 
L 68.536172 -30.381562 
L 68.536172 -30.381562 
L 68.536172 -30.381562 
L 68.536172 -30.381562 
L 68.536172 -30.381562 
L 68.536172 -30.381562 
L 68.536172 -30.381562 
L 68.536172 -30.381562 
L 68.536172 -30.381562 
L 68.536172 -30.381562 
L 68.536172 -30.381562 
L 68.536172 -30.381562 
L 68.536172 -30.381562 
L 68.536172 -30.381562 
L 68.536172 -30.381562 
L 68.536172 -30.381562 
L 68.536172 -30.381562 
L 68.536172 -30.381562 
L 68.536172 -30.381562 
L 68.536172 -30.381562 
L 68.536172 -30.381562 
L 68.536172 -30.381562 
L 68.536172 -30.381562 
L 68.536172 -30.381562 
L 68.536172 -30.381562 
L 68.536172 -30.381562 
L 68.536172 -30.381562 
L 68.536172 -30.381562 
L 68.536172 -30.381562 
L 68.536172 -30.381562 
L 68.536172 -30.381562 
L 68.536172 -30.381562 
L 68.536172 -30.381562 
L 68.536172 -30.381562 
L 68.536172 -30.381562 
L 68.536172 -30.381562 
L 68.536172 -30.381562 
L 68.536172 -30.381562 
L 68.536172 -30.381562 
L 68.536172 -30.381562 
L 68.536172 -30.381562 
L 68.536172 -30.381562 
L 68.536172 -30.381562 
L 68.536172 -30.381562 
L 68.536172 -30.381562 
L 68.536172 -30.381562 
L 68.536172 -30.381562 
L 68.536172 -30.381562 
L 68.536172 -30.381562 
L 68.536172 -30.381562 
L 68.536172 -30.381562 
L 68.536172 -30.381562 
L 68.536172 -30.381562 
L 68.536172 -30.381562 
L 68.536172 -30.381562 
L 68.536172 -30.381562 
L 68.536172 -30.381562 
L 68.536172 -30.381562 
L 68.536172 -30.381562 
L 68.536172 -30.381562 
L 68.536172 -30.381562 
L 68.536172 -30.381562 
L 68.536172 -30.381562 
L 68.536172 -30.381562 
L 68.536172 -30.381562 
L 68.536172 -30.381562 
L 68.536172 -30.381562 
L 68.536172 -30.381562 
L 68.536172 -30.381562 
L 68.536172 -30.381562 
L 68.536172 -30.381562 
L 68.536172 -30.381562 
L 68.536172 -30.381562 
L 68.536172 -30.381562 
L 68.536172 -30.381562 
L 68.536172 -30.381562 
L 68.536172 -30.381562 
L 68.536172 -30.381562 
L 68.536172 -30.381562 
L 68.536172 -30.381562 
L 68.536172 -30.381562 
L 68.536172 -30.381562 
L 68.536172 -30.381562 
L 68.536172 -30.381562 
L 68.536172 -30.381562 
L 68.536172 -30.381562 
L 68.536172 -30.381562 
L 68.536172 -30.381562 
L 68.536172 -30.381562 
L 68.536172 -30.381562 
L 68.536172 -30.381562 
L 68.536172 -30.381562 
L 68.536172 -30.381562 
L 68.536172 -30.381562 
L 68.536172 -30.381562 
L 68.536172 -30.381562 
L 68.536172 -30.381562 
L 68.536172 -30.381562 
L 68.536172 -30.381562 
L 68.536172 -30.381562 
L 68.536172 -30.381562 
L 68.536172 -30.381562 
L 68.536172 -30.381562 
L 68.536172 -30.381562 
L 68.536172 -30.381562 
L 68.536172 -30.381562 
L 68.536172 -30.381562 
L 68.536172 -30.381562 
L 68.536172 -30.381562 
L 68.536172 -30.381562 
L 68.536172 -30.381562 
L 68.536172 -30.381562 
L 68.536172 -30.381562 
L 68.536172 -30.381562 
L 68.536172 -30.381562 
L 68.536172 -30.381562 
L 68.536172 -30.381562 
L 68.536172 -30.381562 
L 68.536172 -30.381562 
L 68.536172 -30.381562 
L 68.536172 -30.381562 
L 68.536172 -30.381562 
L 68.536172 -30.381562 
L 68.536172 -30.381562 
L 68.536172 -30.381562 
L 68.536172 -30.381562 
L 68.536172 -30.381562 
L 68.536172 -30.381562 
L 68.536172 -30.381562 
L 68.536172 -30.381562 
L 68.536172 -30.381562 
L 68.536172 -30.381562 
L 68.536172 -30.381562 
L 68.536172 -30.381562 
L 68.536172 -30.381562 
L 68.536172 -30.381562 
L 68.536172 -30.381562 
L 68.536172 -30.381562 
L 68.536172 -30.381562 
L 68.536172 -30.381562 
L 68.536172 -30.381562 
L 68.536172 -30.381562 
L 68.536172 -30.381562 
L 68.536172 -30.381562 
L 68.536172 -30.381562 
L 68.536172 -30.381562 
L 68.536172 -30.381562 
L 68.536172 -30.381562 
L 68.536172 -30.381562 
L 68.536172 -30.381562 
L 68.536172 -30.381562 
L 68.536172 -30.381562 
L 68.536172 -30.381562 
L 68.536172 -30.381562 
L 68.536172 -30.381562 
L 68.536172 -30.381562 
L 68.536172 -30.381562 
L 68.536172 -30.381562 
L 68.536172 -30.381562 
L 68.536172 -30.381562 
L 68.536172 -30.381562 
L 68.536172 -30.381562 
L 68.536172 -30.381562 
L 68.536172 -30.381562 
L 68.536172 -30.381562 
L 68.536172 -30.381562 
L 68.536172 -30.381562 
L 68.536172 -30.381562 
L 68.536172 -30.381562 
L 68.536172 -30.381562 
L 68.536172 -30.381562 
L 68.536172 -30.381562 
L 68.536172 -30.381562 
L 68.536172 -30.381562 
L 68.536172 -30.381562 
L 68.536172 -30.381562 
L 68.536172 -30.381562 
L 68.536172 -30.381562 
L 68.536172 -30.381562 
L 68.536172 -30.381562 
L 68.536172 -30.381562 
L 68.536172 -30.381562 
L 68.536172 -30.381562 
L 68.536172 -30.381562 
L 68.536172 -30.381562 
L 68.536172 -30.381562 
L 68.536172 -30.381562 
L 68.536172 -30.381562 
L 68.536172 -30.381562 
L 68.536172 -30.381562 
L 68.536172 -30.381562 
L 68.536172 -30.381562 
L 68.536172 -30.381562 
L 68.536172 -30.381562 
L 68.536172 -30.381562 
L 68.536172 -30.381562 
L 68.536172 -30.381562 
L 68.536172 -30.381562 
L 68.536172 -30.381562 
L 68.536172 -30.381562 
L 68.536172 -30.381562 
L 68.536172 -30.381562 
L 68.536172 -30.381562 
L 68.536172 -30.381562 
L 68.536172 -30.381562 
L 68.536172 -30.381562 
L 68.536172 -30.381562 
L 68.536172 -30.381562 
L 68.536172 -30.381562 
L 68.536172 -30.381562 
L 68.536172 -30.381562 
L 68.536172 -30.381562 
L 68.536172 -30.381562 
L 68.536172 -30.381562 
L 68.536172 -30.381562 
L 68.536172 -30.381562 
L 68.536172 -30.381562 
L 68.536172 -30.381562 
L 68.536172 -30.381562 
L 68.536172 -30.381562 
L 68.536172 -30.381562 
L 68.536172 -30.381562 
L 68.536172 -30.381562 
L 68.536172 -30.381562 
L 68.536172 -30.381562 
L 68.536172 -30.381562 
L 68.536172 -30.381562 
L 68.536172 -30.381562 
L 68.536172 -30.381562 
L 68.536172 -30.381562 
L 68.536172 -30.381562 
L 68.536172 -30.381562 
L 68.536172 -30.381562 
L 68.536172 -30.381562 
L 68.536172 -30.381562 
L 68.536172 -30.381562 
L 68.536172 -30.381562 
L 68.536172 -30.381562 
L 68.536172 -30.381562 
L 68.536172 -30.381562 
L 68.536172 -30.381562 
L 68.536172 -30.381562 
L 68.536172 -30.381562 
L 68.536172 -30.381562 
L 68.536172 -30.381562 
L 68.536172 -30.381562 
L 68.536172 -30.381562 
L 68.536172 -30.381562 
L 68.536172 -30.381562 
L 68.536172 -30.381562 
L 68.536172 -30.381562 
L 68.536172 -30.381562 
L 68.536172 -30.381562 
L 68.536172 -30.381562 
L 68.536172 -30.381562 
L 68.536172 -30.381562 
L 68.536172 -30.381562 
L 68.536172 -30.381562 
L 68.536172 -30.381562 
L 68.536172 -30.381562 
L 68.536172 -30.381562 
L 68.536172 -30.381562 
L 68.536172 -30.381562 
L 68.536172 -30.381562 
L 68.536172 -30.381562 
L 68.536172 -30.381562 
L 68.536172 -30.381562 
L 68.536172 -30.381562 
L 68.536172 -30.381562 
L 68.536172 -30.381562 
L 68.536172 -30.381562 
L 68.536172 -30.381562 
L 68.536172 -30.381562 
L 68.536172 -30.381562 
L 68.536172 -30.381562 
L 68.536172 -30.381562 
L 68.536172 -30.381562 
L 68.536172 -30.381562 
L 68.536172 -30.381562 
L 68.536172 -30.381562 
L 68.536172 -30.381562 
L 68.536172 -30.381562 
L 68.536172 -30.381562 
L 68.536172 -30.381562 
L 68.536172 -30.381562 
L 68.536172 -30.381562 
L 68.536172 -30.381562 
L 68.536172 -30.381562 
L 68.536172 -30.381562 
L 68.536172 -30.381562 
L 68.536172 -30.381562 
L 68.536172 -30.381562 
L 68.536172 -30.381562 
L 68.536172 -30.381562 
L 68.536172 -30.381562 
L 68.536172 -30.381562 
L 68.536172 -30.381562 
L 68.536172 -30.381562 
L 68.536172 -30.381562 
L 68.536172 -30.381562 
L 68.536172 -30.381562 
L 68.536172 -30.381562 
L 68.536172 -30.381562 
L 68.536172 -30.381562 
L 68.536172 -30.381562 
L 68.536172 -30.381562 
L 68.536172 -30.381562 
L 68.536172 -30.381562 
L 68.536172 -30.381562 
L 68.536172 -30.381562 
L 68.536172 -30.381562 
L 68.536172 -30.381562 
L 68.536172 -30.381562 
L 68.536172 -30.381562 
L 68.536172 -30.381562 
L 68.536172 -30.381562 
L 68.536172 -30.381562 
L 68.536172 -30.381562 
L 68.536172 -30.381562 
L 68.536172 -30.381562 
L 68.536172 -30.381562 
L 68.536172 -30.381562 
L 68.536172 -30.381562 
L 68.536172 -30.381562 
L 68.536172 -30.381562 
L 68.536172 -30.381562 
L 68.536172 -30.381562 
L 68.536172 -30.381562 
L 68.536172 -30.381562 
L 68.536172 -30.381562 
L 68.536172 -30.381562 
L 68.536172 -30.381562 
L 68.536172 -30.381562 
L 68.536172 -30.381562 
L 68.536172 -274.389979 
L 68.536172 -274.389979 
L 69.304476 -274.450367 
L 70.073166 -274.509284 
L 70.842243 -274.566732 
L 71.61171 -274.622713 
L 72.381567 -274.677229 
L 73.151816 -274.730281 
L 73.922458 -274.781871 
L 74.693495 -274.832001 
L 75.464929 -274.880673 
L 76.236761 -274.927888 
L 77.008993 -274.973649 
L 77.781627 -275.017956 
L 78.554664 -275.060811 
L 79.328106 -275.102216 
L 80.101955 -275.142172 
L 80.876213 -275.180682 
L 81.650882 -275.217745 
L 82.425964 -275.253364 
L 83.20146 -275.28754 
L 83.977373 -275.320274 
L 84.753705 -275.351567 
L 85.530458 -275.381422 
L 86.307634 -275.409838 
L 87.085235 -275.436818 
L 87.863263 -275.462361 
L 88.641721 -275.48647 
L 89.42061 -275.509146 
L 90.199934 -275.530388 
L 90.979694 -275.5502 
L 91.759893 -275.56858 
L 92.540533 -275.58553 
L 93.321616 -275.601052 
L 94.103146 -275.615145 
L 94.885124 -275.627811 
L 95.667554 -275.639049 
L 96.450436 -275.648862 
L 97.233775 -275.657249 
L 98.017573 -275.664211 
L 98.801832 -275.669749 
L 99.586556 -275.673863 
L 100.371746 -275.676553 
L 101.157406 -275.677821 
L 101.943538 -275.677665 
L 102.730145 -275.676087 
L 103.51723 -275.673087 
L 104.304795 -275.668665 
L 105.092844 -275.662821 
L 105.88138 -275.655555 
L 106.670406 -275.646868 
L 107.459923 -275.636759 
L 108.249936 -275.625229 
L 109.040448 -275.612277 
L 109.831461 -275.597903 
L 110.622978 -275.582107 
L 111.415003 -275.564889 
L 112.207539 -275.546249 
L 113.000588 -275.526186 
L 113.794155 -275.504699 
L 114.588241 -275.48179 
L 115.382851 -275.457456 
L 116.177988 -275.431698 
L 116.973654 -275.404514 
L 117.769854 -275.375905 
L 118.56659 -275.34587 
L 119.363866 -275.314408 
L 120.161685 -275.281518 
L 120.96005 -275.247199 
L 121.758966 -275.21145 
L 122.558434 -275.174272 
L 123.35846 -275.135662 
L 124.159045 -275.095619 
L 124.960194 -275.054143 
L 125.76191 -275.011233 
L 126.564197 -274.966886 
L 127.367058 -274.921103 
L 128.170496 -274.873881 
L 128.974516 -274.825219 
L 129.779121 -274.775117 
L 130.584314 -274.723571 
L 131.390099 -274.670582 
L 132.196479 -274.616147 
L 133.003459 -274.560265 
L 133.811042 -274.502934 
L 134.619232 -274.444152 
L 135.428031 -274.383918 
L 136.237445 -274.32223 
L 137.047477 -274.259085 
L 137.858129 -274.194482 
L 138.669407 -274.128419 
L 139.481315 -274.060894 
L 140.293854 -273.991904 
L 141.107031 -273.921448 
L 141.920847 -273.849523 
L 142.735308 -273.776128 
L 143.550416 -273.701258 
L 144.366176 -273.624913 
L 145.182592 -273.547089 
L 145.999667 -273.467785 
L 146.817406 -273.386997 
L 147.635811 -273.304723 
L 148.454888 -273.220961 
L 149.274639 -273.135706 
L 150.095069 -273.048958 
L 150.916182 -272.960712 
L 151.737982 -272.870966 
L 152.560471 -272.779716 
L 153.383656 -272.686961 
L 154.207538 -272.592696 
L 155.032123 -272.496918 
L 155.857414 -272.399625 
L 156.683414 -272.300812 
L 157.510129 -272.200477 
L 158.337562 -272.098616 
L 159.165717 -271.995226 
L 159.994597 -271.890303 
L 160.824208 -271.783843 
L 161.654552 -271.675843 
L 162.485633 -271.566299 
L 163.317457 -271.455207 
L 164.150026 -271.342564 
L 164.983344 -271.228365 
L 165.817416 -271.112606 
L 166.652246 -270.995284 
L 167.487836 -270.876395 
L 168.324193 -270.755933 
L 169.161318 -270.633896 
L 169.999217 -270.510278 
L 170.837892 -270.385075 
L 171.677349 -270.258284 
L 172.517591 -270.129899 
L 173.358622 -269.999916 
L 174.200446 -269.86833 
L 175.043067 -269.735136 
L 175.886488 -269.600331 
L 176.730714 -269.463908 
L 177.575749 -269.325864 
L 178.421596 -269.186193 
L 179.268259 -269.044891 
L 180.115742 -268.901952 
L 180.96405 -268.75737 
L 181.813185 -268.611142 
L 182.663152 -268.463262 
L 183.513955 -268.313724 
L 184.365597 -268.162523 
L 185.218083 -268.009654 
L 186.071415 -267.855111 
L 186.925599 -267.698888 
L 187.780637 -267.540981 
L 188.636534 -267.381383 
L 189.493292 -267.220088 
L 190.350917 -267.057091 
L 191.209411 -266.892385 
L 192.068779 -266.725966 
L 192.929024 -266.557826 
L 193.79015 -266.387961 
L 194.65216 -266.216362 
L 195.515058 -266.043025 
L 196.378848 -265.867944 
L 197.243534 -265.691111 
L 198.109118 -265.51252 
L 198.975605 -265.332166 
L 199.842998 -265.150041 
L 200.711301 -264.966138 
L 201.580517 -264.780452 
L 202.45065 -264.592975 
L 203.321703 -264.403701 
L 204.19368 -264.212622 
L 205.066575 -264.019718 
L 205.940382 -263.824964 
L 206.815092 -263.628332 
L 207.690696 -263.429797 
L 208.567185 -263.229332 
L 209.444549 -263.026911 
L 210.32278 -262.822508 
L 211.201867 -262.616098 
L 212.081801 -262.407653 
L 212.96257 -262.197149 
L 213.844164 -261.984559 
L 214.726573 -261.769859 
L 215.609786 -261.553022 
L 216.49379 -261.334023 
L 217.378574 -261.112837 
L 218.264127 -260.889439 
L 219.150436 -260.663803 
L 220.037488 -260.435905 
L 220.925272 -260.205719 
L 221.813774 -259.973222 
L 222.70298 -259.738388 
L 223.592878 -259.501193 
L 224.483454 -259.261613 
L 225.374694 -259.019622 
L 226.266583 -258.775198 
L 227.159108 -258.528316 
L 228.052253 -258.278952 
L 228.946003 -258.027082 
L 229.840344 -257.772683 
L 230.73526 -257.515731 
L 231.630735 -257.256203 
L 232.526753 -256.994075 
L 233.423299 -256.729326 
L 234.320355 -256.46193 
L 235.217905 -256.191866 
L 236.115932 -255.919112 
L 237.01442 -255.643643 
L 237.913349 -255.365439 
L 238.812704 -255.084477 
L 239.712467 -254.800734 
L 240.612618 -254.51419 
L 241.51314 -254.224821 
L 242.414015 -253.932607 
L 243.315222 -253.637525 
L 244.216745 -253.339555 
L 245.118562 -253.038676 
L 246.020656 -252.734865 
L 246.923005 -252.428104 
L 247.825591 -252.11837 
L 248.728393 -251.805644 
L 249.63139 -251.489905 
L 250.534563 -251.171132 
L 251.43789 -250.849307 
L 252.34135 -250.524408 
L 253.244922 -250.196417 
L 254.148585 -249.865314 
L 255.052316 -249.531079 
L 255.956095 -249.193694 
L 256.859899 -248.853139 
L 257.763705 -248.509396 
L 258.667491 -248.162447 
L 259.571235 -247.812272 
L 260.474913 -247.458854 
L 261.378502 -247.102174 
L 262.28198 -246.742215 
L 263.185321 -246.37896 
L 264.088503 -246.01239 
L 264.991502 -245.642489 
L 265.894293 -245.269239 
L 266.796853 -244.892623 
L 267.699156 -244.512626 
L 268.601177 -244.12923 
L 269.502893 -243.74242 
L 270.404277 -243.352178 
L 271.305304 -242.95849 
L 272.20595 -242.56134 
L 273.106187 -242.160712 
L 274.005991 -241.756591 
L 274.905335 -241.348963 
L 275.804193 -240.937812 
L 276.702538 -240.523123 
L 277.600344 -240.104883 
L 278.497584 -239.683077 
L 279.394231 -239.257692 
L 280.290257 -238.828713 
L 281.185637 -238.396128 
L 282.080341 -237.959922 
L 282.974342 -237.520083 
L 283.867613 -237.076599 
L 284.760125 -236.629455 
L 285.65185 -236.178641 
L 286.542761 -235.724144 
L 287.432827 -235.265952 
L 288.322021 -234.804054 
L 289.210314 -234.338437 
L 290.097676 -233.869092 
L 290.984079 -233.396006 
L 291.869493 -232.919169 
L 292.753889 -232.438571 
L 293.637237 -231.954201 
L 294.519507 -231.46605 
L 295.40067 -230.974107 
L 296.280695 -230.478363 
L 297.159552 -229.978809 
L 298.037211 -229.475436 
L 298.91364 -228.968235 
L 299.788811 -228.457197 
L 300.662691 -227.942315 
L 301.535249 -227.423579 
L 302.406456 -226.900983 
L 303.276278 -226.374519 
L 304.144686 -225.844179 
L 305.011648 -225.309956 
L 305.877131 -224.771844 
L 306.741105 -224.229836 
L 307.603537 -223.683926 
L 308.464396 -223.134108 
L 309.323649 -222.580376 
L 310.181264 -222.022725 
L 311.037209 -221.461149 
L 311.891451 -220.895644 
L 312.743957 -220.326204 
L 313.594696 -219.752826 
L 314.443634 -219.175504 
L 315.290738 -218.594236 
L 316.135976 -218.009018 
L 316.979313 -217.419846 
L 317.820718 -216.826717 
L 318.660156 -216.229628 
L 319.497594 -215.628578 
L 320.332999 -215.023562 
L 321.166336 -214.414581 
L 321.997573 -213.801631 
L 322.826675 -213.184711 
L 323.653609 -212.563821 
L 324.47834 -211.938958 
L 325.300834 -211.310124 
L 326.121058 -210.677316 
L 326.938976 -210.040536 
L 327.754556 -209.399784 
L 328.567761 -208.755059 
L 329.378557 -208.106363 
L 330.186911 -207.453696 
L 330.992787 -206.797061 
L 331.796151 -206.136459 
L 332.596968 -205.471891 
L 333.395203 -204.80336 
L 334.19082 -204.130868 
L 334.983786 -203.454418 
L 335.774065 -202.774014 
L 336.561622 -202.089658 
L 337.346421 -201.401354 
L 338.128427 -200.709106 
L 338.907606 -200.012918 
L 339.683922 -199.312796 
L 340.457339 -198.608742 
L 341.227822 -197.900764 
L 341.995335 -197.188866 
L 342.759844 -196.473053 
L 343.521311 -195.753332 
L 344.279702 -195.029709 
L 345.034982 -194.30219 
L 345.787113 -193.570783 
L 346.536062 -192.835495 
L 347.281791 -192.096332 
L 348.024265 -191.353304 
L 348.763456 -190.606421 
L 349.499347 -189.855704 
L 350.231921 -189.101171 
L 350.961163 -188.342843 
L 351.687058 -187.580738 
L 352.409589 -186.814877 
L 353.128742 -186.045279 
L 353.8445 -185.271964 
L 354.556848 -184.494953 
L 355.265773 -183.714264 
L 355.971257 -182.929918 
L 356.673287 -182.141934 
L 357.371848 -181.350334 
L 358.066925 -180.555136 
L 358.758503 -179.756361 
L 359.446568 -178.954029 
L 360.131106 -178.14816 
L 360.812103 -177.338775 
L 361.489544 -176.525894 
L 362.163416 -175.709536 
L 362.833704 -174.889723 
L 363.500395 -174.066475 
L 364.163476 -173.239812 
L 364.822932 -172.409754 
L 365.47875 -171.576323 
L 366.130918 -170.739538 
L 366.779422 -169.89942 
L 367.424249 -169.05599 
L 368.065385 -168.209269 
L 368.702819 -167.359276 
L 369.336538 -166.506034 
L 369.966528 -165.649561 
L 370.592778 -164.78988 
L 371.215275 -163.927011 
L 371.834007 -163.060975 
L 372.448962 -162.191793 
L 373.060128 -161.319484 
L 373.667493 -160.444072 
L 374.271045 -159.565576 
L 374.870773 -158.684017 
L 375.466664 -157.799416 
L 376.058709 -156.911795 
L 376.646895 -156.021174 
L 377.231211 -155.127574 
L 377.811646 -154.231017 
L 378.38819 -153.331523 
L 378.960831 -152.429114 
L 379.529558 -151.523811 
L 380.094362 -150.615635 
L 380.655231 -149.704607 
L 381.212156 -148.790748 
L 381.765126 -147.87408 
L 382.31413 -146.954624 
L 382.85916 -146.0324 
L 383.400204 -145.107432 
L 383.937254 -144.179739 
L 384.470299 -143.249343 
L 384.99933 -142.316265 
L 385.524338 -141.380527 
L 386.045313 -140.44215 
L 386.562246 -139.501155 
L 387.075128 -138.557565 
L 387.583951 -137.611399 
L 388.088704 -136.66268 
L 388.589379 -135.711429 
L 389.085969 -134.757668 
L 389.578463 -133.801417 
L 390.066855 -132.842699 
L 390.551134 -131.881534 
L 391.031295 -130.917945 
L 391.507327 -129.951953 
L 391.979224 -128.983579 
L 392.446978 -128.012845 
L 392.91058 -127.039772 
L 393.370023 -126.064382 
L 393.825301 -125.086696 
L 394.276404 -124.106736 
L 394.723327 -123.124524 
L 395.166061 -122.14008 
L 395.604601 -121.153426 
L 396.038938 -120.164585 
L 396.469066 -119.173577 
L 396.894979 -118.180424 
L 397.31667 -117.185148 
L 397.734132 -116.18777 
L 398.147359 -115.188311 
L 398.556345 -114.186794 
L 398.961084 -113.183239 
L 399.361569 -112.177668 
L 399.757794 -111.170104 
L 400.149755 -110.160566 
L 400.537444 -109.149078 
L 400.920858 -108.135659 
L 401.299989 -107.120333 
L 401.674833 -106.10312 
L 402.045384 -105.084042 
L 402.411638 -104.06312 
L 402.773589 -103.040376 
L 403.131232 -102.015831 
L 403.484563 -100.989507 
L 403.833576 -99.961426 
L 404.178268 -98.931608 
L 404.518634 -97.900075 
L 404.854669 -96.866849 
L 405.186368 -95.831952 
L 405.513729 -94.795403 
L 405.836747 -93.757226 
L 406.155417 -92.71744 
L 406.469736 -91.676069 
L 406.779701 -90.633132 
L 407.085307 -89.588652 
L 407.386552 -88.54265 
L 407.683431 -87.495146 
L 407.975941 -86.446163 
L 408.26408 -85.395722 
L 408.547844 -84.343843 
L 408.82723 -83.290549 
L 409.102235 -82.23586 
L 409.372856 -81.179798 
L 409.639091 -80.122383 
L 409.900937 -79.063638 
L 410.158392 -78.003583 
L 410.411454 -76.942239 
L 410.660119 -75.879628 
L 410.904386 -74.81577 
L 411.144253 -73.750688 
L 411.379718 -72.6844 
L 411.610779 -71.61693 
L 411.837435 -70.548298 
L 412.059683 -69.478524 
L 412.277522 -68.40763 
L 412.49095 -67.335637 
L 412.699967 -66.262565 
L 412.904571 -65.188437 
L 413.104761 -64.113271 
L 413.300536 -63.03709 
L 413.491894 -61.959914 
L 413.678836 -60.881764 
L 413.86136 -59.80266 
L 414.039466 -58.722624 
L 414.213153 -57.641676 
L 414.382421 -56.559837 
L 414.54727 -55.477127 
L 414.707698 -54.393568 
L 414.863706 -53.309179 
L 415.015295 -52.223981 
L 415.162463 -51.137995 
L 415.305211 -50.051242 
L 415.44354 -48.963741 
L 415.57745 -47.875513 
L 415.706941 -46.786579 
L 415.832013 -45.696959 
L 415.952668 -44.606673 
L 416.068905 -43.515742 
L 416.180727 -42.424185 
L 416.288133 -41.332024 
L 416.391125 -40.239277 
L 416.489704 -39.145967 
L 416.583871 -38.052111 
L 416.673627 -36.957732 
L 416.758974 -35.862848 
L 416.839913 -34.76748 
L 416.916446 -33.671647 
L 416.988574 -32.57537 
L 417.0563 -31.478669 
L 417.119624 -30.381562 
z
" style="stroke: #000000; stroke-opacity: 0.075"/>
    </defs>
    <g clip-path="url(#p3cd6e83326)">
     <use xlink:href="#m7e5eec1bbf" x="0" y="428.4" style="fill-opacity: 0.075; stroke: #000000; stroke-opacity: 0.075"/>
    </g>
   </g>
   <g id="PathCollection_1">
    <defs>
     <path id="C0_0_787ed23b3d" d="M 0 3 
C 0.795609 3 1.55874 2.683901 2.12132 2.12132 
C 2.683901 1.55874 3 0.795609 3 -0 
C 3 -0.795609 2.683901 -1.55874 2.12132 -2.12132 
C 1.55874 -2.683901 0.795609 -3 0 -3 
C -0.795609 -3 -1.55874 -2.683901 -2.12132 -2.12132 
C -2.683901 -1.55874 -3 -0.795609 -3 0 
C -3 0.795609 -2.683901 1.55874 -2.12132 2.12132 
C -1.55874 2.683901 -0.795609 3 0 3 
z
"/>
    </defs>
    <g clip-path="url(#p3cd6e83326)">
     <use xlink:href="#C0_0_787ed23b3d" x="112.109103" y="398.018438" style="fill: #fde725; stroke: #fde725"/>
    </g>
    <g clip-path="url(#p3cd6e83326)">
     <use xlink:href="#C0_0_787ed23b3d" x="155.682035" y="398.018438" style="fill: #25ab82; stroke: #25ab82"/>
    </g>
    <g clip-path="url(#p3cd6e83326)">
     <use xlink:href="#C0_0_787ed23b3d" x="199.254966" y="398.018438" style="fill: #22a884; stroke: #22a884"/>
    </g>
    <g clip-path="url(#p3cd6e83326)">
     <use xlink:href="#C0_0_787ed23b3d" x="242.827898" y="398.018438" style="fill: #27ad81; stroke: #27ad81"/>
    </g>
    <g clip-path="url(#p3cd6e83326)">
     <use xlink:href="#C0_0_787ed23b3d" x="286.400829" y="398.018438" style="fill: #35b779; stroke: #35b779"/>
    </g>
    <g clip-path="url(#p3cd6e83326)">
     <use xlink:href="#C0_0_787ed23b3d" x="329.973761" y="398.018438" style="fill: #50c46a; stroke: #50c46a"/>
    </g>
    <g clip-path="url(#p3cd6e83326)">
     <use xlink:href="#C0_0_787ed23b3d" x="373.546692" y="398.018438" style="fill: #70cf57; stroke: #70cf57"/>
    </g>
    <g clip-path="url(#p3cd6e83326)">
     <use xlink:href="#C0_0_787ed23b3d" x="417.119624" y="398.018438" style="fill: #a8db34; stroke: #a8db34"/>
    </g>
    <g clip-path="url(#p3cd6e83326)">
     <use xlink:href="#C0_0_787ed23b3d" x="110.624392" y="386.740933" style="fill: #84d44b; stroke: #84d44b"/>
    </g>
    <g clip-path="url(#p3cd6e83326)">
     <use xlink:href="#C0_0_787ed23b3d" x="152.712612" y="375.463428" style="fill: #1f9e89; stroke: #1f9e89"/>
    </g>
    <g clip-path="url(#p3cd6e83326)">
     <use xlink:href="#C0_0_787ed23b3d" x="194.800831" y="364.185924" style="fill: #1f9e89; stroke: #1f9e89"/>
    </g>
    <g clip-path="url(#p3cd6e83326)">
     <use xlink:href="#C0_0_787ed23b3d" x="236.889051" y="352.908419" style="fill: #21a585; stroke: #21a585"/>
    </g>
    <g clip-path="url(#p3cd6e83326)">
     <use xlink:href="#C0_0_787ed23b3d" x="278.977271" y="341.630915" style="fill: #28ae80; stroke: #28ae80"/>
    </g>
    <g clip-path="url(#p3cd6e83326)">
     <use xlink:href="#C0_0_787ed23b3d" x="321.065491" y="330.35341" style="fill: #3dbc74; stroke: #3dbc74"/>
    </g>
    <g clip-path="url(#p3cd6e83326)">
     <use xlink:href="#C0_0_787ed23b3d" x="363.153711" y="319.075906" style="fill: #60ca60; stroke: #60ca60"/>
    </g>
    <g clip-path="url(#p3cd6e83326)">
     <use xlink:href="#C0_0_787ed23b3d" x="405.241931" y="307.798401" style="fill: #93d741; stroke: #93d741"/>
    </g>
    <g clip-path="url(#p3cd6e83326)">
     <use xlink:href="#C0_0_787ed23b3d" x="106.271437" y="376.231972" style="fill: #1e9d89; stroke: #1e9d89"/>
    </g>
    <g clip-path="url(#p3cd6e83326)">
     <use xlink:href="#C0_0_787ed23b3d" x="144.006703" y="354.445506" style="fill: #218e8d; stroke: #218e8d"/>
    </g>
    <g clip-path="url(#p3cd6e83326)">
     <use xlink:href="#C0_0_787ed23b3d" x="181.741969" y="332.65904" style="fill: #21908d; stroke: #21908d"/>
    </g>
    <g clip-path="url(#p3cd6e83326)">
     <use xlink:href="#C0_0_787ed23b3d" x="219.477234" y="310.872574" style="fill: #1f998a; stroke: #1f998a"/>
    </g>
    <g clip-path="url(#p3cd6e83326)">
     <use xlink:href="#C0_0_787ed23b3d" x="257.2125" y="289.086109" style="fill: #1f9e89; stroke: #1f9e89"/>
    </g>
    <g clip-path="url(#p3cd6e83326)">
     <use xlink:href="#C0_0_787ed23b3d" x="294.947766" y="267.299643" style="fill: #23a983; stroke: #23a983"/>
    </g>
    <g clip-path="url(#p3cd6e83326)">
     <use xlink:href="#C0_0_787ed23b3d" x="332.683031" y="245.513177" style="fill: #35b779; stroke: #35b779"/>
    </g>
    <g clip-path="url(#p3cd6e83326)">
     <use xlink:href="#C0_0_787ed23b3d" x="370.418297" y="223.726711" style="fill: #56c667; stroke: #56c667"/>
    </g>
    <g clip-path="url(#p3cd6e83326)">
     <use xlink:href="#C0_0_787ed23b3d" x="99.346887" y="367.207722" style="fill: #2f6b8e; stroke: #2f6b8e"/>
    </g>
    <g clip-path="url(#p3cd6e83326)">
     <use xlink:href="#C0_0_787ed23b3d" x="130.157603" y="336.397007" style="fill: #2c718e; stroke: #2c718e"/>
    </g>
    <g clip-path="url(#p3cd6e83326)">
     <use xlink:href="#C0_0_787ed23b3d" x="160.968318" y="305.586291" style="fill: #287c8e; stroke: #287c8e"/>
    </g>
    <g clip-path="url(#p3cd6e83326)">
     <use xlink:href="#C0_0_787ed23b3d" x="191.779033" y="274.775576" style="fill: #26818e; stroke: #26818e"/>
    </g>
    <g clip-path="url(#p3cd6e83326)">
     <use xlink:href="#C0_0_787ed23b3d" x="222.589749" y="243.964861" style="fill: #23888e; stroke: #23888e"/>
    </g>
    <g clip-path="url(#p3cd6e83326)">
     <use xlink:href="#C0_0_787ed23b3d" x="253.400464" y="213.154145" style="fill: #218e8d; stroke: #218e8d"/>
    </g>
    <g clip-path="url(#p3cd6e83326)">
     <use xlink:href="#C0_0_787ed23b3d" x="284.211179" y="182.34343" style="fill: #1f978b; stroke: #1f978b"/>
    </g>
    <g clip-path="url(#p3cd6e83326)">
     <use xlink:href="#C0_0_787ed23b3d" x="315.021895" y="151.532715" style="fill: #20a386; stroke: #20a386"/>
    </g>
    <g clip-path="url(#p3cd6e83326)">
     <use xlink:href="#C0_0_787ed23b3d" x="90.322638" y="360.283172" style="fill: #414487; stroke: #414487"/>
    </g>
    <g clip-path="url(#p3cd6e83326)">
     <use xlink:href="#C0_0_787ed23b3d" x="112.109103" y="322.547906" style="fill: #39568c; stroke: #39568c"/>
    </g>
    <g clip-path="url(#p3cd6e83326)">
     <use xlink:href="#C0_0_787ed23b3d" x="133.895569" y="284.812641" style="fill: #33628d; stroke: #33628d"/>
    </g>
    <g clip-path="url(#p3cd6e83326)">
     <use xlink:href="#C0_0_787ed23b3d" x="155.682035" y="247.077375" style="fill: #31678e; stroke: #31678e"/>
    </g>
    <g clip-path="url(#p3cd6e83326)">
     <use xlink:href="#C0_0_787ed23b3d" x="177.468501" y="209.342109" style="fill: #306a8e; stroke: #306a8e"/>
    </g>
    <g clip-path="url(#p3cd6e83326)">
     <use xlink:href="#C0_0_787ed23b3d" x="199.690696" y="170.852139" style="fill: #2e6d8e; stroke: #2e6d8e"/>
    </g>
    <g clip-path="url(#p3cd6e83326)">
     <use xlink:href="#C0_0_787ed23b3d" x="221.477161" y="133.116873" style="fill: #2e6f8e; stroke: #2e6f8e"/>
    </g>
    <g clip-path="url(#p3cd6e83326)">
     <use xlink:href="#C0_0_787ed23b3d" x="243.263627" y="95.381607" style="fill: #2c728e; stroke: #2c728e"/>
    </g>
    <g clip-path="url(#p3cd6e83326)">
     <use xlink:href="#C0_0_787ed23b3d" x="79.813676" y="355.930218" style="fill: #481769; stroke: #481769"/>
    </g>
    <g clip-path="url(#p3cd6e83326)">
     <use xlink:href="#C0_0_787ed23b3d" x="91.091181" y="313.841998" style="fill: #414487; stroke: #414487"/>
    </g>
    <g clip-path="url(#p3cd6e83326)">
     <use xlink:href="#C0_0_787ed23b3d" x="102.368685" y="271.753778" style="fill: #3e4989; stroke: #3e4989"/>
    </g>
    <g clip-path="url(#p3cd6e83326)">
     <use xlink:href="#C0_0_787ed23b3d" x="113.64619" y="229.665558" style="fill: #3d4d8a; stroke: #3d4d8a"/>
    </g>
    <g clip-path="url(#p3cd6e83326)">
     <use xlink:href="#C0_0_787ed23b3d" x="124.923695" y="187.577338" style="fill: #3e4c8a; stroke: #3e4c8a"/>
    </g>
    <g clip-path="url(#p3cd6e83326)">
     <use xlink:href="#C0_0_787ed23b3d" x="136.201199" y="145.489118" style="fill: #404688; stroke: #404688"/>
    </g>
    <g clip-path="url(#p3cd6e83326)">
     <use xlink:href="#C0_0_787ed23b3d" x="147.478704" y="103.400898" style="fill: #433e85; stroke: #433e85"/>
    </g>
    <g clip-path="url(#p3cd6e83326)">
     <use xlink:href="#C0_0_787ed23b3d" x="158.756208" y="61.312679" style="fill: #453581; stroke: #453581"/>
    </g>
    <g clip-path="url(#p3cd6e83326)">
     <use xlink:href="#C0_0_787ed23b3d" x="68.536172" y="354.445506" style="fill: #460a5d; stroke: #460a5d"/>
    </g>
    <g clip-path="url(#p3cd6e83326)">
     <use xlink:href="#C0_0_787ed23b3d" x="68.536172" y="310.872574" style="fill: #46337f; stroke: #46337f"/>
    </g>
    <g clip-path="url(#p3cd6e83326)">
     <use xlink:href="#C0_0_787ed23b3d" x="68.536172" y="267.299643" style="fill: #433e85; stroke: #433e85"/>
    </g>
    <g clip-path="url(#p3cd6e83326)">
     <use xlink:href="#C0_0_787ed23b3d" x="68.536172" y="223.726711" style="fill: #433e85; stroke: #433e85"/>
    </g>
    <g clip-path="url(#p3cd6e83326)">
     <use xlink:href="#C0_0_787ed23b3d" x="68.536172" y="180.15378" style="fill: #443983; stroke: #443983"/>
    </g>
    <g clip-path="url(#p3cd6e83326)">
     <use xlink:href="#C0_0_787ed23b3d" x="68.536172" y="136.580848" style="fill: #472f7d; stroke: #472f7d"/>
    </g>
    <g clip-path="url(#p3cd6e83326)">
     <use xlink:href="#C0_0_787ed23b3d" x="68.536172" y="93.007917" style="fill: #481d6f; stroke: #481d6f"/>
    </g>
    <g clip-path="url(#p3cd6e83326)">
     <use xlink:href="#C0_0_787ed23b3d" x="68.536172" y="49.434985" style="fill: #440154; stroke: #440154"/>
    </g>
   </g>
   <g id="matplotlib.axis_1">
    <g id="xtick_1">
     <g id="line2d_1">
      <path d="M 68.536172 398.018438 
L 435.463828 398.018438 
" clip-path="url(#p3cd6e83326)" style="fill: none; stroke: #b0b0b0; stroke-width: 0.8; stroke-linecap: square"/>
     </g>
     <g id="text_1">
      <!-- 0° -->
      <g transform="translate(442.078203 401.605625) scale(0.13 -0.13)">
       <defs>
        <path id="DejaVuSerif-30" d="M 2034 219 
Q 2513 219 2750 744 
Q 2988 1269 2988 2328 
Q 2988 3391 2750 3916 
Q 2513 4441 2034 4441 
Q 1556 4441 1318 3916 
Q 1081 3391 1081 2328 
Q 1081 1269 1318 744 
Q 1556 219 2034 219 
z
M 2034 -91 
Q 1275 -91 848 546 
Q 422 1184 422 2328 
Q 422 3475 848 4112 
Q 1275 4750 2034 4750 
Q 2797 4750 3222 4112 
Q 3647 3475 3647 2328 
Q 3647 1184 3222 546 
Q 2797 -91 2034 -91 
z
" transform="scale(0.015625)"/>
        <path id="DejaVuSerif-b0" d="M 1600 4319 
Q 1363 4319 1200 4155 
Q 1038 3991 1038 3750 
Q 1038 3513 1198 3353 
Q 1359 3194 1600 3194 
Q 1838 3194 2000 3355 
Q 2163 3516 2163 3750 
Q 2163 3984 1997 4151 
Q 1831 4319 1600 4319 
z
M 1600 4750 
Q 1800 4750 1984 4673 
Q 2169 4597 2303 4453 
Q 2447 4313 2519 4134 
Q 2591 3956 2591 3750 
Q 2591 3338 2302 3052 
Q 2013 2766 1594 2766 
Q 1172 2766 890 3047 
Q 609 3328 609 3750 
Q 609 4169 896 4459 
Q 1184 4750 1600 4750 
z
" transform="scale(0.015625)"/>
       </defs>
       <use xlink:href="#DejaVuSerif-30"/>
       <use xlink:href="#DejaVuSerif-b0" x="63.623047"/>
      </g>
     </g>
    </g>
    <g id="xtick_2">
     <g id="line2d_2">
      <path d="M 68.536172 398.018438 
L 422.961071 303.050572 
" clip-path="url(#p3cd6e83326)" style="fill: none; stroke: #b0b0b0; stroke-width: 0.8; stroke-linecap: square"/>
     </g>
     <g id="text_2">
      <!-- 15° -->
      <g transform="translate(424.962783 303.014293) scale(0.13 -0.13)">
       <defs>
        <path id="DejaVuSerif-31" d="M 909 0 
L 909 331 
L 1722 331 
L 1722 4213 
L 781 3603 
L 781 4013 
L 1919 4750 
L 2350 4750 
L 2350 331 
L 3163 331 
L 3163 0 
L 909 0 
z
" transform="scale(0.015625)"/>
        <path id="DejaVuSerif-35" d="M 3219 4666 
L 3219 4153 
L 1081 4153 
L 1081 2816 
Q 1244 2928 1461 2984 
Q 1678 3041 1947 3041 
Q 2703 3041 3140 2622 
Q 3578 2203 3578 1478 
Q 3578 738 3136 323 
Q 2694 -91 1894 -91 
Q 1572 -91 1234 -12 
Q 897 66 544 225 
L 544 1131 
L 897 1131 
Q 925 688 1179 453 
Q 1434 219 1894 219 
Q 2388 219 2653 544 
Q 2919 869 2919 1478 
Q 2919 2084 2655 2407 
Q 2391 2731 1894 2731 
Q 1613 2731 1398 2631 
Q 1184 2531 1019 2322 
L 750 2322 
L 750 4666 
L 3219 4666 
z
" transform="scale(0.015625)"/>
       </defs>
       <use xlink:href="#DejaVuSerif-31"/>
       <use xlink:href="#DejaVuSerif-35" x="63.623047"/>
       <use xlink:href="#DejaVuSerif-b0" x="127.246094"/>
      </g>
     </g>
    </g>
    <g id="xtick_3">
     <g id="line2d_3">
      <path d="M 68.536172 398.018438 
L 386.304844 214.554609 
" clip-path="url(#p3cd6e83326)" style="fill: none; stroke: #b0b0b0; stroke-width: 0.8; stroke-linecap: square"/>
     </g>
     <g id="text_3">
      <!-- 30° -->
      <g transform="translate(386.907949 211.141797) scale(0.13 -0.13)">
       <defs>
        <path id="DejaVuSerif-33" d="M 622 4469 
Q 988 4606 1323 4678 
Q 1659 4750 1953 4750 
Q 2638 4750 3022 4454 
Q 3406 4159 3406 3634 
Q 3406 3213 3140 2930 
Q 2875 2647 2388 2547 
Q 2963 2466 3280 2130 
Q 3597 1794 3597 1259 
Q 3597 606 3158 257 
Q 2719 -91 1894 -91 
Q 1528 -91 1179 -12 
Q 831 66 488 225 
L 488 1131 
L 838 1131 
Q 869 681 1141 450 
Q 1413 219 1906 219 
Q 2384 219 2661 495 
Q 2938 772 2938 1253 
Q 2938 1803 2653 2086 
Q 2369 2369 1819 2369 
L 1522 2369 
L 1522 2688 
L 1678 2688 
Q 2225 2688 2498 2914 
Q 2772 3141 2772 3597 
Q 2772 4006 2547 4223 
Q 2322 4441 1900 4441 
Q 1478 4441 1245 4241 
Q 1013 4041 972 3647 
L 622 3647 
L 622 4469 
z
" transform="scale(0.015625)"/>
       </defs>
       <use xlink:href="#DejaVuSerif-33"/>
       <use xlink:href="#DejaVuSerif-30" x="63.623047"/>
       <use xlink:href="#DejaVuSerif-b0" x="127.246094"/>
      </g>
     </g>
    </g>
    <g id="xtick_4">
     <g id="line2d_4">
      <path d="M 68.536172 398.018438 
L 327.993206 138.561404 
" clip-path="url(#p3cd6e83326)" style="fill: none; stroke: #b0b0b0; stroke-width: 0.8; stroke-linecap: square"/>
     </g>
     <g id="text_4">
      <!-- 45° -->
      <g transform="translate(326.371451 132.249096) scale(0.13 -0.13)">
       <defs>
        <path id="DejaVuSerif-34" d="M 2234 1581 
L 2234 4063 
L 641 1581 
L 2234 1581 
z
M 3609 0 
L 1484 0 
L 1484 331 
L 2234 331 
L 2234 1247 
L 197 1247 
L 197 1588 
L 2241 4750 
L 2859 4750 
L 2859 1581 
L 3750 1581 
L 3750 1247 
L 2859 1247 
L 2859 331 
L 3609 331 
L 3609 0 
z
" transform="scale(0.015625)"/>
       </defs>
       <use xlink:href="#DejaVuSerif-34"/>
       <use xlink:href="#DejaVuSerif-35" x="63.623047"/>
       <use xlink:href="#DejaVuSerif-b0" x="127.246094"/>
      </g>
     </g>
    </g>
    <g id="xtick_5">
     <g id="line2d_5">
      <path d="M 68.536172 398.018438 
L 252 80.249766 
" clip-path="url(#p3cd6e83326)" style="fill: none; stroke: #b0b0b0; stroke-width: 0.8; stroke-linecap: square"/>
     </g>
     <g id="text_5">
      <!-- 60° -->
      <g transform="translate(247.47875 71.712598) scale(0.13 -0.13)">
       <defs>
        <path id="DejaVuSerif-36" d="M 2094 219 
Q 2534 219 2771 542 
Q 3009 866 3009 1472 
Q 3009 2078 2771 2401 
Q 2534 2725 2094 2725 
Q 1647 2725 1412 2412 
Q 1178 2100 1178 1509 
Q 1178 888 1415 553 
Q 1653 219 2094 219 
z
M 1075 2569 
Q 1288 2803 1556 2918 
Q 1825 3034 2163 3034 
Q 2859 3034 3264 2615 
Q 3669 2197 3669 1472 
Q 3669 763 3233 336 
Q 2797 -91 2069 -91 
Q 1278 -91 853 498 
Q 428 1088 428 2181 
Q 428 3406 931 4078 
Q 1434 4750 2350 4750 
Q 2597 4750 2869 4703 
Q 3141 4656 3425 4563 
L 3425 3794 
L 3072 3794 
Q 3034 4109 2831 4275 
Q 2628 4441 2284 4441 
Q 1678 4441 1381 3981 
Q 1084 3522 1075 2569 
z
" transform="scale(0.015625)"/>
       </defs>
       <use xlink:href="#DejaVuSerif-36"/>
       <use xlink:href="#DejaVuSerif-30" x="63.623047"/>
       <use xlink:href="#DejaVuSerif-b0" x="127.246094"/>
      </g>
     </g>
    </g>
    <g id="xtick_6">
     <g id="line2d_6">
      <path d="M 68.536172 398.018438 
L 163.504037 43.593538 
" clip-path="url(#p3cd6e83326)" style="fill: none; stroke: #b0b0b0; stroke-width: 0.8; stroke-linecap: square"/>
     </g>
     <g id="text_6">
      <!-- 75° -->
      <g transform="translate(155.606254 33.657764) scale(0.13 -0.13)">
       <defs>
        <path id="DejaVuSerif-37" d="M 3609 4347 
L 1784 0 
L 1319 0 
L 3059 4153 
L 903 4153 
L 903 3578 
L 538 3578 
L 538 4666 
L 3609 4666 
L 3609 4347 
z
" transform="scale(0.015625)"/>
       </defs>
       <use xlink:href="#DejaVuSerif-37"/>
       <use xlink:href="#DejaVuSerif-35" x="63.623047"/>
       <use xlink:href="#DejaVuSerif-b0" x="127.246094"/>
      </g>
     </g>
    </g>
    <g id="xtick_7">
     <g id="line2d_7">
      <path d="M 68.536172 398.018438 
L 68.536172 31.090781 
" clip-path="url(#p3cd6e83326)" style="fill: none; stroke: #b0b0b0; stroke-width: 0.8; stroke-linecap: square"/>
     </g>
     <g id="text_7">
      <!-- 90° -->
      <g transform="translate(57.014922 20.677969) scale(0.13 -0.13)">
       <defs>
        <path id="DejaVuSerif-39" d="M 2994 2091 
Q 2784 1856 2512 1740 
Q 2241 1625 1900 1625 
Q 1206 1625 804 2044 
Q 403 2463 403 3188 
Q 403 3897 839 4323 
Q 1275 4750 2003 4750 
Q 2794 4750 3217 4161 
Q 3641 3572 3641 2478 
Q 3641 1253 3137 581 
Q 2634 -91 1722 -91 
Q 1475 -91 1203 -44 
Q 931 3 647 97 
L 647 872 
L 997 872 
Q 1038 556 1241 387 
Q 1444 219 1784 219 
Q 2391 219 2687 676 
Q 2984 1134 2994 2091 
z
M 1978 4441 
Q 1534 4441 1298 4117 
Q 1063 3794 1063 3188 
Q 1063 2581 1298 2256 
Q 1534 1931 1978 1931 
Q 2422 1931 2658 2245 
Q 2894 2559 2894 3150 
Q 2894 3772 2656 4106 
Q 2419 4441 1978 4441 
z
" transform="scale(0.015625)"/>
       </defs>
       <use xlink:href="#DejaVuSerif-39"/>
       <use xlink:href="#DejaVuSerif-30" x="63.623047"/>
       <use xlink:href="#DejaVuSerif-b0" x="127.246094"/>
      </g>
     </g>
    </g>
   </g>
   <g id="matplotlib.axis_2">
    <g id="ytick_1">
     <g id="line2d_8">
      <path d="M 112.109103 398.018438 
C 112.109103 386.46661 107.515263 375.376098 99.346887 367.207722 
C 91.178511 359.039346 80.088 354.445506 68.536172 354.445506 
" clip-path="url(#p3cd6e83326)" style="fill: none; stroke: #b0b0b0; stroke-width: 0.8; stroke-linecap: square"/>
     </g>
     <g id="text_8">
      <!-- 0.05 -->
      <g transform="translate(97.636447 414.896406) scale(0.13 -0.13)">
       <defs>
        <path id="DejaVuSerif-2e" d="M 603 325 
Q 603 500 722 622 
Q 841 744 1019 744 
Q 1191 744 1312 622 
Q 1434 500 1434 325 
Q 1434 153 1312 31 
Q 1191 -91 1019 -91 
Q 841 -91 722 29 
Q 603 150 603 325 
z
" transform="scale(0.015625)"/>
       </defs>
       <use xlink:href="#DejaVuSerif-30"/>
       <use xlink:href="#DejaVuSerif-2e" x="63.623047"/>
       <use xlink:href="#DejaVuSerif-30" x="95.410156"/>
       <use xlink:href="#DejaVuSerif-35" x="159.033203"/>
      </g>
     </g>
    </g>
    <g id="ytick_2">
     <g id="line2d_9">
      <path d="M 155.682035 398.018438 
C 155.682035 374.914782 146.494354 352.733758 130.157603 336.397007 
C 113.820851 320.060255 91.639828 310.872574 68.536172 310.872574 
" clip-path="url(#p3cd6e83326)" style="fill: none; stroke: #b0b0b0; stroke-width: 0.8; stroke-linecap: square"/>
     </g>
     <g id="text_9">
      <!-- 0.10 -->
      <g transform="translate(141.209379 414.896406) scale(0.13 -0.13)">
       <use xlink:href="#DejaVuSerif-30"/>
       <use xlink:href="#DejaVuSerif-2e" x="63.623047"/>
       <use xlink:href="#DejaVuSerif-31" x="95.410156"/>
       <use xlink:href="#DejaVuSerif-30" x="159.033203"/>
      </g>
     </g>
    </g>
    <g id="ytick_3">
     <g id="line2d_10">
      <path d="M 199.254966 398.018438 
C 199.254966 363.362954 185.473445 330.091419 160.968318 305.586291 
C 136.46319 281.081164 103.191655 267.299643 68.536172 267.299643 
" clip-path="url(#p3cd6e83326)" style="fill: none; stroke: #b0b0b0; stroke-width: 0.8; stroke-linecap: square"/>
     </g>
     <g id="text_10">
      <!-- 0.15 -->
      <g transform="translate(184.78231 414.896406) scale(0.13 -0.13)">
       <use xlink:href="#DejaVuSerif-30"/>
       <use xlink:href="#DejaVuSerif-2e" x="63.623047"/>
       <use xlink:href="#DejaVuSerif-31" x="95.410156"/>
       <use xlink:href="#DejaVuSerif-35" x="159.033203"/>
      </g>
     </g>
    </g>
    <g id="ytick_4">
     <g id="line2d_11">
      <path d="M 242.827898 398.018438 
C 242.827898 351.811126 224.452537 307.449079 191.779033 274.775576 
C 159.10553 242.102073 114.743483 223.726711 68.536172 223.726711 
" clip-path="url(#p3cd6e83326)" style="fill: none; stroke: #b0b0b0; stroke-width: 0.8; stroke-linecap: square"/>
     </g>
     <g id="text_11">
      <!-- 0.20 -->
      <g transform="translate(228.355242 414.896406) scale(0.13 -0.13)">
       <defs>
        <path id="DejaVuSerif-32" d="M 819 3553 
L 469 3553 
L 469 4384 
Q 803 4563 1142 4656 
Q 1481 4750 1806 4750 
Q 2534 4750 2956 4397 
Q 3378 4044 3378 3438 
Q 3378 2753 2422 1800 
Q 2347 1728 2309 1691 
L 1131 513 
L 3078 513 
L 3078 1088 
L 3444 1088 
L 3444 0 
L 434 0 
L 434 341 
L 1850 1753 
Q 2319 2222 2519 2614 
Q 2719 3006 2719 3438 
Q 2719 3909 2473 4175 
Q 2228 4441 1797 4441 
Q 1350 4441 1106 4219 
Q 863 3997 819 3553 
z
" transform="scale(0.015625)"/>
       </defs>
       <use xlink:href="#DejaVuSerif-30"/>
       <use xlink:href="#DejaVuSerif-2e" x="63.623047"/>
       <use xlink:href="#DejaVuSerif-32" x="95.410156"/>
       <use xlink:href="#DejaVuSerif-30" x="159.033203"/>
      </g>
     </g>
    </g>
    <g id="ytick_5">
     <g id="line2d_12">
      <path d="M 286.400829 398.018438 
C 286.400829 340.259298 263.431628 284.80674 222.589749 243.964861 
C 181.74787 203.122982 126.295311 180.15378 68.536172 180.15378 
" clip-path="url(#p3cd6e83326)" style="fill: none; stroke: #b0b0b0; stroke-width: 0.8; stroke-linecap: square"/>
     </g>
     <g id="text_12">
      <!-- 0.25 -->
      <g transform="translate(271.928173 414.896406) scale(0.13 -0.13)">
       <use xlink:href="#DejaVuSerif-30"/>
       <use xlink:href="#DejaVuSerif-2e" x="63.623047"/>
       <use xlink:href="#DejaVuSerif-32" x="95.410156"/>
       <use xlink:href="#DejaVuSerif-35" x="159.033203"/>
      </g>
     </g>
    </g>
    <g id="ytick_6">
     <g id="line2d_13">
      <path d="M 329.973761 398.018438 
C 329.973761 328.70747 302.410719 262.1644 253.400464 213.154145 
C 204.390209 164.14389 137.847139 136.580848 68.536172 136.580848 
" clip-path="url(#p3cd6e83326)" style="fill: none; stroke: #b0b0b0; stroke-width: 0.8; stroke-linecap: square"/>
     </g>
     <g id="text_13">
      <!-- 0.30 -->
      <g transform="translate(315.501105 414.896406) scale(0.13 -0.13)">
       <use xlink:href="#DejaVuSerif-30"/>
       <use xlink:href="#DejaVuSerif-2e" x="63.623047"/>
       <use xlink:href="#DejaVuSerif-33" x="95.410156"/>
       <use xlink:href="#DejaVuSerif-30" x="159.033203"/>
      </g>
     </g>
    </g>
    <g id="ytick_7">
     <g id="line2d_14">
      <path d="M 373.546692 398.018438 
C 373.546692 317.155642 341.38981 239.522061 284.211179 182.34343 
C 227.032549 125.164799 149.398967 93.007917 68.536172 93.007917 
" clip-path="url(#p3cd6e83326)" style="fill: none; stroke: #b0b0b0; stroke-width: 0.8; stroke-linecap: square"/>
     </g>
     <g id="text_14">
      <!-- 0.35 -->
      <g transform="translate(359.074036 414.896406) scale(0.13 -0.13)">
       <use xlink:href="#DejaVuSerif-30"/>
       <use xlink:href="#DejaVuSerif-2e" x="63.623047"/>
       <use xlink:href="#DejaVuSerif-33" x="95.410156"/>
       <use xlink:href="#DejaVuSerif-35" x="159.033203"/>
      </g>
     </g>
    </g>
    <g id="ytick_8">
     <g id="line2d_15">
      <path d="M 417.119624 398.018438 
C 417.119624 305.603815 380.368901 216.879721 315.021895 151.532715 
C 249.674888 86.185708 160.950795 49.434985 68.536172 49.434985 
" clip-path="url(#p3cd6e83326)" style="fill: none; stroke: #b0b0b0; stroke-width: 0.8; stroke-linecap: square"/>
     </g>
     <g id="text_15">
      <!-- 0.40 -->
      <g transform="translate(402.646968 414.896406) scale(0.13 -0.13)">
       <use xlink:href="#DejaVuSerif-30"/>
       <use xlink:href="#DejaVuSerif-2e" x="63.623047"/>
       <use xlink:href="#DejaVuSerif-34" x="95.410156"/>
       <use xlink:href="#DejaVuSerif-30" x="159.033203"/>
      </g>
     </g>
    </g>
   </g>
   <g id="line2d_16">
    <path d="M 417.119624 398.018438 
L 416.583871 390.347889 
L 415.832013 382.703041 
L 414.863706 375.090821 
L 413.678836 367.518236 
L 412.277522 359.99237 
L 410.660119 352.520372 
L 408.82723 345.109451 
L 406.779701 337.766868 
L 404.518634 330.499925 
L 402.045384 323.315958 
L 399.361569 316.222332 
L 396.469066 309.226423 
L 393.370023 302.335618 
L 390.066855 295.557301 
L 386.562246 288.898845 
L 382.85916 282.3676 
L 378.960831 275.970886 
L 374.870773 269.715983 
L 370.592778 263.61012 
L 366.130918 257.660462 
L 361.489544 251.874106 
L 356.673287 246.258066 
L 351.687058 240.819262 
L 346.536062 235.564505 
L 341.227822 230.499236 
L 335.774065 225.625986 
L 330.186911 220.946304 
L 324.47834 216.461042 
L 318.660156 212.170372 
L 312.743957 208.073796 
L 306.741105 204.170164 
L 300.662691 200.457685 
L 293.637237 196.445799 
L 286.542761 192.675856 
L 279.394231 189.142308 
L 272.20595 185.83866 
L 264.991502 182.757511 
L 257.763705 179.890604 
L 249.63139 176.910095 
L 241.51314 174.175179 
L 233.423299 171.670674 
L 224.483454 169.138387 
L 215.609786 166.846978 
L 205.940382 164.575036 
L 195.515058 162.356975 
L 185.218083 160.390346 
L 175.043067 158.664864 
L 164.983344 157.171635 
L 155.032123 155.903082 
L 144.366176 154.775087 
L 133.811042 153.897066 
L 123.35846 153.264338 
L 113.000588 152.873814 
L 102.730145 152.723913 
L 92.540533 152.81447 
L 83.20146 153.11246 
L 73.922458 153.618129 
L 68.536172 154.010021 
L 68.536172 154.010021 
" clip-path="url(#p3cd6e83326)" style="fill: none; stroke-dasharray: 5.55,2.4; stroke-dashoffset: 0; stroke: #000000; stroke-width: 1.5"/>
   </g>
   <g id="patch_3">
    <path d="M 435.463828 398.018438 
C 435.463828 300.740495 396.779099 207.347296 327.993206 138.561404 
C 259.207313 69.775511 165.814114 31.090781 68.536172 31.090781 
" style="fill: none; stroke: #000000; stroke-width: 0.8; stroke-linejoin: miter; stroke-linecap: square"/>
   </g>
   <g id="patch_4">
    <path d="M 68.536172 398.018438 
L 435.463828 398.018438 
" style="fill: none; stroke: #000000; stroke-width: 0.8; stroke-linejoin: miter; stroke-linecap: square"/>
   </g>
   <g id="patch_5">
    <path d="M 68.536172 398.018438 
L 68.536172 31.090781 
" style="fill: none; stroke: #000000; stroke-width: 0.8; stroke-linejoin: miter; stroke-linecap: square"/>
   </g>
  </g>
  <g id="text_16">
   <!-- Distance (m) -->
   <g transform="translate(206.673906 424.116) scale(0.14 -0.14)">
    <defs>
     <path id="DejaVuSerif-44" d="M 1581 331 
L 2163 331 
Q 3072 331 3558 850 
Q 4044 1369 4044 2338 
Q 4044 3306 3559 3818 
Q 3075 4331 2163 4331 
L 1581 4331 
L 1581 331 
z
M 353 0 
L 353 331 
L 947 331 
L 947 4331 
L 353 4331 
L 353 4666 
L 2209 4666 
Q 3416 4666 4089 4050 
Q 4763 3434 4763 2338 
Q 4763 1238 4088 619 
Q 3413 0 2209 0 
L 353 0 
z
" transform="scale(0.015625)"/>
     <path id="DejaVuSerif-69" d="M 622 4353 
Q 622 4497 726 4603 
Q 831 4709 978 4709 
Q 1122 4709 1226 4603 
Q 1331 4497 1331 4353 
Q 1331 4206 1228 4103 
Q 1125 4000 978 4000 
Q 831 4000 726 4103 
Q 622 4206 622 4353 
z
M 1356 331 
L 1900 331 
L 1900 0 
L 231 0 
L 231 331 
L 781 331 
L 781 2988 
L 231 2988 
L 231 3322 
L 1356 3322 
L 1356 331 
z
" transform="scale(0.015625)"/>
     <path id="DejaVuSerif-73" d="M 359 184 
L 359 959 
L 691 959 
Q 703 588 923 403 
Q 1144 219 1575 219 
Q 1963 219 2166 364 
Q 2369 509 2369 788 
Q 2369 1006 2220 1140 
Q 2072 1275 1594 1428 
L 1178 1569 
Q 750 1706 558 1912 
Q 366 2119 366 2438 
Q 366 2894 700 3153 
Q 1034 3413 1625 3413 
Q 1888 3413 2178 3344 
Q 2469 3275 2778 3144 
L 2778 2419 
L 2447 2419 
Q 2434 2741 2221 2922 
Q 2009 3103 1644 3103 
Q 1281 3103 1095 2975 
Q 909 2847 909 2591 
Q 909 2381 1050 2254 
Q 1191 2128 1613 1997 
L 2069 1856 
Q 2541 1709 2748 1489 
Q 2956 1269 2956 922 
Q 2956 450 2595 179 
Q 2234 -91 1600 -91 
Q 1278 -91 972 -22 
Q 666 47 359 184 
z
" transform="scale(0.015625)"/>
     <path id="DejaVuSerif-74" d="M 691 2988 
L 184 2988 
L 184 3322 
L 691 3322 
L 691 4353 
L 1269 4353 
L 1269 3322 
L 2350 3322 
L 2350 2988 
L 1269 2988 
L 1269 878 
Q 1269 456 1350 337 
Q 1431 219 1650 219 
Q 1875 219 1978 351 
Q 2081 484 2088 781 
L 2522 781 
Q 2497 328 2275 118 
Q 2053 -91 1600 -91 
Q 1103 -91 897 129 
Q 691 350 691 878 
L 691 2988 
z
" transform="scale(0.015625)"/>
     <path id="DejaVuSerif-61" d="M 2547 1044 
L 2547 1747 
L 1806 1747 
Q 1378 1747 1168 1562 
Q 959 1378 959 997 
Q 959 650 1171 447 
Q 1384 244 1747 244 
Q 2106 244 2326 466 
Q 2547 688 2547 1044 
z
M 3122 2075 
L 3122 331 
L 3634 331 
L 3634 0 
L 2547 0 
L 2547 359 
Q 2356 128 2106 18 
Q 1856 -91 1522 -91 
Q 969 -91 644 203 
Q 319 497 319 997 
Q 319 1513 691 1797 
Q 1063 2081 1741 2081 
L 2547 2081 
L 2547 2309 
Q 2547 2688 2317 2895 
Q 2088 3103 1672 3103 
Q 1328 3103 1125 2947 
Q 922 2791 872 2484 
L 575 2484 
L 575 3156 
Q 875 3284 1158 3348 
Q 1441 3413 1709 3413 
Q 2400 3413 2761 3070 
Q 3122 2728 3122 2075 
z
" transform="scale(0.015625)"/>
     <path id="DejaVuSerif-6e" d="M 263 0 
L 263 331 
L 781 331 
L 781 2988 
L 231 2988 
L 231 3322 
L 1356 3322 
L 1356 2731 
Q 1516 3069 1770 3241 
Q 2025 3413 2363 3413 
Q 2913 3413 3172 3097 
Q 3431 2781 3431 2113 
L 3431 331 
L 3944 331 
L 3944 0 
L 2356 0 
L 2356 331 
L 2853 331 
L 2853 1931 
Q 2853 2541 2703 2767 
Q 2553 2994 2175 2994 
Q 1775 2994 1565 2701 
Q 1356 2409 1356 1850 
L 1356 331 
L 1856 331 
L 1856 0 
L 263 0 
z
" transform="scale(0.015625)"/>
     <path id="DejaVuSerif-63" d="M 3291 997 
Q 3169 466 2822 187 
Q 2475 -91 1925 -91 
Q 1200 -91 759 389 
Q 319 869 319 1663 
Q 319 2459 759 2936 
Q 1200 3413 1925 3413 
Q 2241 3413 2553 3339 
Q 2866 3266 3181 3116 
L 3181 2266 
L 2847 2266 
Q 2781 2703 2561 2903 
Q 2341 3103 1931 3103 
Q 1466 3103 1228 2742 
Q 991 2381 991 1663 
Q 991 944 1227 581 
Q 1463 219 1931 219 
Q 2303 219 2525 412 
Q 2747 606 2828 997 
L 3291 997 
z
" transform="scale(0.015625)"/>
     <path id="DejaVuSerif-65" d="M 3469 1600 
L 991 1600 
L 991 1575 
Q 991 903 1244 561 
Q 1497 219 1991 219 
Q 2369 219 2611 417 
Q 2853 616 2950 1006 
L 3413 1006 
Q 3275 459 2904 184 
Q 2534 -91 1931 -91 
Q 1203 -91 761 389 
Q 319 869 319 1663 
Q 319 2450 753 2931 
Q 1188 3413 1894 3413 
Q 2647 3413 3050 2948 
Q 3453 2484 3469 1600 
z
M 2791 1931 
Q 2772 2513 2545 2808 
Q 2319 3103 1894 3103 
Q 1497 3103 1269 2806 
Q 1041 2509 991 1931 
L 2791 1931 
z
" transform="scale(0.015625)"/>
     <path id="DejaVuSerif-20" transform="scale(0.015625)"/>
     <path id="DejaVuSerif-28" d="M 2041 -997 
Q 1281 -656 893 83 
Q 506 822 506 1931 
Q 506 3044 893 3783 
Q 1281 4522 2041 4863 
L 2041 4556 
Q 1559 4225 1350 3623 
Q 1141 3022 1141 1931 
Q 1141 844 1350 242 
Q 1559 -359 2041 -691 
L 2041 -997 
z
" transform="scale(0.015625)"/>
     <path id="DejaVuSerif-6d" d="M 3316 2675 
Q 3481 3041 3739 3227 
Q 3997 3413 4341 3413 
Q 4863 3413 5119 3089 
Q 5375 2766 5375 2113 
L 5375 331 
L 5894 331 
L 5894 0 
L 4300 0 
L 4300 331 
L 4800 331 
L 4800 2047 
Q 4800 2556 4650 2772 
Q 4500 2988 4153 2988 
Q 3769 2988 3567 2697 
Q 3366 2406 3366 1850 
L 3366 331 
L 3866 331 
L 3866 0 
L 2291 0 
L 2291 331 
L 2791 331 
L 2791 2069 
Q 2791 2566 2641 2777 
Q 2491 2988 2144 2988 
Q 1759 2988 1557 2697 
Q 1356 2406 1356 1850 
L 1356 331 
L 1856 331 
L 1856 0 
L 263 0 
L 263 331 
L 781 331 
L 781 2994 
L 231 2994 
L 231 3322 
L 1356 3322 
L 1356 2731 
Q 1516 3063 1762 3238 
Q 2009 3413 2322 3413 
Q 2709 3413 2968 3220 
Q 3228 3028 3316 2675 
z
" transform="scale(0.015625)"/>
     <path id="DejaVuSerif-29" d="M 453 -997 
L 453 -691 
Q 934 -359 1145 242 
Q 1356 844 1356 1931 
Q 1356 3022 1145 3623 
Q 934 4225 453 4556 
L 453 4863 
Q 1216 4522 1603 3783 
Q 1991 3044 1991 1931 
Q 1991 822 1603 83 
Q 1216 -656 453 -997 
z
" transform="scale(0.015625)"/>
    </defs>
    <use xlink:href="#DejaVuSerif-44"/>
    <use xlink:href="#DejaVuSerif-69" x="80.175781"/>
    <use xlink:href="#DejaVuSerif-73" x="112.158203"/>
    <use xlink:href="#DejaVuSerif-74" x="163.476562"/>
    <use xlink:href="#DejaVuSerif-61" x="203.662109"/>
    <use xlink:href="#DejaVuSerif-6e" x="263.28125"/>
    <use xlink:href="#DejaVuSerif-63" x="327.685547"/>
    <use xlink:href="#DejaVuSerif-65" x="383.691406"/>
    <use xlink:href="#DejaVuSerif-20" x="442.871094"/>
    <use xlink:href="#DejaVuSerif-28" x="474.658203"/>
    <use xlink:href="#DejaVuSerif-6d" x="513.671875"/>
    <use xlink:href="#DejaVuSerif-29" x="608.496094"/>
   </g>
  </g>
  <g id="text_17">
   <!-- Reader-tag angle -->
   <g transform="translate(316.971092 77.207791) rotate(-315) scale(0.14 -0.14)">
    <defs>
     <path id="DejaVuSerif-52" d="M 3066 2316 
Q 3284 2256 3442 2114 
Q 3600 1972 3725 1716 
L 4403 331 
L 4972 331 
L 4972 0 
L 3872 0 
L 3144 1484 
Q 2934 1916 2759 2042 
Q 2584 2169 2278 2169 
L 1581 2169 
L 1581 331 
L 2241 331 
L 2241 0 
L 353 0 
L 353 331 
L 947 331 
L 947 4331 
L 353 4331 
L 353 4666 
L 2719 4666 
Q 3400 4666 3770 4341 
Q 4141 4016 4141 3419 
Q 4141 2938 3870 2661 
Q 3600 2384 3066 2316 
z
M 1581 2503 
L 2503 2503 
Q 2975 2503 3200 2726 
Q 3425 2950 3425 3419 
Q 3425 3888 3200 4109 
Q 2975 4331 2503 4331 
L 1581 4331 
L 1581 2503 
z
" transform="scale(0.015625)"/>
     <path id="DejaVuSerif-64" d="M 3359 331 
L 3909 331 
L 3909 0 
L 2784 0 
L 2784 519 
Q 2616 206 2355 57 
Q 2094 -91 1709 -91 
Q 1097 -91 708 395 
Q 319 881 319 1663 
Q 319 2444 706 2928 
Q 1094 3413 1709 3413 
Q 2094 3413 2355 3264 
Q 2616 3116 2784 2803 
L 2784 4531 
L 2241 4531 
L 2241 4863 
L 3359 4863 
L 3359 331 
z
M 2784 1497 
L 2784 1825 
Q 2784 2422 2554 2737 
Q 2325 3053 1888 3053 
Q 1444 3053 1217 2703 
Q 991 2353 991 1663 
Q 991 975 1217 622 
Q 1444 269 1888 269 
Q 2325 269 2554 583 
Q 2784 897 2784 1497 
z
" transform="scale(0.015625)"/>
     <path id="DejaVuSerif-72" d="M 3059 3328 
L 3059 2497 
L 2728 2497 
Q 2713 2744 2591 2866 
Q 2469 2988 2234 2988 
Q 1809 2988 1582 2694 
Q 1356 2400 1356 1850 
L 1356 331 
L 2022 331 
L 2022 0 
L 263 0 
L 263 331 
L 781 331 
L 781 2994 
L 231 2994 
L 231 3322 
L 1356 3322 
L 1356 2731 
Q 1525 3078 1790 3245 
Q 2056 3413 2438 3413 
Q 2578 3413 2733 3391 
Q 2888 3369 3059 3328 
z
" transform="scale(0.015625)"/>
     <path id="DejaVuSerif-2d" d="M 281 1959 
L 1881 1959 
L 1881 1472 
L 281 1472 
L 281 1959 
z
" transform="scale(0.015625)"/>
     <path id="DejaVuSerif-67" d="M 3359 2988 
L 3359 72 
Q 3359 -644 2965 -1033 
Q 2572 -1422 1844 -1422 
Q 1516 -1422 1216 -1362 
Q 916 -1303 641 -1184 
L 641 -488 
L 941 -488 
Q 997 -813 1206 -963 
Q 1416 -1113 1806 -1113 
Q 2313 -1113 2548 -827 
Q 2784 -541 2784 72 
L 2784 519 
Q 2616 206 2355 57 
Q 2094 -91 1709 -91 
Q 1097 -91 708 395 
Q 319 881 319 1663 
Q 319 2444 706 2928 
Q 1094 3413 1709 3413 
Q 2094 3413 2355 3264 
Q 2616 3116 2784 2803 
L 2784 3322 
L 3909 3322 
L 3909 2988 
L 3359 2988 
z
M 2784 1825 
Q 2784 2422 2554 2737 
Q 2325 3053 1888 3053 
Q 1444 3053 1217 2703 
Q 991 2353 991 1663 
Q 991 975 1217 622 
Q 1444 269 1888 269 
Q 2325 269 2554 583 
Q 2784 897 2784 1497 
L 2784 1825 
z
" transform="scale(0.015625)"/>
     <path id="DejaVuSerif-6c" d="M 1313 331 
L 1856 331 
L 1856 0 
L 184 0 
L 184 331 
L 738 331 
L 738 4531 
L 184 4531 
L 184 4863 
L 1313 4863 
L 1313 331 
z
" transform="scale(0.015625)"/>
    </defs>
    <use xlink:href="#DejaVuSerif-52"/>
    <use xlink:href="#DejaVuSerif-65" x="75.292969"/>
    <use xlink:href="#DejaVuSerif-61" x="134.472656"/>
    <use xlink:href="#DejaVuSerif-64" x="194.091797"/>
    <use xlink:href="#DejaVuSerif-65" x="258.105469"/>
    <use xlink:href="#DejaVuSerif-72" x="317.285156"/>
    <use xlink:href="#DejaVuSerif-2d" x="365.087891"/>
    <use xlink:href="#DejaVuSerif-74" x="398.876953"/>
    <use xlink:href="#DejaVuSerif-61" x="439.0625"/>
    <use xlink:href="#DejaVuSerif-67" x="498.681641"/>
    <use xlink:href="#DejaVuSerif-20" x="562.695312"/>
    <use xlink:href="#DejaVuSerif-61" x="594.482422"/>
    <use xlink:href="#DejaVuSerif-6e" x="654.101562"/>
    <use xlink:href="#DejaVuSerif-67" x="718.505859"/>
    <use xlink:href="#DejaVuSerif-6c" x="782.519531"/>
    <use xlink:href="#DejaVuSerif-65" x="814.501953"/>
   </g>
  </g>
  <g id="text_18">
   <!-- 40 μV @ 5.0 m → -->
   <g transform="translate(196.768906 372.708) scale(0.14 -0.14)">
    <defs>
     <path id="DejaVuSerif-3bc" d="M 2309 3322 
L 3384 3322 
L 3384 325 
L 3928 325 
L 3928 0 
L 2809 0 
L 2809 588 
Q 2647 256 2417 82 
Q 2188 -91 1906 -91 
Q 1728 -91 1581 -34 
Q 1434 22 1313 134 
L 1313 -1331 
L 738 -1331 
L 738 2988 
L 219 2988 
L 219 3322 
L 1313 3322 
L 1313 1388 
Q 1313 781 1463 556 
Q 1613 331 1991 331 
Q 2391 331 2600 625 
Q 2809 919 2809 1478 
L 2809 2988 
L 2309 2988 
L 2309 3322 
z
" transform="scale(0.015625)"/>
     <path id="DejaVuSerif-56" d="M 1119 4331 
L 2497 750 
L 3872 4331 
L 3347 4331 
L 3347 4666 
L 4716 4666 
L 4716 4331 
L 4263 4331 
L 2597 0 
L 2059 0 
L 403 4331 
L -63 4331 
L -63 4666 
L 1638 4666 
L 1638 4331 
L 1119 4331 
z
" transform="scale(0.015625)"/>
     <path id="DejaVuSerif-40" d="M 4044 775 
Q 3859 519 3629 394 
Q 3400 269 3109 269 
Q 2563 269 2222 659 
Q 1881 1050 1881 1678 
Q 1881 2306 2222 2695 
Q 2563 3084 3109 3084 
Q 3400 3084 3629 2959 
Q 3859 2834 4044 2578 
L 4044 3022 
L 4531 3022 
L 4531 609 
Q 5063 725 5356 1115 
Q 5650 1506 5650 2094 
Q 5650 2441 5544 2750 
Q 5438 3059 5228 3322 
Q 4897 3738 4420 3958 
Q 3944 4178 3384 4178 
Q 3103 4178 2828 4118 
Q 2553 4059 2284 3938 
Q 1653 3647 1303 3058 
Q 953 2469 953 1697 
Q 953 1175 1109 736 
Q 1266 297 1563 -25 
Q 1903 -397 2370 -592 
Q 2838 -788 3378 -788 
Q 3781 -788 4131 -669 
Q 4481 -550 4781 -313 
L 4947 -531 
Q 4609 -822 4181 -967 
Q 3753 -1113 3244 -1113 
Q 2672 -1113 2151 -905 
Q 1631 -697 1241 -313 
Q 838 84 630 595 
Q 422 1106 422 1697 
Q 422 2272 631 2781 
Q 841 3291 1241 3688 
Q 1638 4081 2177 4293 
Q 2716 4506 3322 4506 
Q 3991 4506 4542 4247 
Q 5094 3988 5466 3500 
Q 5703 3194 5825 2834 
Q 5947 2475 5947 2088 
Q 5947 1250 5437 764 
Q 4928 278 4047 269 
L 4044 775 
z
M 4044 1516 
L 4044 1844 
Q 4044 2234 3820 2476 
Q 3597 2719 3238 2719 
Q 2859 2719 2648 2445 
Q 2438 2172 2438 1678 
Q 2438 1181 2650 907 
Q 2863 634 3244 634 
Q 3600 634 3822 879 
Q 4044 1125 4044 1516 
z
" transform="scale(0.015625)"/>
     <path id="DejaVuSerif-2192" d="M 366 2322 
L 4391 2322 
L 3788 3375 
L 3822 3375 
L 5125 2084 
L 5125 2053 
L 3822 763 
L 3788 763 
L 4391 1816 
L 366 1816 
L 366 2322 
z
" transform="scale(0.015625)"/>
    </defs>
    <use xlink:href="#DejaVuSerif-34"/>
    <use xlink:href="#DejaVuSerif-30" x="63.623047"/>
    <use xlink:href="#DejaVuSerif-20" x="127.246094"/>
    <use xlink:href="#DejaVuSerif-3bc" x="159.033203"/>
    <use xlink:href="#DejaVuSerif-56" x="224.023438"/>
    <use xlink:href="#DejaVuSerif-20" x="296.240234"/>
    <use xlink:href="#DejaVuSerif-40" x="328.027344"/>
    <use xlink:href="#DejaVuSerif-20" x="428.027344"/>
    <use xlink:href="#DejaVuSerif-35" x="459.814453"/>
    <use xlink:href="#DejaVuSerif-2e" x="523.4375"/>
    <use xlink:href="#DejaVuSerif-30" x="555.224609"/>
    <use xlink:href="#DejaVuSerif-20" x="618.847656"/>
    <use xlink:href="#DejaVuSerif-6d" x="650.634766"/>
    <use xlink:href="#DejaVuSerif-20" x="745.458984"/>
    <use xlink:href="#DejaVuSerif-2192" x="777.246094"/>
   </g>
  </g>
  <g id="text_19">
   <!-- 40 μV @ 6.9 m → -->
   <g transform="translate(200.010018 228.507781) rotate(-60) scale(0.14 -0.14)">
    <use xlink:href="#DejaVuSerif-34"/>
    <use xlink:href="#DejaVuSerif-30" x="63.623047"/>
    <use xlink:href="#DejaVuSerif-20" x="127.246094"/>
    <use xlink:href="#DejaVuSerif-3bc" x="159.033203"/>
    <use xlink:href="#DejaVuSerif-56" x="224.023438"/>
    <use xlink:href="#DejaVuSerif-20" x="296.240234"/>
    <use xlink:href="#DejaVuSerif-40" x="328.027344"/>
    <use xlink:href="#DejaVuSerif-20" x="428.027344"/>
    <use xlink:href="#DejaVuSerif-36" x="459.814453"/>
    <use xlink:href="#DejaVuSerif-2e" x="523.4375"/>
    <use xlink:href="#DejaVuSerif-39" x="555.224609"/>
    <use xlink:href="#DejaVuSerif-20" x="618.847656"/>
    <use xlink:href="#DejaVuSerif-6d" x="650.634766"/>
    <use xlink:href="#DejaVuSerif-20" x="745.458984"/>
    <use xlink:href="#DejaVuSerif-2192" x="777.246094"/>
   </g>
  </g>
 </g>
 <defs>
  <clipPath id="p3cd6e83326">
   <path d="M 435.463828 398.018438 
C 435.463828 300.740495 396.779099 207.347296 327.993206 138.561404 
C 259.207313 69.775511 165.814114 31.090781 68.536172 31.090781 
L 68.536172 398.018438 
C 68.536172 398.018438 68.536172 398.018438 68.536172 398.018438 
C 68.536172 398.018438 68.536172 398.018438 68.536172 398.018438 
z
"/>
  </clipPath>
 </defs>
</svg>
