<?xml version="1.0" encoding="utf-8" standalone="no"?>
<!DOCTYPE svg PUBLIC "-//W3C//DTD SVG 1.1//EN"
  "http://www.w3.org/Graphics/SVG/1.1/DTD/svg11.dtd">
<svg xmlns:xlink="http://www.w3.org/1999/xlink" width="465.84pt" height="482.4pt" viewBox="0 0 465.84 482.4" xmlns="http://www.w3.org/2000/svg" version="1.1">
 <metadata>
  <rdf:RDF xmlns:dc="http://purl.org/dc/elements/1.1/" xmlns:cc="http://creativecommons.org/ns#" xmlns:rdf="http://www.w3.org/1999/02/22-rdf-syntax-ns#">
   <cc:Work>
    <dc:type rdf:resource="http://purl.org/dc/dcmitype/StillImage"/>
    <dc:date>2023-03-25T20:08:40.592204</dc:date>
    <dc:format>image/svg+xml</dc:format>
    <dc:creator>
     <cc:Agent>
      <dc:title>Matplotlib v3.7.1, https://matplotlib.org/</dc:title>
     </cc:Agent>
    </dc:creator>
   </cc:Work>
  </rdf:RDF>
 </metadata>
 <defs>
  <style type="text/css">*{stroke-linejoin: round; stroke-linecap: butt}</style>
 </defs>
 <g id="figure_1">
  <g id="patch_1">
   <path d="M 0 482.4 
L 465.84 482.4 
L 465.84 0 
L 0 0 
L 0 482.4 
z
" style="fill: none"/>
  </g>
  <g id="axes_1">
   <g id="patch_2">
    <path d="M 419.256 424.125 
C 419.256 328.411674 381.193475 236.520609 313.513933 168.841067 
C 245.834391 101.161525 153.943326 63.099 58.23 63.099 
L 58.23 424.125 
C 58.23 424.125 58.23 424.125 58.23 424.125 
C 58.23 424.125 58.23 424.125 58.23 424.125 
L 419.256 424.125 
z
" style="fill: none"/>
   </g>
   <g id="PolyCollection_1">
    <defs>
     <path id="m825796f08f" d="M 402.064286 -58.275 
L 58.23 -58.275 
L 58.23 -58.275 
L 58.23 -58.275 
L 58.23 -58.275 
L 58.23 -58.275 
L 58.23 -58.275 
L 58.23 -58.275 
L 58.23 -58.275 
L 58.23 -58.275 
L 58.23 -58.275 
L 58.23 -58.275 
L 58.23 -58.275 
L 58.23 -58.275 
L 58.23 -58.275 
L 58.23 -58.275 
L 58.23 -58.275 
L 58.23 -58.275 
L 58.23 -58.275 
L 58.23 -58.275 
L 58.23 -58.275 
L 58.23 -58.275 
L 58.23 -58.275 
L 58.23 -58.275 
L 58.23 -58.275 
L 58.23 -58.275 
L 58.23 -58.275 
L 58.23 -58.275 
L 58.23 -58.275 
L 58.23 -58.275 
L 58.23 -58.275 
L 58.23 -58.275 
L 58.23 -58.275 
L 58.23 -58.275 
L 58.23 -58.275 
L 58.23 -58.275 
L 58.23 -58.275 
L 58.23 -58.275 
L 58.23 -58.275 
L 58.23 -58.275 
L 58.23 -58.275 
L 58.23 -58.275 
L 58.23 -58.275 
L 58.23 -58.275 
L 58.23 -58.275 
L 58.23 -58.275 
L 58.23 -58.275 
L 58.23 -58.275 
L 58.23 -58.275 
L 58.23 -58.275 
L 58.23 -58.275 
L 58.23 -58.275 
L 58.23 -58.275 
L 58.23 -58.275 
L 58.23 -58.275 
L 58.23 -58.275 
L 58.23 -58.275 
L 58.23 -58.275 
L 58.23 -58.275 
L 58.23 -58.275 
L 58.23 -58.275 
L 58.23 -58.275 
L 58.23 -58.275 
L 58.23 -58.275 
L 58.23 -58.275 
L 58.23 -58.275 
L 58.23 -58.275 
L 58.23 -58.275 
L 58.23 -58.275 
L 58.23 -58.275 
L 58.23 -58.275 
L 58.23 -58.275 
L 58.23 -58.275 
L 58.23 -58.275 
L 58.23 -58.275 
L 58.23 -58.275 
L 58.23 -58.275 
L 58.23 -58.275 
L 58.23 -58.275 
L 58.23 -58.275 
L 58.23 -58.275 
L 58.23 -58.275 
L 58.23 -58.275 
L 58.23 -58.275 
L 58.23 -58.275 
L 58.23 -58.275 
L 58.23 -58.275 
L 58.23 -58.275 
L 58.23 -58.275 
L 58.23 -58.275 
L 58.23 -58.275 
L 58.23 -58.275 
L 58.23 -58.275 
L 58.23 -58.275 
L 58.23 -58.275 
L 58.23 -58.275 
L 58.23 -58.275 
L 58.23 -58.275 
L 58.23 -58.275 
L 58.23 -58.275 
L 58.23 -58.275 
L 58.23 -58.275 
L 58.23 -58.275 
L 58.23 -58.275 
L 58.23 -58.275 
L 58.23 -58.275 
L 58.23 -58.275 
L 58.23 -58.275 
L 58.23 -58.275 
L 58.23 -58.275 
L 58.23 -58.275 
L 58.23 -58.275 
L 58.23 -58.275 
L 58.23 -58.275 
L 58.23 -58.275 
L 58.23 -58.275 
L 58.23 -58.275 
L 58.23 -58.275 
L 58.23 -58.275 
L 58.23 -58.275 
L 58.23 -58.275 
L 58.23 -58.275 
L 58.23 -58.275 
L 58.23 -58.275 
L 58.23 -58.275 
L 58.23 -58.275 
L 58.23 -58.275 
L 58.23 -58.275 
L 58.23 -58.275 
L 58.23 -58.275 
L 58.23 -58.275 
L 58.23 -58.275 
L 58.23 -58.275 
L 58.23 -58.275 
L 58.23 -58.275 
L 58.23 -58.275 
L 58.23 -58.275 
L 58.23 -58.275 
L 58.23 -58.275 
L 58.23 -58.275 
L 58.23 -58.275 
L 58.23 -58.275 
L 58.23 -58.275 
L 58.23 -58.275 
L 58.23 -58.275 
L 58.23 -58.275 
L 58.23 -58.275 
L 58.23 -58.275 
L 58.23 -58.275 
L 58.23 -58.275 
L 58.23 -58.275 
L 58.23 -58.275 
L 58.23 -58.275 
L 58.23 -58.275 
L 58.23 -58.275 
L 58.23 -58.275 
L 58.23 -58.275 
L 58.23 -58.275 
L 58.23 -58.275 
L 58.23 -58.275 
L 58.23 -58.275 
L 58.23 -58.275 
L 58.23 -58.275 
L 58.23 -58.275 
L 58.23 -58.275 
L 58.23 -58.275 
L 58.23 -58.275 
L 58.23 -58.275 
L 58.23 -58.275 
L 58.23 -58.275 
L 58.23 -58.275 
L 58.23 -58.275 
L 58.23 -58.275 
L 58.23 -58.275 
L 58.23 -58.275 
L 58.23 -58.275 
L 58.23 -58.275 
L 58.23 -58.275 
L 58.23 -58.275 
L 58.23 -58.275 
L 58.23 -58.275 
L 58.23 -58.275 
L 58.23 -58.275 
L 58.23 -58.275 
L 58.23 -58.275 
L 58.23 -58.275 
L 58.23 -58.275 
L 58.23 -58.275 
L 58.23 -58.275 
L 58.23 -58.275 
L 58.23 -58.275 
L 58.23 -58.275 
L 58.23 -58.275 
L 58.23 -58.275 
L 58.23 -58.275 
L 58.23 -58.275 
L 58.23 -58.275 
L 58.23 -58.275 
L 58.23 -58.275 
L 58.23 -58.275 
L 58.23 -58.275 
L 58.23 -58.275 
L 58.23 -58.275 
L 58.23 -58.275 
L 58.23 -58.275 
L 58.23 -58.275 
L 58.23 -58.275 
L 58.23 -58.275 
L 58.23 -58.275 
L 58.23 -58.275 
L 58.23 -58.275 
L 58.23 -58.275 
L 58.23 -58.275 
L 58.23 -58.275 
L 58.23 -58.275 
L 58.23 -58.275 
L 58.23 -58.275 
L 58.23 -58.275 
L 58.23 -58.275 
L 58.23 -58.275 
L 58.23 -58.275 
L 58.23 -58.275 
L 58.23 -58.275 
L 58.23 -58.275 
L 58.23 -58.275 
L 58.23 -58.275 
L 58.23 -58.275 
L 58.23 -58.275 
L 58.23 -58.275 
L 58.23 -58.275 
L 58.23 -58.275 
L 58.23 -58.275 
L 58.23 -58.275 
L 58.23 -58.275 
L 58.23 -58.275 
L 58.23 -58.275 
L 58.23 -58.275 
L 58.23 -58.275 
L 58.23 -58.275 
L 58.23 -58.275 
L 58.23 -58.275 
L 58.23 -58.275 
L 58.23 -58.275 
L 58.23 -58.275 
L 58.23 -58.275 
L 58.23 -58.275 
L 58.23 -58.275 
L 58.23 -58.275 
L 58.23 -58.275 
L 58.23 -58.275 
L 58.23 -58.275 
L 58.23 -58.275 
L 58.23 -58.275 
L 58.23 -58.275 
L 58.23 -58.275 
L 58.23 -58.275 
L 58.23 -58.275 
L 58.23 -58.275 
L 58.23 -58.275 
L 58.23 -58.275 
L 58.23 -58.275 
L 58.23 -58.275 
L 58.23 -58.275 
L 58.23 -58.275 
L 58.23 -58.275 
L 58.23 -58.275 
L 58.23 -58.275 
L 58.23 -58.275 
L 58.23 -58.275 
L 58.23 -58.275 
L 58.23 -58.275 
L 58.23 -58.275 
L 58.23 -58.275 
L 58.23 -58.275 
L 58.23 -58.275 
L 58.23 -58.275 
L 58.23 -58.275 
L 58.23 -58.275 
L 58.23 -58.275 
L 58.23 -58.275 
L 58.23 -58.275 
L 58.23 -58.275 
L 58.23 -58.275 
L 58.23 -58.275 
L 58.23 -58.275 
L 58.23 -58.275 
L 58.23 -58.275 
L 58.23 -58.275 
L 58.23 -58.275 
L 58.23 -58.275 
L 58.23 -58.275 
L 58.23 -58.275 
L 58.23 -58.275 
L 58.23 -58.275 
L 58.23 -58.275 
L 58.23 -58.275 
L 58.23 -58.275 
L 58.23 -58.275 
L 58.23 -58.275 
L 58.23 -58.275 
L 58.23 -58.275 
L 58.23 -58.275 
L 58.23 -58.275 
L 58.23 -58.275 
L 58.23 -58.275 
L 58.23 -58.275 
L 58.23 -58.275 
L 58.23 -58.275 
L 58.23 -58.275 
L 58.23 -58.275 
L 58.23 -58.275 
L 58.23 -58.275 
L 58.23 -58.275 
L 58.23 -58.275 
L 58.23 -58.275 
L 58.23 -58.275 
L 58.23 -58.275 
L 58.23 -58.275 
L 58.23 -58.275 
L 58.23 -58.275 
L 58.23 -58.275 
L 58.23 -58.275 
L 58.23 -58.275 
L 58.23 -58.275 
L 58.23 -58.275 
L 58.23 -58.275 
L 58.23 -58.275 
L 58.23 -58.275 
L 58.23 -58.275 
L 58.23 -58.275 
L 58.23 -58.275 
L 58.23 -58.275 
L 58.23 -58.275 
L 58.23 -58.275 
L 58.23 -58.275 
L 58.23 -58.275 
L 58.23 -58.275 
L 58.23 -58.275 
L 58.23 -58.275 
L 58.23 -58.275 
L 58.23 -58.275 
L 58.23 -58.275 
L 58.23 -58.275 
L 58.23 -58.275 
L 58.23 -58.275 
L 58.23 -58.275 
L 58.23 -58.275 
L 58.23 -58.275 
L 58.23 -58.275 
L 58.23 -58.275 
L 58.23 -58.275 
L 58.23 -58.275 
L 58.23 -58.275 
L 58.23 -58.275 
L 58.23 -58.275 
L 58.23 -58.275 
L 58.23 -58.275 
L 58.23 -58.275 
L 58.23 -58.275 
L 58.23 -58.275 
L 58.23 -58.275 
L 58.23 -58.275 
L 58.23 -58.275 
L 58.23 -58.275 
L 58.23 -58.275 
L 58.23 -58.275 
L 58.23 -58.275 
L 58.23 -58.275 
L 58.23 -58.275 
L 58.23 -58.275 
L 58.23 -58.275 
L 58.23 -58.275 
L 58.23 -58.275 
L 58.23 -58.275 
L 58.23 -58.275 
L 58.23 -58.275 
L 58.23 -58.275 
L 58.23 -58.275 
L 58.23 -58.275 
L 58.23 -58.275 
L 58.23 -58.275 
L 58.23 -58.275 
L 58.23 -58.275 
L 58.23 -58.275 
L 58.23 -58.275 
L 58.23 -58.275 
L 58.23 -58.275 
L 58.23 -58.275 
L 58.23 -58.275 
L 58.23 -58.275 
L 58.23 -58.275 
L 58.23 -58.275 
L 58.23 -58.275 
L 58.23 -58.275 
L 58.23 -58.275 
L 58.23 -58.275 
L 58.23 -58.275 
L 58.23 -58.275 
L 58.23 -58.275 
L 58.23 -58.275 
L 58.23 -58.275 
L 58.23 -58.275 
L 58.23 -58.275 
L 58.23 -58.275 
L 58.23 -58.275 
L 58.23 -58.275 
L 58.23 -58.275 
L 58.23 -58.275 
L 58.23 -58.275 
L 58.23 -58.275 
L 58.23 -58.275 
L 58.23 -58.275 
L 58.23 -58.275 
L 58.23 -58.275 
L 58.23 -58.275 
L 58.23 -58.275 
L 58.23 -58.275 
L 58.23 -58.275 
L 58.23 -58.275 
L 58.23 -58.275 
L 58.23 -58.275 
L 58.23 -58.275 
L 58.23 -58.275 
L 58.23 -58.275 
L 58.23 -58.275 
L 58.23 -58.275 
L 58.23 -58.275 
L 58.23 -58.275 
L 58.23 -58.275 
L 58.23 -58.275 
L 58.23 -58.275 
L 58.23 -58.275 
L 58.23 -58.275 
L 58.23 -58.275 
L 58.23 -58.275 
L 58.23 -58.275 
L 58.23 -58.275 
L 58.23 -58.275 
L 58.23 -58.275 
L 58.23 -58.275 
L 58.23 -58.275 
L 58.23 -58.275 
L 58.23 -58.275 
L 58.23 -58.275 
L 58.23 -58.275 
L 58.23 -58.275 
L 58.23 -58.275 
L 58.23 -58.275 
L 58.23 -58.275 
L 58.23 -58.275 
L 58.23 -58.275 
L 58.23 -58.275 
L 58.23 -58.275 
L 58.23 -58.275 
L 58.23 -58.275 
L 58.23 -58.275 
L 58.23 -58.275 
L 58.23 -58.275 
L 58.23 -58.275 
L 58.23 -58.275 
L 58.23 -58.275 
L 58.23 -58.275 
L 58.23 -58.275 
L 58.23 -58.275 
L 58.23 -58.275 
L 58.23 -58.275 
L 58.23 -58.275 
L 58.23 -58.275 
L 58.23 -58.275 
L 58.23 -58.275 
L 58.23 -58.275 
L 58.23 -58.275 
L 58.23 -58.275 
L 58.23 -58.275 
L 58.23 -58.275 
L 58.23 -58.275 
L 58.23 -58.275 
L 58.23 -58.275 
L 58.23 -58.275 
L 58.23 -58.275 
L 58.23 -58.275 
L 58.23 -58.275 
L 58.23 -58.275 
L 58.23 -58.275 
L 58.23 -58.275 
L 58.23 -58.275 
L 58.23 -58.275 
L 58.23 -58.275 
L 58.23 -58.275 
L 58.23 -58.275 
L 58.23 -58.275 
L 58.23 -58.275 
L 58.23 -58.275 
L 58.23 -58.275 
L 58.23 -58.275 
L 58.23 -58.275 
L 58.23 -58.275 
L 58.23 -58.275 
L 58.23 -58.275 
L 58.23 -58.275 
L 58.23 -58.275 
L 58.23 -367.725857 
L 58.23 -367.725857 
L 59.206466 -368.471225 
L 60.187541 -369.200091 
L 61.173088 -369.912539 
L 62.162974 -370.60865 
L 63.157065 -371.288507 
L 64.155229 -371.952195 
L 65.157337 -372.599797 
L 66.163258 -373.231401 
L 67.172864 -373.847092 
L 68.186029 -374.446956 
L 69.202627 -375.031083 
L 70.222532 -375.59956 
L 71.245623 -376.152476 
L 72.271777 -376.689923 
L 73.300873 -377.211989 
L 74.332792 -377.718768 
L 75.367416 -378.21035 
L 76.404627 -378.686828 
L 77.44431 -379.148297 
L 78.486351 -379.59485 
L 79.530636 -380.026581 
L 80.577054 -380.443587 
L 81.625494 -380.845962 
L 82.675846 -381.233804 
L 83.728003 -381.60721 
L 84.781858 -381.966277 
L 85.837305 -382.311104 
L 86.894241 -382.64179 
L 87.952561 -382.958434 
L 89.012165 -383.261137 
L 90.072953 -383.549998 
L 91.134825 -383.82512 
L 92.197684 -384.086603 
L 93.261433 -384.33455 
L 94.325978 -384.569063 
L 95.391224 -384.790247 
L 96.457079 -384.998203 
L 97.523451 -385.193037 
L 98.590252 -385.374852 
L 99.657393 -385.543755 
L 100.724786 -385.69985 
L 101.792345 -385.843243 
L 102.859986 -385.974041 
L 103.927626 -386.092349 
L 104.995183 -386.198277 
L 106.062576 -386.29193 
L 107.129726 -386.373416 
L 108.196555 -386.442845 
L 109.262987 -386.500324 
L 110.328946 -386.545962 
L 111.394359 -386.579869 
L 112.459152 -386.602154 
L 113.523255 -386.612928 
L 114.586597 -386.6123 
L 115.64911 -386.600381 
L 116.710728 -386.577281 
L 117.771383 -386.543112 
L 118.831012 -386.497986 
L 119.889551 -386.442013 
L 120.946939 -386.375305 
L 122.003114 -386.297976 
L 123.058018 -386.210135 
L 124.111593 -386.111898 
L 125.163782 -386.003375 
L 126.214531 -385.88468 
L 127.263785 -385.755926 
L 128.311492 -385.617227 
L 129.357601 -385.468694 
L 130.402062 -385.310443 
L 131.444826 -385.142587 
L 132.485848 -384.96524 
L 133.52508 -384.778514 
L 134.562479 -384.582526 
L 135.598001 -384.377388 
L 136.631605 -384.163215 
L 137.66325 -383.940121 
L 138.692898 -383.708221 
L 139.720511 -383.467629 
L 140.746052 -383.218459 
L 141.769486 -382.960826 
L 142.79078 -382.694844 
L 143.809902 -382.420628 
L 144.82682 -382.138293 
L 145.841505 -381.847953 
L 146.853928 -381.549723 
L 147.864064 -381.243716 
L 148.871885 -380.930048 
L 149.877368 -380.608833 
L 150.880489 -380.280185 
L 151.881228 -379.944219 
L 152.879563 -379.601048 
L 153.875477 -379.250787 
L 154.86895 -378.89355 
L 155.859967 -378.529451 
L 156.848514 -378.158603 
L 157.834575 -377.781121 
L 158.818139 -377.397117 
L 159.799195 -377.006705 
L 160.777733 -376.609999 
L 161.753745 -376.207111 
L 162.727223 -375.798154 
L 163.698162 -375.383241 
L 164.666557 -374.962484 
L 165.632406 -374.535997 
L 166.595705 -374.103889 
L 167.556455 -373.666275 
L 168.514657 -373.223264 
L 169.470312 -372.774969 
L 170.423424 -372.3215 
L 171.373997 -371.862969 
L 172.322037 -371.399485 
L 173.267551 -370.93116 
L 174.210549 -370.458102 
L 175.151039 -369.980423 
L 176.089033 -369.49823 
L 177.024542 -369.011632 
L 177.957582 -368.52074 
L 178.888165 -368.02566 
L 179.816309 -367.526501 
L 180.742031 -367.02337 
L 181.665349 -366.516375 
L 182.586283 -366.005622 
L 183.504855 -365.491218 
L 184.421087 -364.973269 
L 185.335002 -364.45188 
L 186.246625 -363.927156 
L 187.155983 -363.399203 
L 188.063102 -362.868124 
L 188.968012 -362.334023 
L 189.870742 -361.797004 
L 190.771322 -361.257169 
L 191.669787 -360.714621 
L 192.566168 -360.169462 
L 193.4605 -359.621794 
L 194.35282 -359.071716 
L 195.243164 -358.51933 
L 196.13157 -357.964736 
L 197.018079 -357.408032 
L 197.90273 -356.849317 
L 198.785567 -356.28869 
L 199.66663 -355.726248 
L 200.545966 -355.162089 
L 201.423618 -354.596308 
L 202.299635 -354.029002 
L 203.174063 -353.460266 
L 204.046951 -352.890195 
L 204.918349 -352.318882 
L 205.788309 -351.746421 
L 206.656882 -351.172905 
L 207.524123 -350.598426 
L 208.390085 -350.023075 
L 209.254825 -349.446944 
L 210.118399 -348.870122 
L 210.980865 -348.292698 
L 211.842283 -347.714762 
L 212.702712 -347.136402 
L 213.562214 -346.557704 
L 214.420851 -345.978756 
L 215.278686 -345.399643 
L 216.135784 -344.820451 
L 216.992211 -344.241263 
L 217.848034 -343.662164 
L 218.703319 -343.083237 
L 219.558137 -342.504563 
L 220.412556 -341.926224 
L 221.266649 -341.3483 
L 222.120481 -340.770864 
L 222.974075 -340.193905 
L 223.827418 -339.617357 
L 224.680496 -339.041154 
L 225.533298 -338.46523 
L 226.385807 -337.889521 
L 227.238009 -337.31396 
L 228.089887 -336.738484 
L 228.941426 -336.163027 
L 229.792606 -335.587526 
L 230.643411 -335.011915 
L 231.49382 -334.436133 
L 232.343813 -333.860115 
L 233.193371 -333.283798 
L 234.042471 -332.70712 
L 234.891092 -332.130019 
L 235.73921 -331.552431 
L 236.586801 -330.974296 
L 237.433842 -330.395553 
L 238.280307 -329.81614 
L 239.126169 -329.235997 
L 239.971403 -328.655063 
L 240.815981 -328.073279 
L 241.659874 -327.490585 
L 242.503054 -326.906922 
L 243.345492 -326.322231 
L 244.187155 -325.736455 
L 245.028015 -325.149534 
L 245.868038 -324.561413 
L 246.707193 -323.972032 
L 247.545445 -323.381337 
L 248.382762 -322.78927 
L 249.219107 -322.195776 
L 250.054447 -321.6008 
L 250.888745 -321.004286 
L 251.721964 -320.40618 
L 252.554067 -319.806427 
L 253.385016 -319.204975 
L 254.214771 -318.60177 
L 255.043294 -317.99676 
L 255.870543 -317.389892 
L 256.696479 -316.781114 
L 257.52106 -316.170376 
L 258.344243 -315.557626 
L 259.165986 -314.942815 
L 259.986245 -314.325892 
L 260.804976 -313.706809 
L 261.622135 -313.085516 
L 262.437675 -312.461966 
L 263.25155 -311.83611 
L 264.063715 -311.207901 
L 264.874121 -310.577294 
L 265.68272 -309.944241 
L 266.489465 -309.308697 
L 267.294305 -308.670617 
L 268.09719 -308.029957 
L 268.898071 -307.386672 
L 269.696896 -306.74072 
L 270.493614 -306.092057 
L 271.288172 -305.440641 
L 272.080517 -304.786431 
L 272.870595 -304.129385 
L 273.658353 -303.469463 
L 274.443737 -302.806625 
L 275.22669 -302.140832 
L 276.007157 -301.472044 
L 276.785081 -300.800225 
L 277.560406 -300.125336 
L 278.333074 -299.44734 
L 279.103028 -298.766201 
L 279.870207 -298.081884 
L 280.634554 -297.394353 
L 281.396009 -296.703574 
L 282.15451 -296.009513 
L 282.909998 -295.312137 
L 283.662412 -294.611413 
L 284.411688 -293.90731 
L 285.157766 -293.199797 
L 285.900582 -292.488842 
L 286.640073 -291.774417 
L 287.376174 -291.056491 
L 288.108822 -290.335037 
L 288.837952 -289.610025 
L 289.563499 -288.881431 
L 290.285413 -288.149242 
L 291.003659 -287.413464 
L 291.718203 -286.674103 
L 292.429011 -285.931164 
L 293.136047 -285.184655 
L 293.839279 -284.43458 
L 294.53867 -283.680948 
L 295.234186 -282.923766 
L 295.925794 -282.16304 
L 296.613457 -281.39878 
L 297.297141 -280.630992 
L 297.976811 -279.859685 
L 298.652432 -279.084868 
L 299.323969 -278.30655 
L 299.991387 -277.52474 
L 300.654651 -276.739447 
L 301.313725 -275.950682 
L 301.968575 -275.158454 
L 302.619164 -274.362774 
L 303.265459 -273.563652 
L 303.907423 -272.7611 
L 304.545021 -271.955129 
L 305.178217 -271.145751 
L 305.806977 -270.332977 
L 306.431263 -269.51682 
L 307.051042 -268.697292 
L 307.666277 -267.874406 
L 308.276933 -267.048176 
L 308.882973 -266.218614 
L 309.484364 -265.385734 
L 310.081067 -264.549551 
L 310.673049 -263.710079 
L 311.260273 -262.867332 
L 311.842703 -262.021326 
L 312.420305 -261.172076 
L 312.993041 -260.319597 
L 313.560876 -259.463906 
L 314.123775 -258.605018 
L 314.681701 -257.74295 
L 315.234619 -256.877719 
L 315.782493 -256.009343 
L 316.325287 -255.137837 
L 316.862966 -254.263222 
L 317.395493 -253.385513 
L 317.922833 -252.504731 
L 318.44495 -251.620893 
L 318.961808 -250.734019 
L 319.473372 -249.844129 
L 319.979606 -248.95124 
L 320.480474 -248.055375 
L 320.97594 -247.156552 
L 321.465969 -246.254794 
L 321.950524 -245.350119 
L 322.429572 -244.442551 
L 322.903075 -243.53211 
L 323.370999 -242.618819 
L 323.833307 -241.702699 
L 324.289965 -240.783773 
L 324.740937 -239.862064 
L 325.186187 -238.937595 
L 325.62568 -238.01039 
L 326.059381 -237.080473 
L 326.487255 -236.147866 
L 326.909265 -235.212596 
L 327.325378 -234.274687 
L 327.735558 -233.334164 
L 328.13977 -232.391052 
L 328.537979 -231.445377 
L 328.930149 -230.497165 
L 329.316247 -229.546443 
L 329.696237 -228.593237 
L 330.070085 -227.637574 
L 330.437756 -226.679481 
L 330.799215 -225.718987 
L 331.154427 -224.756119 
L 331.503359 -223.790906 
L 331.845976 -222.823376 
L 332.182243 -221.853558 
L 332.512127 -220.881481 
L 332.835593 -219.907175 
L 333.152607 -218.93067 
L 333.463135 -217.951996 
L 333.767145 -216.971185 
L 334.064657 -215.988297 
L 334.355777 -215.003444 
L 334.64062 -214.016737 
L 334.919299 -213.028287 
L 335.191932 -212.038204 
L 335.458635 -211.046593 
L 335.719527 -210.053563 
L 335.974728 -209.059216 
L 336.224357 -208.063656 
L 336.468537 -207.066985 
L 336.70739 -206.069302 
L 336.941039 -205.070705 
L 337.16961 -204.07129 
L 337.393227 -203.071154 
L 337.612018 -202.070388 
L 337.82611 -201.069084 
L 338.035632 -200.067334 
L 338.240712 -199.065224 
L 338.441483 -198.062842 
L 338.638074 -197.060273 
L 338.830619 -196.057601 
L 339.01925 -195.054906 
L 339.204101 -194.05227 
L 339.385308 -193.04977 
L 339.563006 -192.047484 
L 339.737332 -191.045486 
L 339.908423 -190.04385 
L 340.076418 -189.042648 
L 340.241455 -188.041948 
L 340.403675 -187.041821 
L 340.563218 -186.042331 
L 340.720225 -185.043544 
L 340.874839 -184.045523 
L 341.027203 -183.048329 
L 341.17746 -182.052022 
L 341.325755 -181.056659 
L 341.472232 -180.062296 
L 341.617038 -179.068989 
L 341.760319 -178.076788 
L 341.902221 -177.085745 
L 342.042893 -176.095909 
L 342.182482 -175.107327 
L 342.321139 -174.120044 
L 342.459011 -173.134104 
L 342.59625 -172.149548 
L 342.733006 -171.166417 
L 342.86943 -170.184748 
L 343.005674 -169.204579 
L 343.14189 -168.225943 
L 343.278232 -167.248873 
L 343.414852 -166.2734 
L 343.551904 -165.299553 
L 343.689543 -164.327359 
L 343.827923 -163.356844 
L 343.9672 -162.388031 
L 344.107529 -161.420941 
L 344.249066 -160.455595 
L 344.391968 -159.49201 
L 344.536391 -158.530203 
L 344.682493 -157.570187 
L 344.830431 -156.611976 
L 344.980363 -155.655579 
L 345.132448 -154.701005 
L 345.286843 -153.74826 
L 345.443709 -152.797351 
L 345.603203 -151.848279 
L 345.765485 -150.901046 
L 345.930715 -149.955651 
L 346.099054 -149.012091 
L 346.27066 -148.070361 
L 346.445694 -147.130456 
L 346.624318 -146.192366 
L 346.806691 -145.256082 
L 346.992975 -144.321591 
L 347.18333 -143.388879 
L 347.377918 -142.457931 
L 347.5769 -141.528727 
L 347.780438 -140.601249 
L 347.988693 -139.675475 
L 348.201827 -138.75138 
L 348.420001 -137.82894 
L 348.643377 -136.908127 
L 348.872117 -135.988911 
L 349.106383 -135.071261 
L 349.346336 -134.155144 
L 349.592139 -133.240525 
L 349.843953 -132.327366 
L 350.10194 -131.415629 
L 350.366261 -130.505272 
L 350.637078 -129.596253 
L 350.914553 -128.688527 
L 351.198847 -127.782047 
L 351.490122 -126.876764 
L 351.788538 -125.972628 
L 352.094257 -125.069587 
L 352.40744 -124.167585 
L 352.728247 -123.266566 
L 353.056839 -122.366472 
L 353.393376 -121.467244 
L 353.738018 -120.568817 
L 354.090926 -119.671129 
L 354.452259 -118.774114 
L 354.822177 -117.877702 
L 355.200838 -116.981826 
L 355.588401 -116.086411 
L 355.985025 -115.191386 
L 356.390868 -114.296674 
L 356.806088 -113.402197 
L 357.230843 -112.507876 
L 357.66529 -111.613629 
L 358.109584 -110.719374 
L 358.563884 -109.825024 
L 359.028345 -108.930492 
L 359.503122 -108.03569 
L 359.98837 -107.140526 
L 360.484245 -106.244907 
L 360.9909 -105.348739 
L 361.508489 -104.451923 
L 362.037165 -103.554363 
L 362.577081 -102.655956 
L 363.12839 -101.756601 
L 363.691242 -100.856192 
L 364.265789 -99.954625 
L 364.852181 -99.051789 
L 365.450568 -98.147576 
L 366.0611 -97.241873 
L 366.683925 -96.334566 
L 367.319192 -95.425539 
L 367.967047 -94.514674 
L 368.627637 -93.601853 
L 369.301109 -92.686952 
L 369.987607 -91.76985 
L 370.687277 -90.850421 
L 371.400263 -89.928537 
L 372.126706 -89.00407 
L 372.866751 -88.076888 
L 373.620539 -87.14686 
L 374.38821 -86.21385 
L 375.169905 -85.277722 
L 375.965763 -84.338337 
L 376.775922 -83.395556 
L 377.600521 -82.449237 
L 378.439695 -81.499235 
L 379.293581 -80.545406 
L 380.162314 -79.587601 
L 381.046028 -78.625672 
L 381.944856 -77.659466 
L 382.85893 -76.688832 
L 383.788383 -75.713615 
L 384.733343 -74.733657 
L 385.693941 -73.748801 
L 386.670305 -72.758886 
L 387.662562 -71.763751 
L 388.67084 -70.763231 
L 389.695262 -69.757162 
L 390.735954 -68.745375 
L 391.793039 -67.727702 
L 392.866639 -66.703972 
L 393.956876 -65.674013 
L 395.063868 -64.637649 
L 396.187736 -63.594706 
L 397.328597 -62.545004 
L 398.486568 -61.488365 
L 399.661763 -60.424607 
L 400.854298 -59.353547 
L 402.064286 -58.275 
z
" style="stroke: #000000; stroke-opacity: 0.075"/>
    </defs>
    <g clip-path="url(#p889a146980)">
     <use xlink:href="#m825796f08f" x="0" y="482.4" style="fill-opacity: 0.075; stroke: #000000; stroke-opacity: 0.075"/>
    </g>
   </g>
   <g id="matplotlib.axis_1">
    <g id="xtick_1">
     <g id="line2d_1">
      <path d="M 58.23 424.125 
L 419.256 424.125 
" clip-path="url(#p889a146980)" style="fill: none; stroke: #b0b0b0; stroke-width: 0.8; stroke-linecap: square"/>
     </g>
     <g id="text_1">
      <!-- 0° -->
      <g transform="translate(425.870375 427.712188) scale(0.13 -0.13)">
       <defs>
        <path id="DejaVuSerif-30" d="M 2034 219 
Q 2513 219 2750 744 
Q 2988 1269 2988 2328 
Q 2988 3391 2750 3916 
Q 2513 4441 2034 4441 
Q 1556 4441 1318 3916 
Q 1081 3391 1081 2328 
Q 1081 1269 1318 744 
Q 1556 219 2034 219 
z
M 2034 -91 
Q 1275 -91 848 546 
Q 422 1184 422 2328 
Q 422 3475 848 4112 
Q 1275 4750 2034 4750 
Q 2797 4750 3222 4112 
Q 3647 3475 3647 2328 
Q 3647 1184 3222 546 
Q 2797 -91 2034 -91 
z
" transform="scale(0.015625)"/>
        <path id="DejaVuSerif-b0" d="M 1600 4319 
Q 1363 4319 1200 4155 
Q 1038 3991 1038 3750 
Q 1038 3513 1198 3353 
Q 1359 3194 1600 3194 
Q 1838 3194 2000 3355 
Q 2163 3516 2163 3750 
Q 2163 3984 1997 4151 
Q 1831 4319 1600 4319 
z
M 1600 4750 
Q 1800 4750 1984 4673 
Q 2169 4597 2303 4453 
Q 2447 4313 2519 4134 
Q 2591 3956 2591 3750 
Q 2591 3338 2302 3052 
Q 2013 2766 1594 2766 
Q 1172 2766 890 3047 
Q 609 3328 609 3750 
Q 609 4169 896 4459 
Q 1184 4750 1600 4750 
z
" transform="scale(0.015625)"/>
       </defs>
       <use xlink:href="#DejaVuSerif-30"/>
       <use xlink:href="#DejaVuSerif-b0" x="63.623047"/>
      </g>
     </g>
    </g>
    <g id="xtick_2">
     <g id="line2d_2">
      <path d="M 58.23 424.125 
L 406.954337 330.684595 
" clip-path="url(#p889a146980)" style="fill: none; stroke: #b0b0b0; stroke-width: 0.8; stroke-linecap: square"/>
     </g>
     <g id="text_2">
      <!-- 15° -->
      <g transform="translate(408.956049 330.648316) scale(0.13 -0.13)">
       <defs>
        <path id="DejaVuSerif-31" d="M 909 0 
L 909 331 
L 1722 331 
L 1722 4213 
L 781 3603 
L 781 4013 
L 1919 4750 
L 2350 4750 
L 2350 331 
L 3163 331 
L 3163 0 
L 909 0 
z
" transform="scale(0.015625)"/>
        <path id="DejaVuSerif-35" d="M 3219 4666 
L 3219 4153 
L 1081 4153 
L 1081 2816 
Q 1244 2928 1461 2984 
Q 1678 3041 1947 3041 
Q 2703 3041 3140 2622 
Q 3578 2203 3578 1478 
Q 3578 738 3136 323 
Q 2694 -91 1894 -91 
Q 1572 -91 1234 -12 
Q 897 66 544 225 
L 544 1131 
L 897 1131 
Q 925 688 1179 453 
Q 1434 219 1894 219 
Q 2388 219 2653 544 
Q 2919 869 2919 1478 
Q 2919 2084 2655 2407 
Q 2391 2731 1894 2731 
Q 1613 2731 1398 2631 
Q 1184 2531 1019 2322 
L 750 2322 
L 750 4666 
L 3219 4666 
z
" transform="scale(0.015625)"/>
       </defs>
       <use xlink:href="#DejaVuSerif-31"/>
       <use xlink:href="#DejaVuSerif-35" x="63.623047"/>
       <use xlink:href="#DejaVuSerif-b0" x="127.246094"/>
      </g>
     </g>
    </g>
    <g id="xtick_3">
     <g id="line2d_3">
      <path d="M 58.23 424.125 
L 370.887687 243.612 
" clip-path="url(#p889a146980)" style="fill: none; stroke: #b0b0b0; stroke-width: 0.8; stroke-linecap: square"/>
     </g>
     <g id="text_3">
      <!-- 30° -->
      <g transform="translate(371.490793 240.199188) scale(0.13 -0.13)">
       <defs>
        <path id="DejaVuSerif-33" d="M 622 4469 
Q 988 4606 1323 4678 
Q 1659 4750 1953 4750 
Q 2638 4750 3022 4454 
Q 3406 4159 3406 3634 
Q 3406 3213 3140 2930 
Q 2875 2647 2388 2547 
Q 2963 2466 3280 2130 
Q 3597 1794 3597 1259 
Q 3597 606 3158 257 
Q 2719 -91 1894 -91 
Q 1528 -91 1179 -12 
Q 831 66 488 225 
L 488 1131 
L 838 1131 
Q 869 681 1141 450 
Q 1413 219 1906 219 
Q 2384 219 2661 495 
Q 2938 772 2938 1253 
Q 2938 1803 2653 2086 
Q 2369 2369 1819 2369 
L 1522 2369 
L 1522 2688 
L 1678 2688 
Q 2225 2688 2498 2914 
Q 2772 3141 2772 3597 
Q 2772 4006 2547 4223 
Q 2322 4441 1900 4441 
Q 1478 4441 1245 4241 
Q 1013 4041 972 3647 
L 622 3647 
L 622 4469 
z
" transform="scale(0.015625)"/>
       </defs>
       <use xlink:href="#DejaVuSerif-33"/>
       <use xlink:href="#DejaVuSerif-30" x="63.623047"/>
       <use xlink:href="#DejaVuSerif-b0" x="127.246094"/>
      </g>
     </g>
    </g>
    <g id="xtick_4">
     <g id="line2d_4">
      <path d="M 58.23 424.125 
L 313.513933 168.841067 
" clip-path="url(#p889a146980)" style="fill: none; stroke: #b0b0b0; stroke-width: 0.8; stroke-linecap: square"/>
     </g>
     <g id="text_4">
      <!-- 45° -->
      <g transform="translate(311.892178 162.52876) scale(0.13 -0.13)">
       <defs>
        <path id="DejaVuSerif-34" d="M 2234 1581 
L 2234 4063 
L 641 1581 
L 2234 1581 
z
M 3609 0 
L 1484 0 
L 1484 331 
L 2234 331 
L 2234 1247 
L 197 1247 
L 197 1588 
L 2241 4750 
L 2859 4750 
L 2859 1581 
L 3750 1581 
L 3750 1247 
L 2859 1247 
L 2859 331 
L 3609 331 
L 3609 0 
z
" transform="scale(0.015625)"/>
       </defs>
       <use xlink:href="#DejaVuSerif-34"/>
       <use xlink:href="#DejaVuSerif-35" x="63.623047"/>
       <use xlink:href="#DejaVuSerif-b0" x="127.246094"/>
      </g>
     </g>
    </g>
    <g id="xtick_5">
     <g id="line2d_5">
      <path d="M 58.23 424.125 
L 238.743 111.467313 
" clip-path="url(#p889a146980)" style="fill: none; stroke: #b0b0b0; stroke-width: 0.8; stroke-linecap: square"/>
     </g>
     <g id="text_5">
      <!-- 60° -->
      <g transform="translate(234.22175 102.930144) scale(0.13 -0.13)">
       <defs>
        <path id="DejaVuSerif-36" d="M 2094 219 
Q 2534 219 2771 542 
Q 3009 866 3009 1472 
Q 3009 2078 2771 2401 
Q 2534 2725 2094 2725 
Q 1647 2725 1412 2412 
Q 1178 2100 1178 1509 
Q 1178 888 1415 553 
Q 1653 219 2094 219 
z
M 1075 2569 
Q 1288 2803 1556 2918 
Q 1825 3034 2163 3034 
Q 2859 3034 3264 2615 
Q 3669 2197 3669 1472 
Q 3669 763 3233 336 
Q 2797 -91 2069 -91 
Q 1278 -91 853 498 
Q 428 1088 428 2181 
Q 428 3406 931 4078 
Q 1434 4750 2350 4750 
Q 2597 4750 2869 4703 
Q 3141 4656 3425 4563 
L 3425 3794 
L 3072 3794 
Q 3034 4109 2831 4275 
Q 2628 4441 2284 4441 
Q 1678 4441 1381 3981 
Q 1084 3522 1075 2569 
z
" transform="scale(0.015625)"/>
       </defs>
       <use xlink:href="#DejaVuSerif-36"/>
       <use xlink:href="#DejaVuSerif-30" x="63.623047"/>
       <use xlink:href="#DejaVuSerif-b0" x="127.246094"/>
      </g>
     </g>
    </g>
    <g id="xtick_6">
     <g id="line2d_6">
      <path d="M 58.23 424.125 
L 151.670405 75.400663 
" clip-path="url(#p889a146980)" style="fill: none; stroke: #b0b0b0; stroke-width: 0.8; stroke-linecap: square"/>
     </g>
     <g id="text_6">
      <!-- 75° -->
      <g transform="translate(143.772621 65.464889) scale(0.13 -0.13)">
       <defs>
        <path id="DejaVuSerif-37" d="M 3609 4347 
L 1784 0 
L 1319 0 
L 3059 4153 
L 903 4153 
L 903 3578 
L 538 3578 
L 538 4666 
L 3609 4666 
L 3609 4347 
z
" transform="scale(0.015625)"/>
       </defs>
       <use xlink:href="#DejaVuSerif-37"/>
       <use xlink:href="#DejaVuSerif-35" x="63.623047"/>
       <use xlink:href="#DejaVuSerif-b0" x="127.246094"/>
      </g>
     </g>
    </g>
    <g id="xtick_7">
     <g id="line2d_7">
      <path d="M 58.23 424.125 
L 58.23 63.099 
" clip-path="url(#p889a146980)" style="fill: none; stroke: #b0b0b0; stroke-width: 0.8; stroke-linecap: square"/>
     </g>
     <g id="text_7">
      <!-- 90° -->
      <g transform="translate(46.70875 52.686188) scale(0.13 -0.13)">
       <defs>
        <path id="DejaVuSerif-39" d="M 2994 2091 
Q 2784 1856 2512 1740 
Q 2241 1625 1900 1625 
Q 1206 1625 804 2044 
Q 403 2463 403 3188 
Q 403 3897 839 4323 
Q 1275 4750 2003 4750 
Q 2794 4750 3217 4161 
Q 3641 3572 3641 2478 
Q 3641 1253 3137 581 
Q 2634 -91 1722 -91 
Q 1475 -91 1203 -44 
Q 931 3 647 97 
L 647 872 
L 997 872 
Q 1038 556 1241 387 
Q 1444 219 1784 219 
Q 2391 219 2687 676 
Q 2984 1134 2994 2091 
z
M 1978 4441 
Q 1534 4441 1298 4117 
Q 1063 3794 1063 3188 
Q 1063 2581 1298 2256 
Q 1534 1931 1978 1931 
Q 2422 1931 2658 2245 
Q 2894 2559 2894 3150 
Q 2894 3772 2656 4106 
Q 2419 4441 1978 4441 
z
" transform="scale(0.015625)"/>
       </defs>
       <use xlink:href="#DejaVuSerif-39"/>
       <use xlink:href="#DejaVuSerif-30" x="63.623047"/>
       <use xlink:href="#DejaVuSerif-b0" x="127.246094"/>
      </g>
     </g>
    </g>
   </g>
   <g id="matplotlib.axis_2">
    <g id="ytick_1">
     <g id="line2d_8">
      <path d="M 101.209286 424.125 
C 101.209286 412.730556 96.678033 401.791144 88.620944 393.734056 
C 80.563856 385.676967 69.624444 381.145714 58.23 381.145714 
" clip-path="url(#p889a146980)" style="fill: none; stroke: #b0b0b0; stroke-width: 0.8; stroke-linecap: square"/>
     </g>
     <g id="text_8">
      <!-- 0.05 -->
      <g transform="translate(86.736629 441.002969) scale(0.13 -0.13)">
       <defs>
        <path id="DejaVuSerif-2e" d="M 603 325 
Q 603 500 722 622 
Q 841 744 1019 744 
Q 1191 744 1312 622 
Q 1434 500 1434 325 
Q 1434 153 1312 31 
Q 1191 -91 1019 -91 
Q 841 -91 722 29 
Q 603 150 603 325 
z
" transform="scale(0.015625)"/>
       </defs>
       <use xlink:href="#DejaVuSerif-30"/>
       <use xlink:href="#DejaVuSerif-2e" x="63.623047"/>
       <use xlink:href="#DejaVuSerif-30" x="95.410156"/>
       <use xlink:href="#DejaVuSerif-35" x="159.033203"/>
      </g>
     </g>
    </g>
    <g id="ytick_2">
     <g id="line2d_9">
      <path d="M 144.188571 424.125 
C 144.188571 401.336113 135.126065 379.457288 119.011889 363.343111 
C 102.897712 347.228935 81.018887 338.166429 58.23 338.166429 
" clip-path="url(#p889a146980)" style="fill: none; stroke: #b0b0b0; stroke-width: 0.8; stroke-linecap: square"/>
     </g>
     <g id="text_9">
      <!-- 0.10 -->
      <g transform="translate(129.715915 441.002969) scale(0.13 -0.13)">
       <use xlink:href="#DejaVuSerif-30"/>
       <use xlink:href="#DejaVuSerif-2e" x="63.623047"/>
       <use xlink:href="#DejaVuSerif-31" x="95.410156"/>
       <use xlink:href="#DejaVuSerif-30" x="159.033203"/>
      </g>
     </g>
    </g>
    <g id="ytick_3">
     <g id="line2d_10">
      <path d="M 187.167857 424.125 
C 187.167857 389.941669 173.574098 357.123432 149.402833 332.952167 
C 125.231568 308.780902 92.413331 295.187143 58.23 295.187143 
" clip-path="url(#p889a146980)" style="fill: none; stroke: #b0b0b0; stroke-width: 0.8; stroke-linecap: square"/>
     </g>
     <g id="text_10">
      <!-- 0.15 -->
      <g transform="translate(172.695201 441.002969) scale(0.13 -0.13)">
       <use xlink:href="#DejaVuSerif-30"/>
       <use xlink:href="#DejaVuSerif-2e" x="63.623047"/>
       <use xlink:href="#DejaVuSerif-31" x="95.410156"/>
       <use xlink:href="#DejaVuSerif-35" x="159.033203"/>
      </g>
     </g>
    </g>
    <g id="ytick_4">
     <g id="line2d_11">
      <path d="M 230.147143 424.125 
C 230.147143 378.547226 212.022131 334.789576 179.793778 302.561222 
C 147.565424 270.332869 103.807774 252.207857 58.23 252.207857 
" clip-path="url(#p889a146980)" style="fill: none; stroke: #b0b0b0; stroke-width: 0.8; stroke-linecap: square"/>
     </g>
     <g id="text_11">
      <!-- 0.20 -->
      <g transform="translate(215.674487 441.002969) scale(0.13 -0.13)">
       <defs>
        <path id="DejaVuSerif-32" d="M 819 3553 
L 469 3553 
L 469 4384 
Q 803 4563 1142 4656 
Q 1481 4750 1806 4750 
Q 2534 4750 2956 4397 
Q 3378 4044 3378 3438 
Q 3378 2753 2422 1800 
Q 2347 1728 2309 1691 
L 1131 513 
L 3078 513 
L 3078 1088 
L 3444 1088 
L 3444 0 
L 434 0 
L 434 341 
L 1850 1753 
Q 2319 2222 2519 2614 
Q 2719 3006 2719 3438 
Q 2719 3909 2473 4175 
Q 2228 4441 1797 4441 
Q 1350 4441 1106 4219 
Q 863 3997 819 3553 
z
" transform="scale(0.015625)"/>
       </defs>
       <use xlink:href="#DejaVuSerif-30"/>
       <use xlink:href="#DejaVuSerif-2e" x="63.623047"/>
       <use xlink:href="#DejaVuSerif-32" x="95.410156"/>
       <use xlink:href="#DejaVuSerif-30" x="159.033203"/>
      </g>
     </g>
    </g>
    <g id="ytick_5">
     <g id="line2d_12">
      <path d="M 273.126429 424.125 
C 273.126429 367.152782 250.470164 312.45572 210.184722 272.170278 
C 169.89928 231.884836 115.202218 209.228571 58.23 209.228571 
" clip-path="url(#p889a146980)" style="fill: none; stroke: #b0b0b0; stroke-width: 0.8; stroke-linecap: square"/>
     </g>
     <g id="text_12">
      <!-- 0.25 -->
      <g transform="translate(258.653772 441.002969) scale(0.13 -0.13)">
       <use xlink:href="#DejaVuSerif-30"/>
       <use xlink:href="#DejaVuSerif-2e" x="63.623047"/>
       <use xlink:href="#DejaVuSerif-32" x="95.410156"/>
       <use xlink:href="#DejaVuSerif-35" x="159.033203"/>
      </g>
     </g>
    </g>
    <g id="ytick_6">
     <g id="line2d_13">
      <path d="M 316.105714 424.125 
C 316.105714 355.758338 288.918196 290.121864 240.575666 241.779334 
C 192.233136 193.436804 126.596662 166.249286 58.23 166.249286 
" clip-path="url(#p889a146980)" style="fill: none; stroke: #b0b0b0; stroke-width: 0.8; stroke-linecap: square"/>
     </g>
     <g id="text_13">
      <!-- 0.30 -->
      <g transform="translate(301.633058 441.002969) scale(0.13 -0.13)">
       <use xlink:href="#DejaVuSerif-30"/>
       <use xlink:href="#DejaVuSerif-2e" x="63.623047"/>
       <use xlink:href="#DejaVuSerif-33" x="95.410156"/>
       <use xlink:href="#DejaVuSerif-30" x="159.033203"/>
      </g>
     </g>
    </g>
    <g id="ytick_7">
     <g id="line2d_14">
      <path d="M 359.085 424.125 
C 359.085 344.363895 327.366229 267.788008 270.966611 211.388389 
C 214.566992 154.988771 137.991105 123.27 58.23 123.27 
" clip-path="url(#p889a146980)" style="fill: none; stroke: #b0b0b0; stroke-width: 0.8; stroke-linecap: square"/>
     </g>
     <g id="text_14">
      <!-- 0.35 -->
      <g transform="translate(344.612344 441.002969) scale(0.13 -0.13)">
       <use xlink:href="#DejaVuSerif-30"/>
       <use xlink:href="#DejaVuSerif-2e" x="63.623047"/>
       <use xlink:href="#DejaVuSerif-33" x="95.410156"/>
       <use xlink:href="#DejaVuSerif-35" x="159.033203"/>
      </g>
     </g>
    </g>
    <g id="ytick_8">
     <g id="line2d_15">
      <path d="M 402.064286 424.125 
C 402.064286 332.969451 365.814262 245.454152 301.357555 180.997445 
C 236.900848 116.540738 149.385549 80.290714 58.23 80.290714 
" clip-path="url(#p889a146980)" style="fill: none; stroke: #b0b0b0; stroke-width: 0.8; stroke-linecap: square"/>
     </g>
     <g id="text_15">
      <!-- 0.40 -->
      <g transform="translate(387.591629 441.002969) scale(0.13 -0.13)">
       <use xlink:href="#DejaVuSerif-30"/>
       <use xlink:href="#DejaVuSerif-2e" x="63.623047"/>
       <use xlink:href="#DejaVuSerif-34" x="95.410156"/>
       <use xlink:href="#DejaVuSerif-30" x="159.033203"/>
      </g>
     </g>
    </g>
   </g>
   <g id="line2d_16">
    <path d="M 402.064286 424.125 
L 395.063868 417.762351 
L 388.67084 411.636769 
L 383.788383 406.686385 
L 379.293581 401.854594 
L 375.169905 397.122278 
L 371.400263 392.471463 
L 367.967047 387.885326 
L 364.852181 383.348211 
L 362.037165 378.845637 
L 359.503122 374.36431 
L 357.230843 369.892124 
L 355.200838 365.418174 
L 353.393376 360.932756 
L 351.788538 356.427372 
L 350.10194 350.984371 
L 348.643377 345.491873 
L 347.18333 339.011121 
L 345.930715 332.444349 
L 344.536391 323.869797 
L 342.59625 310.250452 
L 340.563218 296.357669 
L 339.01925 287.345094 
L 337.612018 280.329612 
L 335.974728 273.340784 
L 334.355777 267.396556 
L 332.512127 261.518519 
L 330.437756 255.720519 
L 328.13977 250.008948 
L 325.62568 244.38961 
L 322.903075 238.86789 
L 319.979606 233.44876 
L 316.862966 228.136778 
L 313.560876 222.936094 
L 310.081067 217.850449 
L 306.431263 212.88318 
L 302.619164 208.037226 
L 298.652432 203.315132 
L 294.53867 198.719052 
L 289.563499 193.518569 
L 284.411688 188.49269 
L 279.103028 183.633799 
L 273.658353 178.930537 
L 267.294305 173.729383 
L 259.986245 168.074108 
L 251.721964 161.99382 
L 242.503054 155.493078 
L 228.941426 146.236973 
L 203.174063 128.939734 
L 194.35282 123.328284 
L 187.155983 119.000797 
L 180.742031 115.37663 
L 174.210549 111.941898 
L 168.514657 109.176736 
L 162.727223 106.601846 
L 156.848514 104.241397 
L 150.880489 102.119815 
L 145.841505 100.552047 
L 140.746052 99.181541 
L 135.598001 98.022612 
L 130.402062 97.089557 
L 125.163782 96.396625 
L 119.889551 95.957987 
L 114.586597 95.7877 
L 110.328946 95.854038 
L 106.062576 96.10807 
L 101.792345 96.556757 
L 97.523451 97.206963 
L 93.261433 98.06545 
L 89.012165 99.138863 
L 84.781858 100.433723 
L 80.577054 101.956413 
L 76.404627 103.713172 
L 72.271777 105.710077 
L 68.186029 107.953044 
L 64.155229 110.447805 
L 60.187541 113.199909 
L 58.23 114.674143 
L 58.23 114.674143 
" clip-path="url(#p889a146980)" style="fill: none; stroke-dasharray: 5.55,2.4; stroke-dashoffset: 0; stroke: #000000; stroke-width: 1.5"/>
   </g>
   <g id="patch_3">
    <path d="M 419.256 424.125 
C 419.256 328.411674 381.193475 236.520609 313.513933 168.841067 
C 245.834391 101.161525 153.943326 63.099 58.23 63.099 
" style="fill: none; stroke: #000000; stroke-width: 0.8; stroke-linejoin: miter; stroke-linecap: square"/>
   </g>
   <g id="patch_4">
    <path d="M 58.23 424.125 
L 419.256 424.125 
" style="fill: none; stroke: #000000; stroke-width: 0.8; stroke-linejoin: miter; stroke-linecap: square"/>
   </g>
   <g id="patch_5">
    <path d="M 58.23 424.125 
L 58.23 63.099 
" style="fill: none; stroke: #000000; stroke-width: 0.8; stroke-linejoin: miter; stroke-linecap: square"/>
   </g>
   <g id="Quiver_1">
    <path d="M 101.15477 422.681925 
L 118.231153 422.036818 
L 116.679046 419.205184 
L 131.27334 422.989247 
L 117.006143 427.863632 
L 118.340185 424.922967 
L 101.263802 425.568075 
L 101.15477 422.681925 
" style="fill: #fde725"/>
    <path d="M 144.050936 422.68747 
L 161.061708 421.058779 
L 159.348906 418.321355 
L 174.137115 421.257586 
L 160.174722 426.946535 
L 161.33698 423.933839 
L 144.326207 425.56253 
L 144.050936 422.68747 
" style="fill: #b0dd2f"/>
    <path d="M 187.081795 422.683463 
L 204.139986 421.665063 
L 202.526325 418.868051 
L 217.199884 422.332043 
L 203.042697 427.517274 
L 204.31211 424.548138 
L 187.253919 425.566537 
L 187.081795 422.683463 
" style="fill: #44bf70"/>
    <path d="M 230.103591 422.681553 
L 247.184381 422.166184 
L 245.65383 419.322842 
L 260.218958 423.217661 
L 245.915143 427.983525 
L 247.271486 425.053078 
L 230.190695 425.568447 
L 230.103591 422.681553 
" style="fill: #2cb17e"/>
    <path d="M 273.053094 422.682759 
L 290.11961 421.81497 
L 288.530701 419.003823 
L 303.173111 422.597203 
L 288.970706 427.657268 
L 290.266279 424.699452 
L 273.199763 425.567241 
L 273.053094 422.682759 
" style="fill: #1fa187"/>
    <path d="M 316.042066 422.682299 
L 333.114024 421.929125 
L 331.544026 419.107372 
L 346.161978 422.798988 
L 331.925917 427.763576 
L 333.241321 424.814526 
L 316.169363 425.567701 
L 316.042066 422.682299 
" style="fill: #1f958b"/>
    <path d="M 358.982112 422.684566 
L 376.027249 421.467056 
L 374.381038 418.689076 
L 389.094044 421.981497 
L 374.998367 427.331681 
L 376.233025 424.347924 
L 359.187888 425.565434 
L 358.982112 422.684566 
" style="fill: #23898e"/>
    <path d="M 401.24442 422.936195 
L 415.311945 413.234454 
L 412.483409 411.67671 
L 426.831054 407.04447 
L 417.402602 418.809539 
L 416.951676 415.612064 
L 402.884151 425.313805 
L 401.24442 422.936195 
" style="fill: #28ae80"/>
    <path d="M 98.73729 411.966563 
L 110.979817 400.044334 
L 107.930213 398.982686 
L 121.298548 392.011303 
L 113.975287 405.190165 
L 112.994842 402.113493 
L 100.752314 414.035722 
L 98.73729 411.966563 
" style="fill: #26ad81"/>
    <path d="M 140.574955 400.605793 
L 155.620941 392.504108 
L 152.980151 390.645773 
L 167.749017 387.613754 
L 157.088047 398.274724 
L 156.99024 395.047091 
L 141.944254 403.148776 
L 140.574955 400.605793 
" style="fill: #7fd34e"/>
    <path d="M 182.312856 389.385067 
L 198.505112 383.923394 
L 196.213653 381.648224 
L 211.281898 381.137805 
L 198.982952 389.858382 
L 199.428212 386.660113 
L 183.235956 392.121787 
L 182.312856 389.385067 
" style="fill: #3fbc73"/>
    <path d="M 223.76771 378.282916 
L 239.703111 372.111853 
L 237.313461 369.940044 
L 252.344492 368.765023 
L 240.44245 378.019966 
L 240.746108 374.805161 
L 224.810706 380.976223 
L 223.76771 378.282916 
" style="fill: #20a486"/>
    <path d="M 265.269826 367.16404 
L 281.146277 360.84286 
L 278.736237 358.6937 
L 293.755509 357.376874 
L 281.941342 366.743732 
L 282.214646 363.526204 
L 266.338195 369.847384 
L 265.269826 367.16404 
" style="fill: #1f9e89"/>
    <path d="M 306.719502 356.067981 
L 322.267003 348.976138 
L 319.754508 346.947702 
L 334.691173 344.896216 
L 323.350372 354.830942 
L 323.465624 351.603885 
L 307.918123 358.695727 
L 306.719502 356.067981 
" style="fill: #25858e"/>
    <path d="M 348.33438 344.902931 
L 364.369316 338.995323 
L 362.015782 336.784427 
L 377.064136 335.857278 
L 365.011189 344.914818 
L 365.367785 341.705453 
L 349.332849 347.613061 
L 348.33438 344.902931 
" style="fill: #26828e"/>
    <path d="M 389.702594 333.842493 
L 404.98707 326.200254 
L 402.403778 324.262786 
L 417.257706 321.679494 
L 406.278716 332.012661 
L 406.278716 328.783546 
L 390.994239 336.425784 
L 389.702594 333.842493 
" style="fill: #2a788e"/>
    <path d="M 94.087008 402.161496 
L 99.694363 386.019111 
L 96.492211 386.435534 
L 105.323257 374.215665 
L 104.677083 389.2787 
L 102.422653 386.966833 
L 96.815298 403.109218 
L 94.087008 402.161496 
" style="fill: #23888e"/>
    <path d="M 131.530185 380.261975 
L 141.987771 366.746875 
L 138.819789 366.121517 
L 151.083549 357.351524 
L 145.672516 371.423954 
L 144.272013 368.514354 
L 133.814428 382.029454 
L 131.530185 380.261975 
" style="fill: #34b679"/>
    <path d="M 168.834683 358.674018 
L 180.455649 346.145164 
L 177.356043 345.239834 
L 190.352907 337.59823 
L 183.708701 351.132154 
L 182.573202 348.109271 
L 170.952236 360.638125 
L 168.834683 358.674018 
" style="fill: #1fa287"/>
    <path d="M 206.067638 337.171803 
L 217.837378 324.782603 
L 214.748803 323.840326 
L 227.835985 316.354458 
L 221.03065 329.808081 
L 219.931327 326.771855 
L 208.161588 339.161054 
L 206.067638 337.171803 
" style="fill: #228b8d"/>
    <path d="M 243.314631 315.65565 
L 255.39807 303.57221 
L 252.334663 302.551075 
L 265.609427 295.403125 
L 258.461477 308.677889 
L 257.440342 305.614482 
L 245.356902 317.697921 
L 243.314631 315.65565 
" style="fill: #218e8d"/>
    <path d="M 280.427018 294.287833 
L 291.068849 280.917327 
L 287.909736 280.248609 
L 300.292539 271.647519 
L 294.689147 285.644468 
L 293.328653 282.715946 
L 282.686822 296.086453 
L 280.427018 294.287833 
" style="fill: #25858e"/>
    <path d="M 317.646621 272.800141 
L 328.265364 259.411291 
L 325.105101 258.748026 
L 337.473043 250.125581 
L 331.893814 264.132178 
L 330.528268 261.206008 
L 319.909525 274.594859 
L 317.646621 272.800141 
" style="fill: #2c718e"/>
    <path d="M 354.894615 251.277658 
L 365.90197 238.206424 
L 362.762548 237.450637 
L 375.378372 229.195121 
L 369.390216 243.031832 
L 368.111192 240.066822 
L 357.103837 253.138056 
L 354.894615 251.277658 
" style="fill: #2f6c8e"/>
    <path d="M 87.190212 393.537992 
L 89.510295 376.607658 
L 86.452766 377.646263 
L 92.705597 363.927128 
L 95.037161 378.822643 
L 92.37176 376.999784 
L 90.051677 393.930119 
L 87.190212 393.537992 
" style="fill: #3f4889"/>
    <path d="M 117.602173 363.029841 
L 121.309203 346.348206 
L 118.176502 347.131381 
L 125.53835 333.974035 
L 126.634796 349.011002 
L 124.128634 346.974746 
L 120.421604 363.656381 
L 117.602173 363.029841 
" style="fill: #1f9f88"/>
    <path d="M 148.001 332.605322 
L 152.105335 316.016969 
L 148.954825 316.725111 
L 156.628775 303.74732 
L 157.365821 318.806182 
L 154.909001 316.710659 
L 150.804666 333.299012 
L 148.001 332.605322 
" style="fill: #26828e"/>
    <path d="M 178.429336 302.088216 
L 184.026579 285.942322 
L 180.824689 286.360751 
L 189.648079 274.135353 
L 189.011339 289.19879 
L 186.755462 286.888335 
L 181.158219 303.034229 
L 178.429336 302.088216 
" style="fill: #30698e"/>
    <path d="M 208.866242 271.58117 
L 215.837352 255.979162 
L 212.611285 256.119426 
L 222.457803 244.701955 
L 220.522162 259.654073 
L 218.474311 257.157378 
L 211.503201 272.759386 
L 208.866242 271.58117 
" style="fill: #24868e"/>
    <path d="M 239.200267 241.339206 
L 244.408446 225.063645 
L 241.217519 225.558789 
L 249.744996 213.125177 
L 249.469917 228.199556 
L 247.159245 225.943901 
L 241.951066 242.219462 
L 239.200267 241.339206 
" style="fill: #31678e"/>
    <path d="M 269.617743 210.872646 
L 275.720709 194.911041 
L 272.507229 195.228422 
L 281.71127 183.286973 
L 280.600437 198.322884 
L 278.418445 195.942528 
L 272.315479 211.904133 
L 269.617743 210.872646 
" style="fill: #2e6f8e"/>
    <path d="M 299.946411 180.690674 
L 303.576528 163.992134 
L 300.447469 164.789737 
L 307.748607 151.598605 
L 308.914335 166.63036 
L 306.398817 164.605675 
L 302.768699 181.304215 
L 299.946411 180.690674 
" style="fill: #33638d"/>
    <path d="M 78.27857 386.81033 
L 79.385181 369.757635 
L 76.409519 371.011675 
L 81.667902 356.881495 
L 85.055956 371.572773 
L 82.267327 369.944667 
L 81.160716 386.997363 
L 78.27857 386.81033 
" style="fill: #481467"/>
    <path d="M 99.818393 349.294293 
L 104.414462 332.8354 
L 101.244277 333.449492 
L 109.300955 320.705768 
L 109.589631 335.779893 
L 107.196246 333.6122 
L 102.600178 350.071094 
L 99.818393 349.294293 
" style="fill: #2c738e"/>
    <path d="M 121.289213 312.14827 
L 124.996243 295.466635 
L 121.863542 296.24981 
L 129.22539 283.092464 
L 130.321835 298.129431 
L 127.815674 296.093175 
L 124.108644 312.77481 
L 121.289213 312.14827 
" style="fill: #2c738e"/>
    <path d="M 142.763368 275.007511 
L 145.519072 258.142603 
L 142.435789 259.102053 
L 149.040163 245.548648 
L 150.987009 260.499312 
L 148.369479 258.608356 
L 145.613775 275.473263 
L 142.763368 275.007511 
" style="fill: #32658e"/>
    <path d="M 164.250332 237.803391 
L 166.80447 220.906782 
L 163.732863 221.902979 
L 170.174937 208.271683 
L 172.300158 223.198035 
L 169.660235 221.338467 
L 167.106097 238.235076 
L 164.250332 237.803391 
" style="fill: #30698e"/>
    <path d="M 185.739508 200.585348 
L 188.256847 183.683217 
L 185.187416 184.6861 
L 191.599791 171.040808 
L 193.75751 185.962497 
L 191.113545 184.108682 
L 188.596206 201.010813 
L 185.739508 200.585348 
" style="fill: #39568c"/>
    <path d="M 207.251172 163.248784 
L 211.1342 146.607236 
L 207.993401 147.357278 
L 215.493817 134.278427 
L 216.431369 149.326137 
L 213.946856 147.263523 
L 210.063828 163.90507 
L 207.251172 163.248784 
" style="fill: #3a548c"/>
    <path d="M 228.74231 126.02129 
L 232.700372 109.397428 
L 229.556221 110.133294 
L 237.115562 97.088413 
L 237.985221 112.140198 
L 235.510038 110.066397 
L 231.551976 126.690258 
L 228.74231 126.02129 
" style="fill: #3a548c"/>
    <path d="M 68.177539 383.44788 
L 58.264974 369.528107 
L 56.750018 372.379789 
L 51.902158 358.103556 
L 63.80793 367.353699 
L 60.617611 367.852744 
L 70.530176 381.772516 
L 68.177539 383.44788 
" style="fill: #440154"/>
    <path d="M 79.378629 342.032117 
L 68.294097 329.026266 
L 67.032646 331.998794 
L 60.962694 318.197771 
L 73.627162 326.378468 
L 70.492269 327.152824 
L 81.576801 340.158675 
L 79.378629 342.032117 
" style="fill: #38588c"/>
    <path d="M 90.810696 300.788878 
L 76.512669 291.430169 
L 76.139199 294.637614 
L 66.42899 283.103994 
L 80.88446 287.38791 
L 78.094422 289.013601 
L 92.39245 298.37231 
L 90.810696 300.788878 
" style="fill: #433e85"/>
    <path d="M 101.644232 259.023103 
L 90.316046 246.228916 
L 89.110959 249.224738 
L 82.781441 235.540815 
L 95.598153 243.480869 
L 92.478443 244.314293 
L 103.80663 257.10848 
L 101.644232 259.023103 
" style="fill: #3f4788"/>
    <path d="M 112.773082 217.513911 
L 101.378516 204.778807 
L 100.189025 207.780855 
L 93.788432 194.130032 
L 106.646261 202.003328 
L 103.530928 202.852965 
L 114.925494 215.588069 
L 112.773082 217.513911 
" style="fill: #3a548c"/>
    <path d="M 123.934256 176.039254 
L 112.064633 163.745716 
L 110.989918 166.79074 
L 104.075923 153.392635 
L 117.223262 160.77234 
L 114.142414 161.739583 
L 126.012037 174.033121 
L 123.934256 176.039254 
" style="fill: #433e85"/>
    <path d="M 135.050029 134.516011 
L 123.28029 122.126812 
L 122.180967 125.163038 
L 115.375632 111.709415 
L 128.462814 119.195283 
L 125.374239 120.13756 
L 137.143978 132.52676 
L 135.050029 134.516011 
" style="fill: #414287"/>
    <path d="M 146.124416 92.946394 
L 135.003326 79.971789 
L 133.750245 82.947855 
L 127.641478 69.163969 
L 140.328918 77.308993 
L 137.196217 78.092168 
L 148.317307 91.066773 
L 146.124416 92.946394 
" style="fill: #433d84"/>
    <path d="M 57.645045 382.466041 
L 42.021173 375.544073 
L 42.17159 378.769682 
L 30.723183 368.95915 
L 45.681321 370.847719 
L 43.191083 372.903419 
L 58.814955 379.825387 
L 57.645045 382.466041 
" style="fill: #46085c"/>
    <path d="M 57.848919 339.559344 
L 41.366085 335.049889 
L 41.996839 338.216801 
L 29.210925 330.227248 
L 44.283323 329.859308 
L 42.128246 332.264058 
L 58.611081 336.773513 
L 57.848919 339.559344 
" style="fill: #3c4f8a"/>
    <path d="M 57.921992 296.598018 
L 41.226641 292.953258 
L 42.0215 296.083015 
L 28.836776 288.770312 
L 43.869547 287.617767 
L 41.842657 290.131508 
L 58.538008 293.776268 
L 57.921992 296.598018 
" style="fill: #3d4d8a"/>
    <path d="M 57.874175 253.607437 
L 41.312476 249.396836 
L 42.000405 252.551822 
L 29.07208 244.794827 
L 44.135358 244.154341 
L 42.024127 246.597676 
L 58.585825 250.808277 
L 57.874175 253.607437 
" style="fill: #423f85"/>
    <path d="M 57.87484 210.628321 
L 41.311142 206.425591 
L 42.000571 209.58025 
L 29.06856 201.8294 
L 44.131532 201.181755 
L 42.021462 203.626093 
L 58.58516 207.828822 
L 57.87484 210.628321 
" style="fill: #404588"/>
    <path d="M 57.954364 167.66684 
L 41.179967 164.405152 
L 42.04625 167.515897 
L 28.69761 160.506877 
L 43.700064 159.010569 
L 41.731238 161.570043 
L 58.505636 164.831731 
L 57.954364 167.66684 
" style="fill: #472f7d"/>
    <path d="M 57.946788 124.68606 
L 41.190072 121.334717 
L 42.039709 124.45005 
L 28.72874 117.369748 
L 43.738981 115.953688 
L 41.756496 118.502596 
L 58.513212 121.85394 
L 57.946788 124.68606 
" style="fill: #453781"/>
    <path d="M 57.979036 81.712844 
L 41.150499 78.743102 
L 42.070701 81.838326 
L 28.602294 75.062296 
L 43.576485 73.305547 
L 41.652427 75.898843 
L 58.480964 78.868584 
L 57.979036 81.712844 
" style="fill: #46337f"/>
   </g>
  </g>
  <g id="text_16">
   <!-- Distance (m) -->
   <g transform="translate(187.593906 477.576) scale(0.14 -0.14)">
    <defs>
     <path id="DejaVuSerif-44" d="M 1581 331 
L 2163 331 
Q 3072 331 3558 850 
Q 4044 1369 4044 2338 
Q 4044 3306 3559 3818 
Q 3075 4331 2163 4331 
L 1581 4331 
L 1581 331 
z
M 353 0 
L 353 331 
L 947 331 
L 947 4331 
L 353 4331 
L 353 4666 
L 2209 4666 
Q 3416 4666 4089 4050 
Q 4763 3434 4763 2338 
Q 4763 1238 4088 619 
Q 3413 0 2209 0 
L 353 0 
z
" transform="scale(0.015625)"/>
     <path id="DejaVuSerif-69" d="M 622 4353 
Q 622 4497 726 4603 
Q 831 4709 978 4709 
Q 1122 4709 1226 4603 
Q 1331 4497 1331 4353 
Q 1331 4206 1228 4103 
Q 1125 4000 978 4000 
Q 831 4000 726 4103 
Q 622 4206 622 4353 
z
M 1356 331 
L 1900 331 
L 1900 0 
L 231 0 
L 231 331 
L 781 331 
L 781 2988 
L 231 2988 
L 231 3322 
L 1356 3322 
L 1356 331 
z
" transform="scale(0.015625)"/>
     <path id="DejaVuSerif-73" d="M 359 184 
L 359 959 
L 691 959 
Q 703 588 923 403 
Q 1144 219 1575 219 
Q 1963 219 2166 364 
Q 2369 509 2369 788 
Q 2369 1006 2220 1140 
Q 2072 1275 1594 1428 
L 1178 1569 
Q 750 1706 558 1912 
Q 366 2119 366 2438 
Q 366 2894 700 3153 
Q 1034 3413 1625 3413 
Q 1888 3413 2178 3344 
Q 2469 3275 2778 3144 
L 2778 2419 
L 2447 2419 
Q 2434 2741 2221 2922 
Q 2009 3103 1644 3103 
Q 1281 3103 1095 2975 
Q 909 2847 909 2591 
Q 909 2381 1050 2254 
Q 1191 2128 1613 1997 
L 2069 1856 
Q 2541 1709 2748 1489 
Q 2956 1269 2956 922 
Q 2956 450 2595 179 
Q 2234 -91 1600 -91 
Q 1278 -91 972 -22 
Q 666 47 359 184 
z
" transform="scale(0.015625)"/>
     <path id="DejaVuSerif-74" d="M 691 2988 
L 184 2988 
L 184 3322 
L 691 3322 
L 691 4353 
L 1269 4353 
L 1269 3322 
L 2350 3322 
L 2350 2988 
L 1269 2988 
L 1269 878 
Q 1269 456 1350 337 
Q 1431 219 1650 219 
Q 1875 219 1978 351 
Q 2081 484 2088 781 
L 2522 781 
Q 2497 328 2275 118 
Q 2053 -91 1600 -91 
Q 1103 -91 897 129 
Q 691 350 691 878 
L 691 2988 
z
" transform="scale(0.015625)"/>
     <path id="DejaVuSerif-61" d="M 2547 1044 
L 2547 1747 
L 1806 1747 
Q 1378 1747 1168 1562 
Q 959 1378 959 997 
Q 959 650 1171 447 
Q 1384 244 1747 244 
Q 2106 244 2326 466 
Q 2547 688 2547 1044 
z
M 3122 2075 
L 3122 331 
L 3634 331 
L 3634 0 
L 2547 0 
L 2547 359 
Q 2356 128 2106 18 
Q 1856 -91 1522 -91 
Q 969 -91 644 203 
Q 319 497 319 997 
Q 319 1513 691 1797 
Q 1063 2081 1741 2081 
L 2547 2081 
L 2547 2309 
Q 2547 2688 2317 2895 
Q 2088 3103 1672 3103 
Q 1328 3103 1125 2947 
Q 922 2791 872 2484 
L 575 2484 
L 575 3156 
Q 875 3284 1158 3348 
Q 1441 3413 1709 3413 
Q 2400 3413 2761 3070 
Q 3122 2728 3122 2075 
z
" transform="scale(0.015625)"/>
     <path id="DejaVuSerif-6e" d="M 263 0 
L 263 331 
L 781 331 
L 781 2988 
L 231 2988 
L 231 3322 
L 1356 3322 
L 1356 2731 
Q 1516 3069 1770 3241 
Q 2025 3413 2363 3413 
Q 2913 3413 3172 3097 
Q 3431 2781 3431 2113 
L 3431 331 
L 3944 331 
L 3944 0 
L 2356 0 
L 2356 331 
L 2853 331 
L 2853 1931 
Q 2853 2541 2703 2767 
Q 2553 2994 2175 2994 
Q 1775 2994 1565 2701 
Q 1356 2409 1356 1850 
L 1356 331 
L 1856 331 
L 1856 0 
L 263 0 
z
" transform="scale(0.015625)"/>
     <path id="DejaVuSerif-63" d="M 3291 997 
Q 3169 466 2822 187 
Q 2475 -91 1925 -91 
Q 1200 -91 759 389 
Q 319 869 319 1663 
Q 319 2459 759 2936 
Q 1200 3413 1925 3413 
Q 2241 3413 2553 3339 
Q 2866 3266 3181 3116 
L 3181 2266 
L 2847 2266 
Q 2781 2703 2561 2903 
Q 2341 3103 1931 3103 
Q 1466 3103 1228 2742 
Q 991 2381 991 1663 
Q 991 944 1227 581 
Q 1463 219 1931 219 
Q 2303 219 2525 412 
Q 2747 606 2828 997 
L 3291 997 
z
" transform="scale(0.015625)"/>
     <path id="DejaVuSerif-65" d="M 3469 1600 
L 991 1600 
L 991 1575 
Q 991 903 1244 561 
Q 1497 219 1991 219 
Q 2369 219 2611 417 
Q 2853 616 2950 1006 
L 3413 1006 
Q 3275 459 2904 184 
Q 2534 -91 1931 -91 
Q 1203 -91 761 389 
Q 319 869 319 1663 
Q 319 2450 753 2931 
Q 1188 3413 1894 3413 
Q 2647 3413 3050 2948 
Q 3453 2484 3469 1600 
z
M 2791 1931 
Q 2772 2513 2545 2808 
Q 2319 3103 1894 3103 
Q 1497 3103 1269 2806 
Q 1041 2509 991 1931 
L 2791 1931 
z
" transform="scale(0.015625)"/>
     <path id="DejaVuSerif-20" transform="scale(0.015625)"/>
     <path id="DejaVuSerif-28" d="M 2041 -997 
Q 1281 -656 893 83 
Q 506 822 506 1931 
Q 506 3044 893 3783 
Q 1281 4522 2041 4863 
L 2041 4556 
Q 1559 4225 1350 3623 
Q 1141 3022 1141 1931 
Q 1141 844 1350 242 
Q 1559 -359 2041 -691 
L 2041 -997 
z
" transform="scale(0.015625)"/>
     <path id="DejaVuSerif-6d" d="M 3316 2675 
Q 3481 3041 3739 3227 
Q 3997 3413 4341 3413 
Q 4863 3413 5119 3089 
Q 5375 2766 5375 2113 
L 5375 331 
L 5894 331 
L 5894 0 
L 4300 0 
L 4300 331 
L 4800 331 
L 4800 2047 
Q 4800 2556 4650 2772 
Q 4500 2988 4153 2988 
Q 3769 2988 3567 2697 
Q 3366 2406 3366 1850 
L 3366 331 
L 3866 331 
L 3866 0 
L 2291 0 
L 2291 331 
L 2791 331 
L 2791 2069 
Q 2791 2566 2641 2777 
Q 2491 2988 2144 2988 
Q 1759 2988 1557 2697 
Q 1356 2406 1356 1850 
L 1356 331 
L 1856 331 
L 1856 0 
L 263 0 
L 263 331 
L 781 331 
L 781 2994 
L 231 2994 
L 231 3322 
L 1356 3322 
L 1356 2731 
Q 1516 3063 1762 3238 
Q 2009 3413 2322 3413 
Q 2709 3413 2968 3220 
Q 3228 3028 3316 2675 
z
" transform="scale(0.015625)"/>
     <path id="DejaVuSerif-29" d="M 453 -997 
L 453 -691 
Q 934 -359 1145 242 
Q 1356 844 1356 1931 
Q 1356 3022 1145 3623 
Q 934 4225 453 4556 
L 453 4863 
Q 1216 4522 1603 3783 
Q 1991 3044 1991 1931 
Q 1991 822 1603 83 
Q 1216 -656 453 -997 
z
" transform="scale(0.015625)"/>
    </defs>
    <use xlink:href="#DejaVuSerif-44"/>
    <use xlink:href="#DejaVuSerif-69" x="80.175781"/>
    <use xlink:href="#DejaVuSerif-73" x="112.158203"/>
    <use xlink:href="#DejaVuSerif-74" x="163.476562"/>
    <use xlink:href="#DejaVuSerif-61" x="203.662109"/>
    <use xlink:href="#DejaVuSerif-6e" x="263.28125"/>
    <use xlink:href="#DejaVuSerif-63" x="327.685547"/>
    <use xlink:href="#DejaVuSerif-65" x="383.691406"/>
    <use xlink:href="#DejaVuSerif-20" x="442.871094"/>
    <use xlink:href="#DejaVuSerif-28" x="474.658203"/>
    <use xlink:href="#DejaVuSerif-6d" x="513.671875"/>
    <use xlink:href="#DejaVuSerif-29" x="608.496094"/>
   </g>
  </g>
  <g id="text_17">
   <!-- Reader-tag angle -->
   <g transform="translate(289.495892 97.727791) rotate(-315) scale(0.14 -0.14)">
    <defs>
     <path id="DejaVuSerif-52" d="M 3066 2316 
Q 3284 2256 3442 2114 
Q 3600 1972 3725 1716 
L 4403 331 
L 4972 331 
L 4972 0 
L 3872 0 
L 3144 1484 
Q 2934 1916 2759 2042 
Q 2584 2169 2278 2169 
L 1581 2169 
L 1581 331 
L 2241 331 
L 2241 0 
L 353 0 
L 353 331 
L 947 331 
L 947 4331 
L 353 4331 
L 353 4666 
L 2719 4666 
Q 3400 4666 3770 4341 
Q 4141 4016 4141 3419 
Q 4141 2938 3870 2661 
Q 3600 2384 3066 2316 
z
M 1581 2503 
L 2503 2503 
Q 2975 2503 3200 2726 
Q 3425 2950 3425 3419 
Q 3425 3888 3200 4109 
Q 2975 4331 2503 4331 
L 1581 4331 
L 1581 2503 
z
" transform="scale(0.015625)"/>
     <path id="DejaVuSerif-64" d="M 3359 331 
L 3909 331 
L 3909 0 
L 2784 0 
L 2784 519 
Q 2616 206 2355 57 
Q 2094 -91 1709 -91 
Q 1097 -91 708 395 
Q 319 881 319 1663 
Q 319 2444 706 2928 
Q 1094 3413 1709 3413 
Q 2094 3413 2355 3264 
Q 2616 3116 2784 2803 
L 2784 4531 
L 2241 4531 
L 2241 4863 
L 3359 4863 
L 3359 331 
z
M 2784 1497 
L 2784 1825 
Q 2784 2422 2554 2737 
Q 2325 3053 1888 3053 
Q 1444 3053 1217 2703 
Q 991 2353 991 1663 
Q 991 975 1217 622 
Q 1444 269 1888 269 
Q 2325 269 2554 583 
Q 2784 897 2784 1497 
z
" transform="scale(0.015625)"/>
     <path id="DejaVuSerif-72" d="M 3059 3328 
L 3059 2497 
L 2728 2497 
Q 2713 2744 2591 2866 
Q 2469 2988 2234 2988 
Q 1809 2988 1582 2694 
Q 1356 2400 1356 1850 
L 1356 331 
L 2022 331 
L 2022 0 
L 263 0 
L 263 331 
L 781 331 
L 781 2994 
L 231 2994 
L 231 3322 
L 1356 3322 
L 1356 2731 
Q 1525 3078 1790 3245 
Q 2056 3413 2438 3413 
Q 2578 3413 2733 3391 
Q 2888 3369 3059 3328 
z
" transform="scale(0.015625)"/>
     <path id="DejaVuSerif-2d" d="M 281 1959 
L 1881 1959 
L 1881 1472 
L 281 1472 
L 281 1959 
z
" transform="scale(0.015625)"/>
     <path id="DejaVuSerif-67" d="M 3359 2988 
L 3359 72 
Q 3359 -644 2965 -1033 
Q 2572 -1422 1844 -1422 
Q 1516 -1422 1216 -1362 
Q 916 -1303 641 -1184 
L 641 -488 
L 941 -488 
Q 997 -813 1206 -963 
Q 1416 -1113 1806 -1113 
Q 2313 -1113 2548 -827 
Q 2784 -541 2784 72 
L 2784 519 
Q 2616 206 2355 57 
Q 2094 -91 1709 -91 
Q 1097 -91 708 395 
Q 319 881 319 1663 
Q 319 2444 706 2928 
Q 1094 3413 1709 3413 
Q 2094 3413 2355 3264 
Q 2616 3116 2784 2803 
L 2784 3322 
L 3909 3322 
L 3909 2988 
L 3359 2988 
z
M 2784 1825 
Q 2784 2422 2554 2737 
Q 2325 3053 1888 3053 
Q 1444 3053 1217 2703 
Q 991 2353 991 1663 
Q 991 975 1217 622 
Q 1444 269 1888 269 
Q 2325 269 2554 583 
Q 2784 897 2784 1497 
L 2784 1825 
z
" transform="scale(0.015625)"/>
     <path id="DejaVuSerif-6c" d="M 1313 331 
L 1856 331 
L 1856 0 
L 184 0 
L 184 331 
L 738 331 
L 738 4531 
L 184 4531 
L 184 4863 
L 1313 4863 
L 1313 331 
z
" transform="scale(0.015625)"/>
    </defs>
    <use xlink:href="#DejaVuSerif-52"/>
    <use xlink:href="#DejaVuSerif-65" x="75.292969"/>
    <use xlink:href="#DejaVuSerif-61" x="134.472656"/>
    <use xlink:href="#DejaVuSerif-64" x="194.091797"/>
    <use xlink:href="#DejaVuSerif-65" x="258.105469"/>
    <use xlink:href="#DejaVuSerif-72" x="317.285156"/>
    <use xlink:href="#DejaVuSerif-2d" x="365.087891"/>
    <use xlink:href="#DejaVuSerif-74" x="398.876953"/>
    <use xlink:href="#DejaVuSerif-61" x="439.0625"/>
    <use xlink:href="#DejaVuSerif-67" x="498.681641"/>
    <use xlink:href="#DejaVuSerif-20" x="562.695312"/>
    <use xlink:href="#DejaVuSerif-61" x="594.482422"/>
    <use xlink:href="#DejaVuSerif-6e" x="654.101562"/>
    <use xlink:href="#DejaVuSerif-67" x="718.505859"/>
    <use xlink:href="#DejaVuSerif-6c" x="782.519531"/>
    <use xlink:href="#DejaVuSerif-65" x="814.501953"/>
   </g>
  </g>
  <g id="text_18">
   <!-- 40 μV @ 5.0 m → -->
   <g transform="translate(177.307306 419.688) scale(0.14 -0.14)">
    <defs>
     <path id="DejaVuSerif-3bc" d="M 2309 3322 
L 3384 3322 
L 3384 325 
L 3928 325 
L 3928 0 
L 2809 0 
L 2809 588 
Q 2647 256 2417 82 
Q 2188 -91 1906 -91 
Q 1728 -91 1581 -34 
Q 1434 22 1313 134 
L 1313 -1331 
L 738 -1331 
L 738 2988 
L 219 2988 
L 219 3322 
L 1313 3322 
L 1313 1388 
Q 1313 781 1463 556 
Q 1613 331 1991 331 
Q 2391 331 2600 625 
Q 2809 919 2809 1478 
L 2809 2988 
L 2309 2988 
L 2309 3322 
z
" transform="scale(0.015625)"/>
     <path id="DejaVuSerif-56" d="M 1119 4331 
L 2497 750 
L 3872 4331 
L 3347 4331 
L 3347 4666 
L 4716 4666 
L 4716 4331 
L 4263 4331 
L 2597 0 
L 2059 0 
L 403 4331 
L -63 4331 
L -63 4666 
L 1638 4666 
L 1638 4331 
L 1119 4331 
z
" transform="scale(0.015625)"/>
     <path id="DejaVuSerif-40" d="M 4044 775 
Q 3859 519 3629 394 
Q 3400 269 3109 269 
Q 2563 269 2222 659 
Q 1881 1050 1881 1678 
Q 1881 2306 2222 2695 
Q 2563 3084 3109 3084 
Q 3400 3084 3629 2959 
Q 3859 2834 4044 2578 
L 4044 3022 
L 4531 3022 
L 4531 609 
Q 5063 725 5356 1115 
Q 5650 1506 5650 2094 
Q 5650 2441 5544 2750 
Q 5438 3059 5228 3322 
Q 4897 3738 4420 3958 
Q 3944 4178 3384 4178 
Q 3103 4178 2828 4118 
Q 2553 4059 2284 3938 
Q 1653 3647 1303 3058 
Q 953 2469 953 1697 
Q 953 1175 1109 736 
Q 1266 297 1563 -25 
Q 1903 -397 2370 -592 
Q 2838 -788 3378 -788 
Q 3781 -788 4131 -669 
Q 4481 -550 4781 -313 
L 4947 -531 
Q 4609 -822 4181 -967 
Q 3753 -1113 3244 -1113 
Q 2672 -1113 2151 -905 
Q 1631 -697 1241 -313 
Q 838 84 630 595 
Q 422 1106 422 1697 
Q 422 2272 631 2781 
Q 841 3291 1241 3688 
Q 1638 4081 2177 4293 
Q 2716 4506 3322 4506 
Q 3991 4506 4542 4247 
Q 5094 3988 5466 3500 
Q 5703 3194 5825 2834 
Q 5947 2475 5947 2088 
Q 5947 1250 5437 764 
Q 4928 278 4047 269 
L 4044 775 
z
M 4044 1516 
L 4044 1844 
Q 4044 2234 3820 2476 
Q 3597 2719 3238 2719 
Q 2859 2719 2648 2445 
Q 2438 2172 2438 1678 
Q 2438 1181 2650 907 
Q 2863 634 3244 634 
Q 3600 634 3822 879 
Q 4044 1125 4044 1516 
z
" transform="scale(0.015625)"/>
     <path id="DejaVuSerif-2192" d="M 366 2322 
L 4391 2322 
L 3788 3375 
L 3822 3375 
L 5125 2084 
L 5125 2053 
L 3822 763 
L 3788 763 
L 4391 1816 
L 366 1816 
L 366 2322 
z
" transform="scale(0.015625)"/>
    </defs>
    <use xlink:href="#DejaVuSerif-34"/>
    <use xlink:href="#DejaVuSerif-30" x="63.623047"/>
    <use xlink:href="#DejaVuSerif-20" x="127.246094"/>
    <use xlink:href="#DejaVuSerif-3bc" x="159.033203"/>
    <use xlink:href="#DejaVuSerif-56" x="224.023438"/>
    <use xlink:href="#DejaVuSerif-20" x="296.240234"/>
    <use xlink:href="#DejaVuSerif-40" x="328.027344"/>
    <use xlink:href="#DejaVuSerif-20" x="428.027344"/>
    <use xlink:href="#DejaVuSerif-35" x="459.814453"/>
    <use xlink:href="#DejaVuSerif-2e" x="523.4375"/>
    <use xlink:href="#DejaVuSerif-30" x="555.224609"/>
    <use xlink:href="#DejaVuSerif-20" x="618.847656"/>
    <use xlink:href="#DejaVuSerif-6d" x="650.634766"/>
    <use xlink:href="#DejaVuSerif-20" x="745.458984"/>
    <use xlink:href="#DejaVuSerif-2192" x="777.246094"/>
   </g>
  </g>
  <g id="text_19">
   <!-- 40 μV @ 6.9 m → -->
   <g transform="translate(182.838018 257.127781) rotate(-60) scale(0.14 -0.14)">
    <use xlink:href="#DejaVuSerif-34"/>
    <use xlink:href="#DejaVuSerif-30" x="63.623047"/>
    <use xlink:href="#DejaVuSerif-20" x="127.246094"/>
    <use xlink:href="#DejaVuSerif-3bc" x="159.033203"/>
    <use xlink:href="#DejaVuSerif-56" x="224.023438"/>
    <use xlink:href="#DejaVuSerif-20" x="296.240234"/>
    <use xlink:href="#DejaVuSerif-40" x="328.027344"/>
    <use xlink:href="#DejaVuSerif-20" x="428.027344"/>
    <use xlink:href="#DejaVuSerif-36" x="459.814453"/>
    <use xlink:href="#DejaVuSerif-2e" x="523.4375"/>
    <use xlink:href="#DejaVuSerif-39" x="555.224609"/>
    <use xlink:href="#DejaVuSerif-20" x="618.847656"/>
    <use xlink:href="#DejaVuSerif-6d" x="650.634766"/>
    <use xlink:href="#DejaVuSerif-20" x="745.458984"/>
    <use xlink:href="#DejaVuSerif-2192" x="777.246094"/>
   </g>
  </g>
 </g>
 <defs>
  <clipPath id="p889a146980">
   <path d="M 419.256 424.125 
C 419.256 328.411674 381.193475 236.520609 313.513933 168.841067 
C 245.834391 101.161525 153.943326 63.099 58.23 63.099 
L 58.23 424.125 
C 58.23 424.125 58.23 424.125 58.23 424.125 
C 58.23 424.125 58.23 424.125 58.23 424.125 
z
"/>
  </clipPath>
 </defs>
</svg>
