<?xml version="1.0" encoding="utf-8" standalone="no"?>
<!DOCTYPE svg PUBLIC "-//W3C//DTD SVG 1.1//EN"
  "http://www.w3.org/Graphics/SVG/1.1/DTD/svg11.dtd">
<svg xmlns:xlink="http://www.w3.org/1999/xlink" width="442.08pt" height="482.4pt" viewBox="0 0 442.08 482.4" xmlns="http://www.w3.org/2000/svg" version="1.1">
 <metadata>
  <rdf:RDF xmlns:dc="http://purl.org/dc/elements/1.1/" xmlns:cc="http://creativecommons.org/ns#" xmlns:rdf="http://www.w3.org/1999/02/22-rdf-syntax-ns#">
   <cc:Work>
    <dc:type rdf:resource="http://purl.org/dc/dcmitype/StillImage"/>
    <dc:date>2023-03-25T20:08:37.353587</dc:date>
    <dc:format>image/svg+xml</dc:format>
    <dc:creator>
     <cc:Agent>
      <dc:title>Matplotlib v3.7.1, https://matplotlib.org/</dc:title>
     </cc:Agent>
    </dc:creator>
   </cc:Work>
  </rdf:RDF>
 </metadata>
 <defs>
  <style type="text/css">*{stroke-linejoin: round; stroke-linecap: butt}</style>
 </defs>
 <g id="figure_1">
  <g id="patch_1">
   <path d="M 0 482.4 
L 442.08 482.4 
L 442.08 0 
L 0 0 
L 0 482.4 
z
" style="fill: none"/>
  </g>
  <g id="axes_1">
   <g id="patch_2">
    <path d="M 409.894375 434.986563 
C 409.894375 332.235201 369.033019 233.587162 296.376835 160.930978 
C 223.720651 88.274793 125.072611 47.413437 22.32125 47.413437 
L 22.32125 434.986563 
C 22.32125 434.986563 22.32125 434.986563 22.32125 434.986563 
C 22.32125 434.986563 22.32125 434.986563 22.32125 434.986563 
L 409.894375 434.986563 
z
" style="fill: none"/>
   </g>
   <g id="PolyCollection_1">
    <defs>
     <path id="m23e5380264" d="M 390.51802 -47.413438 
L 22.32125 -47.413438 
L 22.32125 -47.413438 
L 22.32125 -47.413438 
L 22.32125 -47.413438 
L 22.32125 -47.413438 
L 22.32125 -47.413438 
L 22.32125 -47.413438 
L 22.32125 -47.413438 
L 22.32125 -47.413438 
L 22.32125 -47.413438 
L 22.32125 -47.413438 
L 22.32125 -47.413438 
L 22.32125 -47.413438 
L 22.32125 -47.413438 
L 22.32125 -47.413438 
L 22.32125 -47.413438 
L 22.32125 -47.413438 
L 22.32125 -47.413438 
L 22.32125 -47.413438 
L 22.32125 -47.413438 
L 22.32125 -47.413438 
L 22.32125 -47.413438 
L 22.32125 -47.413438 
L 22.32125 -47.413438 
L 22.32125 -47.413438 
L 22.32125 -47.413438 
L 22.32125 -47.413438 
L 22.32125 -47.413438 
L 22.32125 -47.413438 
L 22.32125 -47.413438 
L 22.32125 -47.413438 
L 22.32125 -47.413438 
L 22.32125 -47.413438 
L 22.32125 -47.413438 
L 22.32125 -47.413438 
L 22.32125 -47.413438 
L 22.32125 -47.413438 
L 22.32125 -47.413438 
L 22.32125 -47.413438 
L 22.32125 -47.413438 
L 22.32125 -47.413438 
L 22.32125 -47.413438 
L 22.32125 -47.413438 
L 22.32125 -47.413438 
L 22.32125 -47.413438 
L 22.32125 -47.413438 
L 22.32125 -47.413438 
L 22.32125 -47.413438 
L 22.32125 -47.413438 
L 22.32125 -47.413438 
L 22.32125 -47.413438 
L 22.32125 -47.413438 
L 22.32125 -47.413438 
L 22.32125 -47.413438 
L 22.32125 -47.413438 
L 22.32125 -47.413438 
L 22.32125 -47.413438 
L 22.32125 -47.413438 
L 22.32125 -47.413438 
L 22.32125 -47.413438 
L 22.32125 -47.413438 
L 22.32125 -47.413438 
L 22.32125 -47.413438 
L 22.32125 -47.413438 
L 22.32125 -47.413438 
L 22.32125 -47.413438 
L 22.32125 -47.413438 
L 22.32125 -47.413438 
L 22.32125 -47.413438 
L 22.32125 -47.413438 
L 22.32125 -47.413438 
L 22.32125 -47.413438 
L 22.32125 -47.413438 
L 22.32125 -47.413438 
L 22.32125 -47.413438 
L 22.32125 -47.413438 
L 22.32125 -47.413438 
L 22.32125 -47.413438 
L 22.32125 -47.413438 
L 22.32125 -47.413438 
L 22.32125 -47.413438 
L 22.32125 -47.413438 
L 22.32125 -47.413438 
L 22.32125 -47.413438 
L 22.32125 -47.413438 
L 22.32125 -47.413438 
L 22.32125 -47.413438 
L 22.32125 -47.413438 
L 22.32125 -47.413438 
L 22.32125 -47.413438 
L 22.32125 -47.413438 
L 22.32125 -47.413438 
L 22.32125 -47.413438 
L 22.32125 -47.413438 
L 22.32125 -47.413438 
L 22.32125 -47.413438 
L 22.32125 -47.413438 
L 22.32125 -47.413438 
L 22.32125 -47.413438 
L 22.32125 -47.413438 
L 22.32125 -47.413438 
L 22.32125 -47.413438 
L 22.32125 -47.413438 
L 22.32125 -47.413438 
L 22.32125 -47.413438 
L 22.32125 -47.413438 
L 22.32125 -47.413438 
L 22.32125 -47.413438 
L 22.32125 -47.413438 
L 22.32125 -47.413438 
L 22.32125 -47.413438 
L 22.32125 -47.413438 
L 22.32125 -47.413438 
L 22.32125 -47.413438 
L 22.32125 -47.413438 
L 22.32125 -47.413438 
L 22.32125 -47.413438 
L 22.32125 -47.413438 
L 22.32125 -47.413438 
L 22.32125 -47.413438 
L 22.32125 -47.413438 
L 22.32125 -47.413438 
L 22.32125 -47.413438 
L 22.32125 -47.413438 
L 22.32125 -47.413438 
L 22.32125 -47.413438 
L 22.32125 -47.413438 
L 22.32125 -47.413438 
L 22.32125 -47.413438 
L 22.32125 -47.413438 
L 22.32125 -47.413438 
L 22.32125 -47.413438 
L 22.32125 -47.413438 
L 22.32125 -47.413438 
L 22.32125 -47.413438 
L 22.32125 -47.413438 
L 22.32125 -47.413438 
L 22.32125 -47.413438 
L 22.32125 -47.413438 
L 22.32125 -47.413438 
L 22.32125 -47.413438 
L 22.32125 -47.413438 
L 22.32125 -47.413438 
L 22.32125 -47.413438 
L 22.32125 -47.413438 
L 22.32125 -47.413438 
L 22.32125 -47.413438 
L 22.32125 -47.413438 
L 22.32125 -47.413438 
L 22.32125 -47.413438 
L 22.32125 -47.413438 
L 22.32125 -47.413438 
L 22.32125 -47.413438 
L 22.32125 -47.413438 
L 22.32125 -47.413438 
L 22.32125 -47.413438 
L 22.32125 -47.413438 
L 22.32125 -47.413438 
L 22.32125 -47.413438 
L 22.32125 -47.413438 
L 22.32125 -47.413438 
L 22.32125 -47.413438 
L 22.32125 -47.413438 
L 22.32125 -47.413438 
L 22.32125 -47.413438 
L 22.32125 -47.413438 
L 22.32125 -47.413438 
L 22.32125 -47.413438 
L 22.32125 -47.413438 
L 22.32125 -47.413438 
L 22.32125 -47.413438 
L 22.32125 -47.413438 
L 22.32125 -47.413438 
L 22.32125 -47.413438 
L 22.32125 -47.413438 
L 22.32125 -47.413438 
L 22.32125 -47.413438 
L 22.32125 -47.413438 
L 22.32125 -47.413438 
L 22.32125 -47.413438 
L 22.32125 -47.413438 
L 22.32125 -47.413438 
L 22.32125 -47.413438 
L 22.32125 -47.413438 
L 22.32125 -47.413438 
L 22.32125 -47.413438 
L 22.32125 -47.413438 
L 22.32125 -47.413438 
L 22.32125 -47.413438 
L 22.32125 -47.413438 
L 22.32125 -47.413438 
L 22.32125 -47.413438 
L 22.32125 -47.413438 
L 22.32125 -47.413438 
L 22.32125 -47.413438 
L 22.32125 -47.413438 
L 22.32125 -47.413438 
L 22.32125 -47.413438 
L 22.32125 -47.413438 
L 22.32125 -47.413438 
L 22.32125 -47.413438 
L 22.32125 -47.413438 
L 22.32125 -47.413438 
L 22.32125 -47.413438 
L 22.32125 -47.413438 
L 22.32125 -47.413438 
L 22.32125 -47.413438 
L 22.32125 -47.413438 
L 22.32125 -47.413438 
L 22.32125 -47.413438 
L 22.32125 -47.413438 
L 22.32125 -47.413438 
L 22.32125 -47.413438 
L 22.32125 -47.413438 
L 22.32125 -47.413438 
L 22.32125 -47.413438 
L 22.32125 -47.413438 
L 22.32125 -47.413438 
L 22.32125 -47.413438 
L 22.32125 -47.413438 
L 22.32125 -47.413438 
L 22.32125 -47.413438 
L 22.32125 -47.413438 
L 22.32125 -47.413438 
L 22.32125 -47.413438 
L 22.32125 -47.413438 
L 22.32125 -47.413438 
L 22.32125 -47.413438 
L 22.32125 -47.413438 
L 22.32125 -47.413438 
L 22.32125 -47.413438 
L 22.32125 -47.413438 
L 22.32125 -47.413438 
L 22.32125 -47.413438 
L 22.32125 -47.413438 
L 22.32125 -47.413438 
L 22.32125 -47.413438 
L 22.32125 -47.413438 
L 22.32125 -47.413438 
L 22.32125 -47.413438 
L 22.32125 -47.413438 
L 22.32125 -47.413438 
L 22.32125 -47.413438 
L 22.32125 -47.413438 
L 22.32125 -47.413438 
L 22.32125 -47.413438 
L 22.32125 -47.413438 
L 22.32125 -47.413438 
L 22.32125 -47.413438 
L 22.32125 -47.413438 
L 22.32125 -47.413438 
L 22.32125 -47.413438 
L 22.32125 -47.413438 
L 22.32125 -47.413438 
L 22.32125 -47.413438 
L 22.32125 -47.413438 
L 22.32125 -47.413438 
L 22.32125 -47.413438 
L 22.32125 -47.413438 
L 22.32125 -47.413438 
L 22.32125 -47.413438 
L 22.32125 -47.413438 
L 22.32125 -47.413438 
L 22.32125 -47.413438 
L 22.32125 -47.413438 
L 22.32125 -47.413438 
L 22.32125 -47.413438 
L 22.32125 -47.413438 
L 22.32125 -47.413438 
L 22.32125 -47.413438 
L 22.32125 -47.413438 
L 22.32125 -47.413438 
L 22.32125 -47.413438 
L 22.32125 -47.413438 
L 22.32125 -47.413438 
L 22.32125 -47.413438 
L 22.32125 -47.413438 
L 22.32125 -47.413438 
L 22.32125 -47.413438 
L 22.32125 -47.413438 
L 22.32125 -47.413438 
L 22.32125 -47.413438 
L 22.32125 -47.413438 
L 22.32125 -47.413438 
L 22.32125 -47.413438 
L 22.32125 -47.413438 
L 22.32125 -47.413438 
L 22.32125 -47.413438 
L 22.32125 -47.413438 
L 22.32125 -47.413438 
L 22.32125 -47.413438 
L 22.32125 -47.413438 
L 22.32125 -47.413438 
L 22.32125 -47.413438 
L 22.32125 -47.413438 
L 22.32125 -47.413438 
L 22.32125 -47.413438 
L 22.32125 -47.413438 
L 22.32125 -47.413438 
L 22.32125 -47.413438 
L 22.32125 -47.413438 
L 22.32125 -47.413438 
L 22.32125 -47.413438 
L 22.32125 -47.413438 
L 22.32125 -47.413438 
L 22.32125 -47.413438 
L 22.32125 -47.413438 
L 22.32125 -47.413438 
L 22.32125 -47.413438 
L 22.32125 -47.413438 
L 22.32125 -47.413438 
L 22.32125 -47.413438 
L 22.32125 -47.413438 
L 22.32125 -47.413438 
L 22.32125 -47.413438 
L 22.32125 -47.413438 
L 22.32125 -47.413438 
L 22.32125 -47.413438 
L 22.32125 -47.413438 
L 22.32125 -47.413438 
L 22.32125 -47.413438 
L 22.32125 -47.413438 
L 22.32125 -47.413438 
L 22.32125 -47.413438 
L 22.32125 -47.413438 
L 22.32125 -47.413438 
L 22.32125 -47.413438 
L 22.32125 -47.413438 
L 22.32125 -47.413438 
L 22.32125 -47.413438 
L 22.32125 -47.413438 
L 22.32125 -47.413438 
L 22.32125 -47.413438 
L 22.32125 -47.413438 
L 22.32125 -47.413438 
L 22.32125 -47.413438 
L 22.32125 -47.413438 
L 22.32125 -47.413438 
L 22.32125 -47.413438 
L 22.32125 -47.413438 
L 22.32125 -47.413438 
L 22.32125 -47.413438 
L 22.32125 -47.413438 
L 22.32125 -47.413438 
L 22.32125 -47.413438 
L 22.32125 -47.413438 
L 22.32125 -47.413438 
L 22.32125 -47.413438 
L 22.32125 -47.413438 
L 22.32125 -47.413438 
L 22.32125 -47.413438 
L 22.32125 -47.413438 
L 22.32125 -47.413438 
L 22.32125 -47.413438 
L 22.32125 -47.413438 
L 22.32125 -47.413438 
L 22.32125 -47.413438 
L 22.32125 -47.413438 
L 22.32125 -47.413438 
L 22.32125 -47.413438 
L 22.32125 -47.413438 
L 22.32125 -47.413438 
L 22.32125 -47.413438 
L 22.32125 -47.413438 
L 22.32125 -47.413438 
L 22.32125 -47.413438 
L 22.32125 -47.413438 
L 22.32125 -47.413438 
L 22.32125 -47.413438 
L 22.32125 -47.413438 
L 22.32125 -47.413438 
L 22.32125 -47.413438 
L 22.32125 -47.413438 
L 22.32125 -47.413438 
L 22.32125 -47.413438 
L 22.32125 -47.413438 
L 22.32125 -47.413438 
L 22.32125 -47.413438 
L 22.32125 -47.413438 
L 22.32125 -47.413438 
L 22.32125 -47.413438 
L 22.32125 -47.413438 
L 22.32125 -47.413438 
L 22.32125 -47.413438 
L 22.32125 -47.413438 
L 22.32125 -47.413438 
L 22.32125 -47.413438 
L 22.32125 -47.413438 
L 22.32125 -47.413438 
L 22.32125 -47.413438 
L 22.32125 -47.413438 
L 22.32125 -47.413438 
L 22.32125 -47.413438 
L 22.32125 -47.413438 
L 22.32125 -47.413438 
L 22.32125 -47.413438 
L 22.32125 -47.413438 
L 22.32125 -47.413438 
L 22.32125 -47.413438 
L 22.32125 -47.413438 
L 22.32125 -47.413438 
L 22.32125 -47.413438 
L 22.32125 -47.413438 
L 22.32125 -47.413438 
L 22.32125 -47.413438 
L 22.32125 -47.413438 
L 22.32125 -47.413438 
L 22.32125 -47.413438 
L 22.32125 -47.413438 
L 22.32125 -47.413438 
L 22.32125 -47.413438 
L 22.32125 -47.413438 
L 22.32125 -47.413438 
L 22.32125 -47.413438 
L 22.32125 -47.413438 
L 22.32125 -47.413438 
L 22.32125 -47.413438 
L 22.32125 -47.413438 
L 22.32125 -47.413438 
L 22.32125 -47.413438 
L 22.32125 -47.413438 
L 22.32125 -47.413438 
L 22.32125 -47.413438 
L 22.32125 -47.413438 
L 22.32125 -47.413438 
L 22.32125 -47.413438 
L 22.32125 -47.413438 
L 22.32125 -47.413438 
L 22.32125 -47.413438 
L 22.32125 -47.413438 
L 22.32125 -47.413438 
L 22.32125 -47.413438 
L 22.32125 -47.413438 
L 22.32125 -47.413438 
L 22.32125 -47.413438 
L 22.32125 -47.413438 
L 22.32125 -47.413438 
L 22.32125 -47.413438 
L 22.32125 -47.413438 
L 22.32125 -47.413438 
L 22.32125 -47.413438 
L 22.32125 -47.413438 
L 22.32125 -47.413438 
L 22.32125 -47.413438 
L 22.32125 -47.413438 
L 22.32125 -47.413438 
L 22.32125 -47.413438 
L 22.32125 -47.413438 
L 22.32125 -47.413438 
L 22.32125 -47.413438 
L 22.32125 -47.413438 
L 22.32125 -47.413438 
L 22.32125 -47.413438 
L 22.32125 -47.413438 
L 22.32125 -47.413438 
L 22.32125 -47.413438 
L 22.32125 -47.413438 
L 22.32125 -47.413438 
L 22.32125 -47.413438 
L 22.32125 -47.413438 
L 22.32125 -47.413438 
L 22.32125 -47.413438 
L 22.32125 -47.413438 
L 22.32125 -47.413438 
L 22.32125 -47.413438 
L 22.32125 -47.413438 
L 22.32125 -47.413438 
L 22.32125 -47.413438 
L 22.32125 -47.413438 
L 22.32125 -47.413438 
L 22.32125 -47.413438 
L 22.32125 -47.413438 
L 22.32125 -47.413438 
L 22.32125 -47.413438 
L 22.32125 -47.413438 
L 22.32125 -47.413438 
L 22.32125 -47.413438 
L 22.32125 -47.413438 
L 22.32125 -47.413438 
L 22.32125 -47.413438 
L 22.32125 -47.413438 
L 22.32125 -47.413438 
L 22.32125 -47.413438 
L 22.32125 -47.413438 
L 22.32125 -47.413438 
L 22.32125 -47.413438 
L 22.32125 -47.413438 
L 22.32125 -47.413438 
L 22.32125 -47.413438 
L 22.32125 -47.413438 
L 22.32125 -47.413438 
L 22.32125 -47.413438 
L 22.32125 -47.413438 
L 22.32125 -47.413438 
L 22.32125 -47.413438 
L 22.32125 -47.413438 
L 22.32125 -47.413438 
L 22.32125 -47.413438 
L 22.32125 -47.413438 
L 22.32125 -47.413438 
L 22.32125 -305.151176 
L 22.32125 -305.151176 
L 23.132783 -305.214962 
L 23.944724 -305.277195 
L 24.757074 -305.337875 
L 25.569836 -305.397006 
L 26.383009 -305.454589 
L 27.196597 -305.510626 
L 28.0106 -305.565118 
L 28.82502 -305.618069 
L 29.639859 -305.66948 
L 30.455119 -305.719352 
L 31.270801 -305.767687 
L 32.086907 -305.814487 
L 32.90344 -305.859753 
L 33.720401 -305.903488 
L 34.537791 -305.945693 
L 35.355613 -305.986369 
L 36.17387 -306.025517 
L 36.992562 -306.06314 
L 37.811692 -306.099239 
L 38.631263 -306.133815 
L 39.451275 -306.166869 
L 40.271733 -306.198404 
L 41.092637 -306.228419 
L 41.91399 -306.256916 
L 42.735795 -306.283897 
L 43.558053 -306.309363 
L 44.380767 -306.333314 
L 45.20394 -306.355752 
L 46.027574 -306.376678 
L 46.851672 -306.396092 
L 47.676235 -306.413997 
L 48.501267 -306.430391 
L 49.32677 -306.445277 
L 50.152747 -306.458656 
L 50.9792 -306.470527 
L 51.806132 -306.480892 
L 52.633546 -306.489751 
L 53.461445 -306.497105 
L 54.289831 -306.502954 
L 55.118708 -306.507299 
L 55.948077 -306.510141 
L 56.777943 -306.51148 
L 57.608307 -306.511315 
L 58.439173 -306.509649 
L 59.270544 -306.50648 
L 60.102423 -306.501809 
L 60.934812 -306.495636 
L 61.767716 -306.487962 
L 62.601136 -306.478786 
L 63.435076 -306.468108 
L 64.26954 -306.455929 
L 65.10453 -306.442248 
L 65.94005 -306.427065 
L 66.776103 -306.410381 
L 67.612692 -306.392194 
L 68.44982 -306.372505 
L 69.287491 -306.351313 
L 70.125708 -306.328618 
L 70.964475 -306.304419 
L 71.803794 -306.278716 
L 72.64367 -306.251508 
L 73.484105 -306.222796 
L 74.325103 -306.192577 
L 75.166668 -306.160852 
L 76.008804 -306.127619 
L 76.851512 -306.092878 
L 77.694799 -306.056628 
L 78.538666 -306.018869 
L 79.383117 -305.979598 
L 80.228156 -305.938816 
L 81.073787 -305.89652 
L 81.920013 -305.85271 
L 82.766839 -305.807385 
L 83.614267 -305.760544 
L 84.462301 -305.712184 
L 85.310946 -305.662305 
L 86.160205 -305.610906 
L 87.010081 -305.557984 
L 87.860579 -305.503539 
L 88.711702 -305.447568 
L 89.563454 -305.39007 
L 90.415839 -305.331044 
L 91.268861 -305.270487 
L 92.122524 -305.208398 
L 92.976832 -305.144775 
L 93.831788 -305.079615 
L 94.687396 -305.012918 
L 95.543661 -304.94468 
L 96.400586 -304.8749 
L 97.258176 -304.803575 
L 98.116434 -304.730704 
L 98.975364 -304.656284 
L 99.834971 -304.580312 
L 100.695258 -304.502786 
L 101.556229 -304.423704 
L 102.417888 -304.343063 
L 103.28024 -304.260861 
L 104.143289 -304.177095 
L 105.007038 -304.091761 
L 105.871492 -304.004858 
L 106.736654 -303.916382 
L 107.60253 -303.826331 
L 108.469122 -303.734702 
L 109.336435 -303.641491 
L 110.204474 -303.546695 
L 111.073242 -303.450311 
L 111.942743 -303.352337 
L 112.812982 -303.252768 
L 113.683963 -303.151601 
L 114.555689 -303.048834 
L 115.428165 -302.944461 
L 116.301396 -302.838481 
L 117.175385 -302.730889 
L 118.050136 -302.621681 
L 118.925655 -302.510854 
L 119.801944 -302.398404 
L 120.679008 -302.284327 
L 121.556851 -302.16862 
L 122.435477 -302.051277 
L 123.314891 -301.932296 
L 124.195097 -301.811671 
L 125.076099 -301.6894 
L 125.957901 -301.565477 
L 126.840507 -301.439898 
L 127.723921 -301.312658 
L 128.608148 -301.183754 
L 129.493192 -301.053181 
L 130.379056 -300.920934 
L 131.265746 -300.787008 
L 132.153265 -300.6514 
L 133.041617 -300.514103 
L 133.930806 -300.375113 
L 134.820838 -300.234425 
L 135.711715 -300.092035 
L 136.603442 -299.947937 
L 137.496023 -299.802125 
L 138.389462 -299.654596 
L 139.283764 -299.505343 
L 140.178931 -299.354361 
L 141.074969 -299.201645 
L 141.971882 -299.047189 
L 142.869673 -298.890988 
L 143.768347 -298.733036 
L 144.667908 -298.573328 
L 145.568359 -298.411858 
L 146.469705 -298.248619 
L 147.37195 -298.083607 
L 148.275097 -297.916814 
L 149.179152 -297.748236 
L 150.084117 -297.577866 
L 150.989996 -297.405698 
L 151.896794 -297.231725 
L 152.804515 -297.055942 
L 153.713162 -296.878342 
L 154.62274 -296.698918 
L 155.533252 -296.517665 
L 156.444702 -296.334575 
L 157.357094 -296.149642 
L 158.270431 -295.96286 
L 159.184718 -295.774221 
L 160.099959 -295.583719 
L 161.016157 -295.391346 
L 161.933315 -295.197096 
L 162.851439 -295.000962 
L 163.77053 -294.802937 
L 164.690594 -294.603013 
L 165.611633 -294.401183 
L 166.533642 -294.197425 
L 167.456615 -293.991712 
L 168.380541 -293.784017 
L 169.305411 -293.574311 
L 170.231216 -293.362567 
L 171.157947 -293.148757 
L 172.085592 -292.932853 
L 173.014141 -292.714829 
L 173.943585 -292.494656 
L 174.873911 -292.272307 
L 175.805109 -292.047756 
L 176.737168 -291.820975 
L 177.670074 -291.591938 
L 178.603818 -291.360617 
L 179.538385 -291.126986 
L 180.473764 -290.891018 
L 181.409942 -290.652686 
L 182.346905 -290.411965 
L 183.284641 -290.168829 
L 184.223135 -289.92325 
L 185.162373 -289.675203 
L 186.102342 -289.424662 
L 187.043027 -289.171601 
L 187.984413 -288.915995 
L 188.926485 -288.657818 
L 189.869228 -288.397044 
L 190.812627 -288.13365 
L 191.756665 -287.867608 
L 192.701327 -287.598895 
L 193.646596 -287.327486 
L 194.592455 -287.053355 
L 195.538889 -286.776479 
L 196.485879 -286.496833 
L 197.433408 -286.214392 
L 198.38146 -285.929133 
L 199.330015 -285.641032 
L 200.279057 -285.350064 
L 201.228566 -285.056206 
L 202.178524 -284.759436 
L 203.128912 -284.459728 
L 204.079711 -284.157061 
L 205.030901 -283.85141 
L 205.982464 -283.542754 
L 206.934379 -283.23107 
L 207.886626 -282.916334 
L 208.839185 -282.598526 
L 209.792036 -282.277621 
L 210.745157 -281.9536 
L 211.698527 -281.626438 
L 212.652126 -281.296116 
L 213.605931 -280.962612 
L 214.559921 -280.625903 
L 215.514075 -280.28597 
L 216.468369 -279.942791 
L 217.422781 -279.596345 
L 218.377289 -279.246612 
L 219.33187 -278.893571 
L 220.2865 -278.537203 
L 221.241157 -278.177487 
L 222.195817 -277.814403 
L 223.150455 -277.447932 
L 224.105049 -277.078054 
L 225.059573 -276.704751 
L 226.014004 -276.328002 
L 226.968316 -275.94779 
L 227.922484 -275.564096 
L 228.876485 -275.176901 
L 229.830292 -274.786186 
L 230.783879 -274.391935 
L 231.737222 -273.994129 
L 232.690293 -273.592751 
L 233.643068 -273.187783 
L 234.595519 -272.779208 
L 235.54762 -272.36701 
L 236.499345 -271.951171 
L 237.450666 -271.531675 
L 238.401556 -271.108505 
L 239.351988 -270.681646 
L 240.301934 -270.251082 
L 241.251367 -269.816797 
L 242.200258 -269.378776 
L 243.14858 -268.937003 
L 244.096303 -268.491464 
L 245.043401 -268.042144 
L 245.989843 -267.589029 
L 246.935602 -267.132103 
L 247.880647 -266.671354 
L 248.82495 -266.206768 
L 249.768481 -265.73833 
L 250.711211 -265.266028 
L 251.65311 -264.789848 
L 252.594148 -264.309779 
L 253.534295 -263.825806 
L 254.47352 -263.337919 
L 255.411793 -262.846104 
L 256.349084 -262.35035 
L 257.285361 -261.850646 
L 258.220594 -261.346979 
L 259.154751 -260.83934 
L 260.087801 -260.327717 
L 261.019713 -259.812099 
L 261.950455 -259.292477 
L 262.879995 -258.76884 
L 263.808302 -258.241178 
L 264.735342 -257.709482 
L 265.661085 -257.173743 
L 266.585498 -256.633951 
L 267.508547 -256.090098 
L 268.430201 -255.542176 
L 269.350426 -254.990175 
L 270.26919 -254.434089 
L 271.18646 -253.873909 
L 272.102202 -253.309628 
L 273.016382 -252.741239 
L 273.928968 -252.168734 
L 274.839926 -251.592109 
L 275.749221 -251.011355 
L 276.656821 -250.426466 
L 277.56269 -249.837438 
L 278.466795 -249.244265 
L 279.369102 -248.646941 
L 280.269576 -248.045461 
L 281.168182 -247.439821 
L 282.064886 -246.830017 
L 282.959653 -246.216043 
L 283.852449 -245.597897 
L 284.743237 -244.975575 
L 285.631984 -244.349073 
L 286.518654 -243.718389 
L 287.403211 -243.083519 
L 288.28562 -242.444463 
L 289.165846 -241.801216 
L 290.043853 -241.153778 
L 290.919606 -240.502147 
L 291.793067 -239.846321 
L 292.664202 -239.186301 
L 293.532975 -238.522084 
L 294.399349 -237.853672 
L 295.263289 -237.181063 
L 296.124757 -236.504257 
L 296.983718 -235.823257 
L 297.840134 -235.138061 
L 298.693971 -234.448672 
L 299.54519 -233.755091 
L 300.393756 -233.057319 
L 301.239631 -232.355359 
L 302.082779 -231.649212 
L 302.923163 -230.938882 
L 303.760746 -230.224371 
L 304.59549 -229.505683 
L 305.427359 -228.782822 
L 306.256316 -228.05579 
L 307.082323 -227.324592 
L 307.905343 -226.589233 
L 308.725338 -225.849717 
L 309.542272 -225.10605 
L 310.356107 -224.358237 
L 311.166805 -223.606283 
L 311.974329 -222.850194 
L 312.778641 -222.089978 
L 313.579704 -221.325639 
L 314.37748 -220.557187 
L 315.171931 -219.784626 
L 315.963019 -219.007966 
L 316.750707 -218.227214 
L 317.534957 -217.442379 
L 318.315739 -216.653472 
L 319.093035 -215.860515 
L 319.866829 -215.063528 
L 320.637102 -214.262531 
L 321.40384 -213.457546 
L 322.167025 -212.648593 
L 322.926641 -211.835694 
L 323.682672 -211.018868 
L 324.435101 -210.198137 
L 325.183914 -209.373522 
L 325.929093 -208.545044 
L 326.670623 -207.712724 
L 327.408489 -206.876584 
L 328.142675 -206.036643 
L 328.873165 -205.192925 
L 329.599945 -204.345449 
L 330.322999 -203.494238 
L 331.042313 -202.639312 
L 331.757871 -201.780693 
L 332.469658 -200.918402 
L 333.177661 -200.052462 
L 333.881864 -199.182893 
L 334.582253 -198.309717 
L 335.278814 -197.432955 
L 335.971533 -196.55263 
L 336.660395 -195.668763 
L 337.345388 -194.781376 
L 338.026496 -193.890489 
L 338.703707 -192.996126 
L 339.377006 -192.098308 
L 340.046381 -191.197057 
L 340.711819 -190.292395 
L 341.373305 -189.384343 
L 342.030828 -188.472924 
L 342.684373 -187.55816 
L 343.333929 -186.640072 
L 343.979482 -185.718683 
L 344.621021 -184.794015 
L 345.258533 -183.866089 
L 345.892004 -182.934929 
L 346.521424 -182.000555 
L 347.146781 -181.062991 
L 347.768061 -180.122259 
L 348.385254 -179.17838 
L 348.998348 -178.231377 
L 349.607332 -177.281273 
L 350.212193 -176.328089 
L 350.81292 -175.371848 
L 351.409503 -174.412573 
L 352.00193 -173.450285 
L 352.59019 -172.485007 
L 353.174273 -171.516762 
L 353.754168 -170.545572 
L 354.329864 -169.571459 
L 354.901351 -168.594447 
L 355.468618 -167.614556 
L 356.031656 -166.631811 
L 356.590453 -165.646233 
L 357.145001 -164.657845 
L 357.695289 -163.666669 
L 358.241308 -162.672729 
L 358.783048 -161.676046 
L 359.320499 -160.676644 
L 359.853653 -159.674544 
L 360.382499 -158.669771 
L 360.907029 -157.662345 
L 361.427234 -156.65229 
L 361.943106 -155.639629 
L 362.454634 -154.624384 
L 362.961811 -153.606578 
L 363.464628 -152.586233 
L 363.963076 -151.563373 
L 364.457148 -150.53802 
L 364.946835 -149.510196 
L 365.43213 -148.479925 
L 365.913023 -147.447229 
L 366.389509 -146.412131 
L 366.861578 -145.374653 
L 367.329223 -144.334819 
L 367.792437 -143.292651 
L 368.251213 -142.248171 
L 368.705543 -141.201404 
L 369.15542 -140.15237 
L 369.600838 -139.101094 
L 370.041789 -138.047597 
L 370.478266 -136.991903 
L 370.910264 -135.934035 
L 371.337775 -134.874014 
L 371.760794 -133.811865 
L 372.179314 -132.747608 
L 372.593328 -131.681269 
L 373.002831 -130.612868 
L 373.407817 -129.542429 
L 373.808281 -128.469974 
L 374.204216 -127.395527 
L 374.595616 -126.319109 
L 374.982478 -125.240745 
L 375.364794 -124.160455 
L 375.74256 -123.078264 
L 376.115772 -121.994193 
L 376.484423 -120.908266 
L 376.848509 -119.820504 
L 377.208025 -118.730932 
L 377.562967 -117.639571 
L 377.91333 -116.546443 
L 378.25911 -115.451573 
L 378.600303 -114.354981 
L 378.936903 -113.256692 
L 379.268908 -112.156727 
L 379.596313 -111.055108 
L 379.919115 -109.95186 
L 380.237309 -108.847003 
L 380.550892 -107.740561 
L 380.859861 -106.632556 
L 381.164212 -105.523011 
L 381.463942 -104.411948 
L 381.759048 -103.299389 
L 382.049526 -102.185357 
L 382.335374 -101.069875 
L 382.616589 -99.952964 
L 382.893169 -98.834648 
L 383.165109 -97.714948 
L 383.432409 -96.593887 
L 383.695066 -95.471487 
L 383.953077 -94.347771 
L 384.206441 -93.22276 
L 384.455154 -92.096477 
L 384.699216 -90.968945 
L 384.938624 -89.840185 
L 385.173377 -88.71022 
L 385.403473 -87.579071 
L 385.62891 -86.446762 
L 385.849688 -85.313313 
L 386.065804 -84.178747 
L 386.277258 -83.043087 
L 386.484048 -81.906353 
L 386.686173 -80.768569 
L 386.883634 -79.629756 
L 387.076428 -78.489936 
L 387.264555 -77.349131 
L 387.448015 -76.207363 
L 387.626806 -75.064653 
L 387.80093 -73.921024 
L 387.970385 -72.776497 
L 388.135171 -71.631094 
L 388.295289 -70.484837 
L 388.450738 -69.337747 
L 388.601518 -68.189847 
L 388.74763 -67.041157 
L 388.889074 -65.891699 
L 389.025851 -64.741495 
L 389.157961 -63.590566 
L 389.285404 -62.438935 
L 389.408182 -61.286621 
L 389.526295 -60.133647 
L 389.639745 -58.980035 
L 389.748532 -57.825804 
L 389.852657 -56.670978 
L 389.952123 -55.515576 
L 390.046929 -54.35962 
L 390.137078 -53.203132 
L 390.222571 -52.046132 
L 390.30341 -50.888641 
L 390.379597 -49.730681 
L 390.451133 -48.572273 
L 390.51802 -47.413438 
z
" style="stroke: #000000; stroke-opacity: 0.075"/>
    </defs>
    <g clip-path="url(#pd483d60ad9)">
     <use xlink:href="#m23e5380264" x="0" y="482.4" style="fill-opacity: 0.075; stroke: #000000; stroke-opacity: 0.075"/>
    </g>
   </g>
   <g id="PathCollection_1">
    <defs>
     <path id="C0_0_7bc06352d1" d="M 0 3 
C 0.795609 3 1.55874 2.683901 2.12132 2.12132 
C 2.683901 1.55874 3 0.795609 3 -0 
C 3 -0.795609 2.683901 -1.55874 2.12132 -2.12132 
C 1.55874 -2.683901 0.795609 -3 0 -3 
C -0.795609 -3 -1.55874 -2.683901 -2.12132 -2.12132 
C -2.683901 -1.55874 -3 -0.795609 -3 0 
C -3 0.795609 -2.683901 1.55874 -2.12132 2.12132 
C -1.55874 2.683901 -0.795609 3 0 3 
z
"/>
    </defs>
    <g clip-path="url(#pd483d60ad9)">
     <use xlink:href="#C0_0_7bc06352d1" x="68.345846" y="434.986563" style="fill: #fde725; stroke: #fde725"/>
    </g>
    <g clip-path="url(#pd483d60ad9)">
     <use xlink:href="#C0_0_7bc06352d1" x="114.370442" y="434.986563" style="fill: #25ab82; stroke: #25ab82"/>
    </g>
    <g clip-path="url(#pd483d60ad9)">
     <use xlink:href="#C0_0_7bc06352d1" x="160.395039" y="434.986563" style="fill: #22a884; stroke: #22a884"/>
    </g>
    <g clip-path="url(#pd483d60ad9)">
     <use xlink:href="#C0_0_7bc06352d1" x="206.419635" y="434.986563" style="fill: #27ad81; stroke: #27ad81"/>
    </g>
    <g clip-path="url(#pd483d60ad9)">
     <use xlink:href="#C0_0_7bc06352d1" x="252.444231" y="434.986563" style="fill: #35b779; stroke: #35b779"/>
    </g>
    <g clip-path="url(#pd483d60ad9)">
     <use xlink:href="#C0_0_7bc06352d1" x="298.468827" y="434.986563" style="fill: #50c46a; stroke: #50c46a"/>
    </g>
    <g clip-path="url(#pd483d60ad9)">
     <use xlink:href="#C0_0_7bc06352d1" x="344.493424" y="434.986563" style="fill: #70cf57; stroke: #70cf57"/>
    </g>
    <g clip-path="url(#pd483d60ad9)">
     <use xlink:href="#C0_0_7bc06352d1" x="390.51802" y="434.986563" style="fill: #a8db34; stroke: #a8db34"/>
    </g>
    <g clip-path="url(#pd483d60ad9)">
     <use xlink:href="#C0_0_7bc06352d1" x="66.777596" y="423.07452" style="fill: #84d44b; stroke: #84d44b"/>
    </g>
    <g clip-path="url(#pd483d60ad9)">
     <use xlink:href="#C0_0_7bc06352d1" x="111.233942" y="411.162478" style="fill: #1f9e89; stroke: #1f9e89"/>
    </g>
    <g clip-path="url(#pd483d60ad9)">
     <use xlink:href="#C0_0_7bc06352d1" x="155.690288" y="399.250436" style="fill: #1f9e89; stroke: #1f9e89"/>
    </g>
    <g clip-path="url(#pd483d60ad9)">
     <use xlink:href="#C0_0_7bc06352d1" x="200.146635" y="387.338394" style="fill: #21a585; stroke: #21a585"/>
    </g>
    <g clip-path="url(#pd483d60ad9)">
     <use xlink:href="#C0_0_7bc06352d1" x="244.602981" y="375.426352" style="fill: #28ae80; stroke: #28ae80"/>
    </g>
    <g clip-path="url(#pd483d60ad9)">
     <use xlink:href="#C0_0_7bc06352d1" x="289.059327" y="363.51431" style="fill: #3dbc74; stroke: #3dbc74"/>
    </g>
    <g clip-path="url(#pd483d60ad9)">
     <use xlink:href="#C0_0_7bc06352d1" x="333.515673" y="351.602268" style="fill: #60ca60; stroke: #60ca60"/>
    </g>
    <g clip-path="url(#pd483d60ad9)">
     <use xlink:href="#C0_0_7bc06352d1" x="377.972019" y="339.690226" style="fill: #93d741; stroke: #93d741"/>
    </g>
    <g clip-path="url(#pd483d60ad9)">
     <use xlink:href="#C0_0_7bc06352d1" x="62.17972" y="411.974264" style="fill: #1e9d89; stroke: #1e9d89"/>
    </g>
    <g clip-path="url(#pd483d60ad9)">
     <use xlink:href="#C0_0_7bc06352d1" x="102.038189" y="388.961966" style="fill: #218e8d; stroke: #218e8d"/>
    </g>
    <g clip-path="url(#pd483d60ad9)">
     <use xlink:href="#C0_0_7bc06352d1" x="141.896659" y="365.949668" style="fill: #21908d; stroke: #21908d"/>
    </g>
    <g clip-path="url(#pd483d60ad9)">
     <use xlink:href="#C0_0_7bc06352d1" x="181.755128" y="342.93737" style="fill: #1f998a; stroke: #1f998a"/>
    </g>
    <g clip-path="url(#pd483d60ad9)">
     <use xlink:href="#C0_0_7bc06352d1" x="221.613598" y="319.925072" style="fill: #1f9e89; stroke: #1f9e89"/>
    </g>
    <g clip-path="url(#pd483d60ad9)">
     <use xlink:href="#C0_0_7bc06352d1" x="261.472067" y="296.912774" style="fill: #23a983; stroke: #23a983"/>
    </g>
    <g clip-path="url(#pd483d60ad9)">
     <use xlink:href="#C0_0_7bc06352d1" x="301.330537" y="273.900476" style="fill: #35b779; stroke: #35b779"/>
    </g>
    <g clip-path="url(#pd483d60ad9)">
     <use xlink:href="#C0_0_7bc06352d1" x="341.189006" y="250.888178" style="fill: #56c667; stroke: #56c667"/>
    </g>
    <g clip-path="url(#pd483d60ad9)">
     <use xlink:href="#C0_0_7bc06352d1" x="54.865554" y="402.442258" style="fill: #2f6b8e; stroke: #2f6b8e"/>
    </g>
    <g clip-path="url(#pd483d60ad9)">
     <use xlink:href="#C0_0_7bc06352d1" x="87.409858" y="369.897954" style="fill: #2c718e; stroke: #2c718e"/>
    </g>
    <g clip-path="url(#pd483d60ad9)">
     <use xlink:href="#C0_0_7bc06352d1" x="119.954162" y="337.35365" style="fill: #287c8e; stroke: #287c8e"/>
    </g>
    <g clip-path="url(#pd483d60ad9)">
     <use xlink:href="#C0_0_7bc06352d1" x="152.498466" y="304.809346" style="fill: #26818e; stroke: #26818e"/>
    </g>
    <g clip-path="url(#pd483d60ad9)">
     <use xlink:href="#C0_0_7bc06352d1" x="185.042771" y="272.265042" style="fill: #23888e; stroke: #23888e"/>
    </g>
    <g clip-path="url(#pd483d60ad9)">
     <use xlink:href="#C0_0_7bc06352d1" x="217.587075" y="239.720738" style="fill: #218e8d; stroke: #218e8d"/>
    </g>
    <g clip-path="url(#pd483d60ad9)">
     <use xlink:href="#C0_0_7bc06352d1" x="250.131379" y="207.176434" style="fill: #1f978b; stroke: #1f978b"/>
    </g>
    <g clip-path="url(#pd483d60ad9)">
     <use xlink:href="#C0_0_7bc06352d1" x="282.675683" y="174.63213" style="fill: #20a386; stroke: #20a386"/>
    </g>
    <g clip-path="url(#pd483d60ad9)">
     <use xlink:href="#C0_0_7bc06352d1" x="45.333548" y="395.128093" style="fill: #414487; stroke: #414487"/>
    </g>
    <g clip-path="url(#pd483d60ad9)">
     <use xlink:href="#C0_0_7bc06352d1" x="68.345846" y="355.269623" style="fill: #39568c; stroke: #39568c"/>
    </g>
    <g clip-path="url(#pd483d60ad9)">
     <use xlink:href="#C0_0_7bc06352d1" x="91.358144" y="315.411154" style="fill: #33628d; stroke: #33628d"/>
    </g>
    <g clip-path="url(#pd483d60ad9)">
     <use xlink:href="#C0_0_7bc06352d1" x="114.370442" y="275.552684" style="fill: #31678e; stroke: #31678e"/>
    </g>
    <g clip-path="url(#pd483d60ad9)">
     <use xlink:href="#C0_0_7bc06352d1" x="137.382741" y="235.694215" style="fill: #306a8e; stroke: #306a8e"/>
    </g>
    <g clip-path="url(#pd483d60ad9)">
     <use xlink:href="#C0_0_7bc06352d1" x="160.855285" y="195.038576" style="fill: #2e6d8e; stroke: #2e6d8e"/>
    </g>
    <g clip-path="url(#pd483d60ad9)">
     <use xlink:href="#C0_0_7bc06352d1" x="183.867583" y="155.180106" style="fill: #2e6f8e; stroke: #2e6f8e"/>
    </g>
    <g clip-path="url(#pd483d60ad9)">
     <use xlink:href="#C0_0_7bc06352d1" x="206.879881" y="115.321637" style="fill: #2c728e; stroke: #2c728e"/>
    </g>
    <g clip-path="url(#pd483d60ad9)">
     <use xlink:href="#C0_0_7bc06352d1" x="34.233292" y="390.530216" style="fill: #481769; stroke: #481769"/>
    </g>
    <g clip-path="url(#pd483d60ad9)">
     <use xlink:href="#C0_0_7bc06352d1" x="46.145334" y="346.07387" style="fill: #414487; stroke: #414487"/>
    </g>
    <g clip-path="url(#pd483d60ad9)">
     <use xlink:href="#C0_0_7bc06352d1" x="58.057376" y="301.617524" style="fill: #3e4989; stroke: #3e4989"/>
    </g>
    <g clip-path="url(#pd483d60ad9)">
     <use xlink:href="#C0_0_7bc06352d1" x="69.969418" y="257.161178" style="fill: #3d4d8a; stroke: #3d4d8a"/>
    </g>
    <g clip-path="url(#pd483d60ad9)">
     <use xlink:href="#C0_0_7bc06352d1" x="81.88146" y="212.704832" style="fill: #3e4c8a; stroke: #3e4c8a"/>
    </g>
    <g clip-path="url(#pd483d60ad9)">
     <use xlink:href="#C0_0_7bc06352d1" x="93.793502" y="168.248486" style="fill: #404688; stroke: #404688"/>
    </g>
    <g clip-path="url(#pd483d60ad9)">
     <use xlink:href="#C0_0_7bc06352d1" x="105.705544" y="123.792139" style="fill: #433e85; stroke: #433e85"/>
    </g>
    <g clip-path="url(#pd483d60ad9)">
     <use xlink:href="#C0_0_7bc06352d1" x="117.617586" y="79.335793" style="fill: #453581; stroke: #453581"/>
    </g>
    <g clip-path="url(#pd483d60ad9)">
     <use xlink:href="#C0_0_7bc06352d1" x="22.32125" y="388.961966" style="fill: #460a5d; stroke: #460a5d"/>
    </g>
    <g clip-path="url(#pd483d60ad9)">
     <use xlink:href="#C0_0_7bc06352d1" x="22.32125" y="342.93737" style="fill: #46337f; stroke: #46337f"/>
    </g>
    <g clip-path="url(#pd483d60ad9)">
     <use xlink:href="#C0_0_7bc06352d1" x="22.32125" y="296.912774" style="fill: #433e85; stroke: #433e85"/>
    </g>
    <g clip-path="url(#pd483d60ad9)">
     <use xlink:href="#C0_0_7bc06352d1" x="22.32125" y="250.888178" style="fill: #433e85; stroke: #433e85"/>
    </g>
    <g clip-path="url(#pd483d60ad9)">
     <use xlink:href="#C0_0_7bc06352d1" x="22.32125" y="204.863581" style="fill: #443983; stroke: #443983"/>
    </g>
    <g clip-path="url(#pd483d60ad9)">
     <use xlink:href="#C0_0_7bc06352d1" x="22.32125" y="158.838985" style="fill: #472f7d; stroke: #472f7d"/>
    </g>
    <g clip-path="url(#pd483d60ad9)">
     <use xlink:href="#C0_0_7bc06352d1" x="22.32125" y="112.814389" style="fill: #481d6f; stroke: #481d6f"/>
    </g>
    <g clip-path="url(#pd483d60ad9)">
     <use xlink:href="#C0_0_7bc06352d1" x="22.32125" y="66.789793" style="fill: #440154; stroke: #440154"/>
    </g>
   </g>
   <g id="matplotlib.axis_1">
    <g id="xtick_1">
     <g id="line2d_1">
      <path d="M 22.32125 434.986563 
L 409.894375 434.986563 
" clip-path="url(#pd483d60ad9)" style="fill: none; stroke: #b0b0b0; stroke-width: 0.8; stroke-linecap: square"/>
     </g>
     <g id="text_1">
      <!-- 0° -->
      <g transform="translate(416.50875 438.57375) scale(0.13 -0.13)">
       <defs>
        <path id="DejaVuSerif-30" d="M 2034 219 
Q 2513 219 2750 744 
Q 2988 1269 2988 2328 
Q 2988 3391 2750 3916 
Q 2513 4441 2034 4441 
Q 1556 4441 1318 3916 
Q 1081 3391 1081 2328 
Q 1081 1269 1318 744 
Q 1556 219 2034 219 
z
M 2034 -91 
Q 1275 -91 848 546 
Q 422 1184 422 2328 
Q 422 3475 848 4112 
Q 1275 4750 2034 4750 
Q 2797 4750 3222 4112 
Q 3647 3475 3647 2328 
Q 3647 1184 3222 546 
Q 2797 -91 2034 -91 
z
" transform="scale(0.015625)"/>
        <path id="DejaVuSerif-b0" d="M 1600 4319 
Q 1363 4319 1200 4155 
Q 1038 3991 1038 3750 
Q 1038 3513 1198 3353 
Q 1359 3194 1600 3194 
Q 1838 3194 2000 3355 
Q 2163 3516 2163 3750 
Q 2163 3984 1997 4151 
Q 1831 4319 1600 4319 
z
M 1600 4750 
Q 1800 4750 1984 4673 
Q 2169 4597 2303 4453 
Q 2447 4313 2519 4134 
Q 2591 3956 2591 3750 
Q 2591 3338 2302 3052 
Q 2013 2766 1594 2766 
Q 1172 2766 890 3047 
Q 609 3328 609 3750 
Q 609 4169 896 4459 
Q 1184 4750 1600 4750 
z
" transform="scale(0.015625)"/>
       </defs>
       <use xlink:href="#DejaVuSerif-30"/>
       <use xlink:href="#DejaVuSerif-b0" x="63.623047"/>
      </g>
     </g>
    </g>
    <g id="xtick_2">
     <g id="line2d_2">
      <path d="M 22.32125 434.986563 
L 396.688141 334.675256 
" clip-path="url(#pd483d60ad9)" style="fill: none; stroke: #b0b0b0; stroke-width: 0.8; stroke-linecap: square"/>
     </g>
     <g id="text_2">
      <!-- 15° -->
      <g transform="translate(398.689853 334.638977) scale(0.13 -0.13)">
       <defs>
        <path id="DejaVuSerif-31" d="M 909 0 
L 909 331 
L 1722 331 
L 1722 4213 
L 781 3603 
L 781 4013 
L 1919 4750 
L 2350 4750 
L 2350 331 
L 3163 331 
L 3163 0 
L 909 0 
z
" transform="scale(0.015625)"/>
        <path id="DejaVuSerif-35" d="M 3219 4666 
L 3219 4153 
L 1081 4153 
L 1081 2816 
Q 1244 2928 1461 2984 
Q 1678 3041 1947 3041 
Q 2703 3041 3140 2622 
Q 3578 2203 3578 1478 
Q 3578 738 3136 323 
Q 2694 -91 1894 -91 
Q 1572 -91 1234 -12 
Q 897 66 544 225 
L 544 1131 
L 897 1131 
Q 925 688 1179 453 
Q 1434 219 1894 219 
Q 2388 219 2653 544 
Q 2919 869 2919 1478 
Q 2919 2084 2655 2407 
Q 2391 2731 1894 2731 
Q 1613 2731 1398 2631 
Q 1184 2531 1019 2322 
L 750 2322 
L 750 4666 
L 3219 4666 
z
" transform="scale(0.015625)"/>
       </defs>
       <use xlink:href="#DejaVuSerif-31"/>
       <use xlink:href="#DejaVuSerif-35" x="63.623047"/>
       <use xlink:href="#DejaVuSerif-b0" x="127.246094"/>
      </g>
     </g>
    </g>
    <g id="xtick_3">
     <g id="line2d_3">
      <path d="M 22.32125 434.986563 
L 357.969422 241.2 
" clip-path="url(#pd483d60ad9)" style="fill: none; stroke: #b0b0b0; stroke-width: 0.8; stroke-linecap: square"/>
     </g>
     <g id="text_3">
      <!-- 30° -->
      <g transform="translate(358.572528 237.787188) scale(0.13 -0.13)">
       <defs>
        <path id="DejaVuSerif-33" d="M 622 4469 
Q 988 4606 1323 4678 
Q 1659 4750 1953 4750 
Q 2638 4750 3022 4454 
Q 3406 4159 3406 3634 
Q 3406 3213 3140 2930 
Q 2875 2647 2388 2547 
Q 2963 2466 3280 2130 
Q 3597 1794 3597 1259 
Q 3597 606 3158 257 
Q 2719 -91 1894 -91 
Q 1528 -91 1179 -12 
Q 831 66 488 225 
L 488 1131 
L 838 1131 
Q 869 681 1141 450 
Q 1413 219 1906 219 
Q 2384 219 2661 495 
Q 2938 772 2938 1253 
Q 2938 1803 2653 2086 
Q 2369 2369 1819 2369 
L 1522 2369 
L 1522 2688 
L 1678 2688 
Q 2225 2688 2498 2914 
Q 2772 3141 2772 3597 
Q 2772 4006 2547 4223 
Q 2322 4441 1900 4441 
Q 1478 4441 1245 4241 
Q 1013 4041 972 3647 
L 622 3647 
L 622 4469 
z
" transform="scale(0.015625)"/>
       </defs>
       <use xlink:href="#DejaVuSerif-33"/>
       <use xlink:href="#DejaVuSerif-30" x="63.623047"/>
       <use xlink:href="#DejaVuSerif-b0" x="127.246094"/>
      </g>
     </g>
    </g>
    <g id="xtick_4">
     <g id="line2d_4">
      <path d="M 22.32125 434.986563 
L 296.376835 160.930978 
" clip-path="url(#pd483d60ad9)" style="fill: none; stroke: #b0b0b0; stroke-width: 0.8; stroke-linecap: square"/>
     </g>
     <g id="text_4">
      <!-- 45° -->
      <g transform="translate(294.75508 154.61867) scale(0.13 -0.13)">
       <defs>
        <path id="DejaVuSerif-34" d="M 2234 1581 
L 2234 4063 
L 641 1581 
L 2234 1581 
z
M 3609 0 
L 1484 0 
L 1484 331 
L 2234 331 
L 2234 1247 
L 197 1247 
L 197 1588 
L 2241 4750 
L 2859 4750 
L 2859 1581 
L 3750 1581 
L 3750 1247 
L 2859 1247 
L 2859 331 
L 3609 331 
L 3609 0 
z
" transform="scale(0.015625)"/>
       </defs>
       <use xlink:href="#DejaVuSerif-34"/>
       <use xlink:href="#DejaVuSerif-35" x="63.623047"/>
       <use xlink:href="#DejaVuSerif-b0" x="127.246094"/>
      </g>
     </g>
    </g>
    <g id="xtick_5">
     <g id="line2d_5">
      <path d="M 22.32125 434.986563 
L 216.107813 99.33839 
" clip-path="url(#pd483d60ad9)" style="fill: none; stroke: #b0b0b0; stroke-width: 0.8; stroke-linecap: square"/>
     </g>
     <g id="text_5">
      <!-- 60° -->
      <g transform="translate(211.586563 90.801222) scale(0.13 -0.13)">
       <defs>
        <path id="DejaVuSerif-36" d="M 2094 219 
Q 2534 219 2771 542 
Q 3009 866 3009 1472 
Q 3009 2078 2771 2401 
Q 2534 2725 2094 2725 
Q 1647 2725 1412 2412 
Q 1178 2100 1178 1509 
Q 1178 888 1415 553 
Q 1653 219 2094 219 
z
M 1075 2569 
Q 1288 2803 1556 2918 
Q 1825 3034 2163 3034 
Q 2859 3034 3264 2615 
Q 3669 2197 3669 1472 
Q 3669 763 3233 336 
Q 2797 -91 2069 -91 
Q 1278 -91 853 498 
Q 428 1088 428 2181 
Q 428 3406 931 4078 
Q 1434 4750 2350 4750 
Q 2597 4750 2869 4703 
Q 3141 4656 3425 4563 
L 3425 3794 
L 3072 3794 
Q 3034 4109 2831 4275 
Q 2628 4441 2284 4441 
Q 1678 4441 1381 3981 
Q 1084 3522 1075 2569 
z
" transform="scale(0.015625)"/>
       </defs>
       <use xlink:href="#DejaVuSerif-36"/>
       <use xlink:href="#DejaVuSerif-30" x="63.623047"/>
       <use xlink:href="#DejaVuSerif-b0" x="127.246094"/>
      </g>
     </g>
    </g>
    <g id="xtick_6">
     <g id="line2d_6">
      <path d="M 22.32125 434.986563 
L 122.632556 60.619671 
" clip-path="url(#pd483d60ad9)" style="fill: none; stroke: #b0b0b0; stroke-width: 0.8; stroke-linecap: square"/>
     </g>
     <g id="text_6">
      <!-- 75° -->
      <g transform="translate(114.734773 50.683897) scale(0.13 -0.13)">
       <defs>
        <path id="DejaVuSerif-37" d="M 3609 4347 
L 1784 0 
L 1319 0 
L 3059 4153 
L 903 4153 
L 903 3578 
L 538 3578 
L 538 4666 
L 3609 4666 
L 3609 4347 
z
" transform="scale(0.015625)"/>
       </defs>
       <use xlink:href="#DejaVuSerif-37"/>
       <use xlink:href="#DejaVuSerif-35" x="63.623047"/>
       <use xlink:href="#DejaVuSerif-b0" x="127.246094"/>
      </g>
     </g>
    </g>
    <g id="xtick_7">
     <g id="line2d_7">
      <path d="M 22.32125 434.986563 
L 22.32125 47.413438 
" clip-path="url(#pd483d60ad9)" style="fill: none; stroke: #b0b0b0; stroke-width: 0.8; stroke-linecap: square"/>
     </g>
     <g id="text_7">
      <!-- 90° -->
      <g transform="translate(10.8 37.000625) scale(0.13 -0.13)">
       <defs>
        <path id="DejaVuSerif-39" d="M 2994 2091 
Q 2784 1856 2512 1740 
Q 2241 1625 1900 1625 
Q 1206 1625 804 2044 
Q 403 2463 403 3188 
Q 403 3897 839 4323 
Q 1275 4750 2003 4750 
Q 2794 4750 3217 4161 
Q 3641 3572 3641 2478 
Q 3641 1253 3137 581 
Q 2634 -91 1722 -91 
Q 1475 -91 1203 -44 
Q 931 3 647 97 
L 647 872 
L 997 872 
Q 1038 556 1241 387 
Q 1444 219 1784 219 
Q 2391 219 2687 676 
Q 2984 1134 2994 2091 
z
M 1978 4441 
Q 1534 4441 1298 4117 
Q 1063 3794 1063 3188 
Q 1063 2581 1298 2256 
Q 1534 1931 1978 1931 
Q 2422 1931 2658 2245 
Q 2894 2559 2894 3150 
Q 2894 3772 2656 4106 
Q 2419 4441 1978 4441 
z
" transform="scale(0.015625)"/>
       </defs>
       <use xlink:href="#DejaVuSerif-39"/>
       <use xlink:href="#DejaVuSerif-30" x="63.623047"/>
       <use xlink:href="#DejaVuSerif-b0" x="127.246094"/>
      </g>
     </g>
    </g>
   </g>
   <g id="matplotlib.axis_2">
    <g id="ytick_1">
     <g id="line2d_8">
      <path d="M 68.345846 434.986563 
C 68.345846 422.784762 63.49353 411.070234 54.865554 402.442258 
C 46.237578 393.814283 34.52305 388.961966 22.32125 388.961966 
" clip-path="url(#pd483d60ad9)" style="fill: none; stroke: #b0b0b0; stroke-width: 0.8; stroke-linecap: square"/>
     </g>
     <g id="text_8">
      <!-- 0.05 -->
      <g transform="translate(53.87319 451.864531) scale(0.13 -0.13)">
       <defs>
        <path id="DejaVuSerif-2e" d="M 603 325 
Q 603 500 722 622 
Q 841 744 1019 744 
Q 1191 744 1312 622 
Q 1434 500 1434 325 
Q 1434 153 1312 31 
Q 1191 -91 1019 -91 
Q 841 -91 722 29 
Q 603 150 603 325 
z
" transform="scale(0.015625)"/>
       </defs>
       <use xlink:href="#DejaVuSerif-30"/>
       <use xlink:href="#DejaVuSerif-2e" x="63.623047"/>
       <use xlink:href="#DejaVuSerif-30" x="95.410156"/>
       <use xlink:href="#DejaVuSerif-35" x="159.033203"/>
      </g>
     </g>
    </g>
    <g id="ytick_2">
     <g id="line2d_9">
      <path d="M 114.370442 434.986563 
C 114.370442 410.582962 104.66581 387.153906 87.409858 369.897954 
C 70.153907 352.642003 46.724851 342.93737 22.32125 342.93737 
" clip-path="url(#pd483d60ad9)" style="fill: none; stroke: #b0b0b0; stroke-width: 0.8; stroke-linecap: square"/>
     </g>
     <g id="text_9">
      <!-- 0.10 -->
      <g transform="translate(99.897786 451.864531) scale(0.13 -0.13)">
       <use xlink:href="#DejaVuSerif-30"/>
       <use xlink:href="#DejaVuSerif-2e" x="63.623047"/>
       <use xlink:href="#DejaVuSerif-31" x="95.410156"/>
       <use xlink:href="#DejaVuSerif-30" x="159.033203"/>
      </g>
     </g>
    </g>
    <g id="ytick_3">
     <g id="line2d_10">
      <path d="M 160.395039 434.986563 
C 160.395039 398.381161 145.83809 363.237578 119.954162 337.35365 
C 94.070235 311.469723 58.926651 296.912774 22.32125 296.912774 
" clip-path="url(#pd483d60ad9)" style="fill: none; stroke: #b0b0b0; stroke-width: 0.8; stroke-linecap: square"/>
     </g>
     <g id="text_10">
      <!-- 0.15 -->
      <g transform="translate(145.922382 451.864531) scale(0.13 -0.13)">
       <use xlink:href="#DejaVuSerif-30"/>
       <use xlink:href="#DejaVuSerif-2e" x="63.623047"/>
       <use xlink:href="#DejaVuSerif-31" x="95.410156"/>
       <use xlink:href="#DejaVuSerif-35" x="159.033203"/>
      </g>
     </g>
    </g>
    <g id="ytick_4">
     <g id="line2d_11">
      <path d="M 206.419635 434.986563 
C 206.419635 386.179361 187.01037 339.321249 152.498466 304.809346 
C 117.986563 270.297443 71.128452 250.888178 22.32125 250.888178 
" clip-path="url(#pd483d60ad9)" style="fill: none; stroke: #b0b0b0; stroke-width: 0.8; stroke-linecap: square"/>
     </g>
     <g id="text_11">
      <!-- 0.20 -->
      <g transform="translate(191.946979 451.864531) scale(0.13 -0.13)">
       <defs>
        <path id="DejaVuSerif-32" d="M 819 3553 
L 469 3553 
L 469 4384 
Q 803 4563 1142 4656 
Q 1481 4750 1806 4750 
Q 2534 4750 2956 4397 
Q 3378 4044 3378 3438 
Q 3378 2753 2422 1800 
Q 2347 1728 2309 1691 
L 1131 513 
L 3078 513 
L 3078 1088 
L 3444 1088 
L 3444 0 
L 434 0 
L 434 341 
L 1850 1753 
Q 2319 2222 2519 2614 
Q 2719 3006 2719 3438 
Q 2719 3909 2473 4175 
Q 2228 4441 1797 4441 
Q 1350 4441 1106 4219 
Q 863 3997 819 3553 
z
" transform="scale(0.015625)"/>
       </defs>
       <use xlink:href="#DejaVuSerif-30"/>
       <use xlink:href="#DejaVuSerif-2e" x="63.623047"/>
       <use xlink:href="#DejaVuSerif-32" x="95.410156"/>
       <use xlink:href="#DejaVuSerif-30" x="159.033203"/>
      </g>
     </g>
    </g>
    <g id="ytick_5">
     <g id="line2d_12">
      <path d="M 252.444231 434.986563 
C 252.444231 373.97756 228.18265 315.404921 185.042771 272.265042 
C 141.902891 229.125163 83.330252 204.863581 22.32125 204.863581 
" clip-path="url(#pd483d60ad9)" style="fill: none; stroke: #b0b0b0; stroke-width: 0.8; stroke-linecap: square"/>
     </g>
     <g id="text_12">
      <!-- 0.25 -->
      <g transform="translate(237.971575 451.864531) scale(0.13 -0.13)">
       <use xlink:href="#DejaVuSerif-30"/>
       <use xlink:href="#DejaVuSerif-2e" x="63.623047"/>
       <use xlink:href="#DejaVuSerif-32" x="95.410156"/>
       <use xlink:href="#DejaVuSerif-35" x="159.033203"/>
      </g>
     </g>
    </g>
    <g id="ytick_6">
     <g id="line2d_13">
      <path d="M 298.468827 434.986563 
C 298.468827 361.77576 269.35493 291.488593 217.587075 239.720738 
C 165.81922 187.952883 95.532052 158.838985 22.32125 158.838985 
" clip-path="url(#pd483d60ad9)" style="fill: none; stroke: #b0b0b0; stroke-width: 0.8; stroke-linecap: square"/>
     </g>
     <g id="text_13">
      <!-- 0.30 -->
      <g transform="translate(283.996171 451.864531) scale(0.13 -0.13)">
       <use xlink:href="#DejaVuSerif-30"/>
       <use xlink:href="#DejaVuSerif-2e" x="63.623047"/>
       <use xlink:href="#DejaVuSerif-33" x="95.410156"/>
       <use xlink:href="#DejaVuSerif-30" x="159.033203"/>
      </g>
     </g>
    </g>
    <g id="ytick_7">
     <g id="line2d_14">
      <path d="M 344.493424 434.986563 
C 344.493424 349.57396 310.527209 267.572264 250.131379 207.176434 
C 189.735548 146.780603 107.733853 112.814389 22.32125 112.814389 
" clip-path="url(#pd483d60ad9)" style="fill: none; stroke: #b0b0b0; stroke-width: 0.8; stroke-linecap: square"/>
     </g>
     <g id="text_14">
      <!-- 0.35 -->
      <g transform="translate(330.020767 451.864531) scale(0.13 -0.13)">
       <use xlink:href="#DejaVuSerif-30"/>
       <use xlink:href="#DejaVuSerif-2e" x="63.623047"/>
       <use xlink:href="#DejaVuSerif-33" x="95.410156"/>
       <use xlink:href="#DejaVuSerif-35" x="159.033203"/>
      </g>
     </g>
    </g>
    <g id="ytick_8">
     <g id="line2d_15">
      <path d="M 390.51802 434.986563 
C 390.51802 337.372159 351.699489 243.655936 282.675683 174.63213 
C 213.651876 105.608323 119.935653 66.789793 22.32125 66.789793 
" clip-path="url(#pd483d60ad9)" style="fill: none; stroke: #b0b0b0; stroke-width: 0.8; stroke-linecap: square"/>
     </g>
     <g id="text_15">
      <!-- 0.40 -->
      <g transform="translate(376.045364 451.864531) scale(0.13 -0.13)">
       <use xlink:href="#DejaVuSerif-30"/>
       <use xlink:href="#DejaVuSerif-2e" x="63.623047"/>
       <use xlink:href="#DejaVuSerif-34" x="95.410156"/>
       <use xlink:href="#DejaVuSerif-30" x="159.033203"/>
      </g>
     </g>
    </g>
   </g>
   <g id="line2d_16">
    <path d="M 390.51802 434.986563 
L 389.952123 426.884424 
L 389.157961 418.809434 
L 388.135171 410.768906 
L 386.883634 402.770244 
L 385.403473 394.820929 
L 383.695066 386.928513 
L 381.759048 379.100611 
L 379.596313 371.344892 
L 377.208025 363.669068 
L 374.595616 356.080891 
L 371.760794 348.588135 
L 368.705543 341.198596 
L 365.43213 333.920075 
L 361.943106 326.760371 
L 358.241308 319.727271 
L 354.329864 312.828541 
L 350.212193 306.071911 
L 345.892004 299.465071 
L 341.373305 293.015657 
L 336.660395 286.731237 
L 331.757871 280.619307 
L 326.670623 274.687276 
L 321.40384 268.942454 
L 316.750707 264.172786 
L 311.166805 258.793717 
L 305.427359 253.617178 
L 299.54519 248.644909 
L 293.532975 243.877916 
L 287.403211 239.316481 
L 281.168182 234.960179 
L 274.839926 230.807891 
L 268.430201 226.857824 
L 261.950455 223.107523 
L 255.411793 219.553896 
L 247.880647 215.728646 
L 240.301934 212.148918 
L 232.690293 208.807249 
L 225.059573 205.695249 
L 217.422781 202.803655 
L 208.839185 199.801474 
L 200.279057 197.049936 
L 191.756665 194.532392 
L 182.346905 191.988035 
L 173.014141 189.685171 
L 162.851439 187.399038 
L 151.896794 185.168275 
L 141.074969 183.198355 
L 130.379056 181.479066 
L 119.801944 180.001596 
L 109.336435 178.758509 
L 98.975364 177.743716 
L 88.711702 176.952432 
L 78.538666 176.381131 
L 68.44982 176.027495 
L 58.439173 175.890351 
L 48.501267 175.969609 
L 38.631263 176.266185 
L 28.82502 176.781931 
L 22.32125 177.248824 
L 22.32125 177.248824 
" clip-path="url(#pd483d60ad9)" style="fill: none; stroke-dasharray: 5.55,2.4; stroke-dashoffset: 0; stroke: #000000; stroke-width: 1.5"/>
   </g>
   <g id="patch_3">
    <path d="M 409.894375 434.986563 
C 409.894375 332.235201 369.033019 233.587162 296.376835 160.930978 
C 223.720651 88.274793 125.072611 47.413437 22.32125 47.413437 
" style="fill: none; stroke: #000000; stroke-width: 0.8; stroke-linejoin: miter; stroke-linecap: square"/>
   </g>
   <g id="patch_4">
    <path d="M 22.32125 434.986563 
L 409.894375 434.986563 
" style="fill: none; stroke: #000000; stroke-width: 0.8; stroke-linejoin: miter; stroke-linecap: square"/>
   </g>
   <g id="patch_5">
    <path d="M 22.32125 434.986563 
L 22.32125 47.413438 
" style="fill: none; stroke: #000000; stroke-width: 0.8; stroke-linejoin: miter; stroke-linecap: square"/>
   </g>
  </g>
  <g id="text_16">
   <!-- Distance (m) -->
   <g transform="translate(175.713906 477.576) scale(0.14 -0.14)">
    <defs>
     <path id="DejaVuSerif-44" d="M 1581 331 
L 2163 331 
Q 3072 331 3558 850 
Q 4044 1369 4044 2338 
Q 4044 3306 3559 3818 
Q 3075 4331 2163 4331 
L 1581 4331 
L 1581 331 
z
M 353 0 
L 353 331 
L 947 331 
L 947 4331 
L 353 4331 
L 353 4666 
L 2209 4666 
Q 3416 4666 4089 4050 
Q 4763 3434 4763 2338 
Q 4763 1238 4088 619 
Q 3413 0 2209 0 
L 353 0 
z
" transform="scale(0.015625)"/>
     <path id="DejaVuSerif-69" d="M 622 4353 
Q 622 4497 726 4603 
Q 831 4709 978 4709 
Q 1122 4709 1226 4603 
Q 1331 4497 1331 4353 
Q 1331 4206 1228 4103 
Q 1125 4000 978 4000 
Q 831 4000 726 4103 
Q 622 4206 622 4353 
z
M 1356 331 
L 1900 331 
L 1900 0 
L 231 0 
L 231 331 
L 781 331 
L 781 2988 
L 231 2988 
L 231 3322 
L 1356 3322 
L 1356 331 
z
" transform="scale(0.015625)"/>
     <path id="DejaVuSerif-73" d="M 359 184 
L 359 959 
L 691 959 
Q 703 588 923 403 
Q 1144 219 1575 219 
Q 1963 219 2166 364 
Q 2369 509 2369 788 
Q 2369 1006 2220 1140 
Q 2072 1275 1594 1428 
L 1178 1569 
Q 750 1706 558 1912 
Q 366 2119 366 2438 
Q 366 2894 700 3153 
Q 1034 3413 1625 3413 
Q 1888 3413 2178 3344 
Q 2469 3275 2778 3144 
L 2778 2419 
L 2447 2419 
Q 2434 2741 2221 2922 
Q 2009 3103 1644 3103 
Q 1281 3103 1095 2975 
Q 909 2847 909 2591 
Q 909 2381 1050 2254 
Q 1191 2128 1613 1997 
L 2069 1856 
Q 2541 1709 2748 1489 
Q 2956 1269 2956 922 
Q 2956 450 2595 179 
Q 2234 -91 1600 -91 
Q 1278 -91 972 -22 
Q 666 47 359 184 
z
" transform="scale(0.015625)"/>
     <path id="DejaVuSerif-74" d="M 691 2988 
L 184 2988 
L 184 3322 
L 691 3322 
L 691 4353 
L 1269 4353 
L 1269 3322 
L 2350 3322 
L 2350 2988 
L 1269 2988 
L 1269 878 
Q 1269 456 1350 337 
Q 1431 219 1650 219 
Q 1875 219 1978 351 
Q 2081 484 2088 781 
L 2522 781 
Q 2497 328 2275 118 
Q 2053 -91 1600 -91 
Q 1103 -91 897 129 
Q 691 350 691 878 
L 691 2988 
z
" transform="scale(0.015625)"/>
     <path id="DejaVuSerif-61" d="M 2547 1044 
L 2547 1747 
L 1806 1747 
Q 1378 1747 1168 1562 
Q 959 1378 959 997 
Q 959 650 1171 447 
Q 1384 244 1747 244 
Q 2106 244 2326 466 
Q 2547 688 2547 1044 
z
M 3122 2075 
L 3122 331 
L 3634 331 
L 3634 0 
L 2547 0 
L 2547 359 
Q 2356 128 2106 18 
Q 1856 -91 1522 -91 
Q 969 -91 644 203 
Q 319 497 319 997 
Q 319 1513 691 1797 
Q 1063 2081 1741 2081 
L 2547 2081 
L 2547 2309 
Q 2547 2688 2317 2895 
Q 2088 3103 1672 3103 
Q 1328 3103 1125 2947 
Q 922 2791 872 2484 
L 575 2484 
L 575 3156 
Q 875 3284 1158 3348 
Q 1441 3413 1709 3413 
Q 2400 3413 2761 3070 
Q 3122 2728 3122 2075 
z
" transform="scale(0.015625)"/>
     <path id="DejaVuSerif-6e" d="M 263 0 
L 263 331 
L 781 331 
L 781 2988 
L 231 2988 
L 231 3322 
L 1356 3322 
L 1356 2731 
Q 1516 3069 1770 3241 
Q 2025 3413 2363 3413 
Q 2913 3413 3172 3097 
Q 3431 2781 3431 2113 
L 3431 331 
L 3944 331 
L 3944 0 
L 2356 0 
L 2356 331 
L 2853 331 
L 2853 1931 
Q 2853 2541 2703 2767 
Q 2553 2994 2175 2994 
Q 1775 2994 1565 2701 
Q 1356 2409 1356 1850 
L 1356 331 
L 1856 331 
L 1856 0 
L 263 0 
z
" transform="scale(0.015625)"/>
     <path id="DejaVuSerif-63" d="M 3291 997 
Q 3169 466 2822 187 
Q 2475 -91 1925 -91 
Q 1200 -91 759 389 
Q 319 869 319 1663 
Q 319 2459 759 2936 
Q 1200 3413 1925 3413 
Q 2241 3413 2553 3339 
Q 2866 3266 3181 3116 
L 3181 2266 
L 2847 2266 
Q 2781 2703 2561 2903 
Q 2341 3103 1931 3103 
Q 1466 3103 1228 2742 
Q 991 2381 991 1663 
Q 991 944 1227 581 
Q 1463 219 1931 219 
Q 2303 219 2525 412 
Q 2747 606 2828 997 
L 3291 997 
z
" transform="scale(0.015625)"/>
     <path id="DejaVuSerif-65" d="M 3469 1600 
L 991 1600 
L 991 1575 
Q 991 903 1244 561 
Q 1497 219 1991 219 
Q 2369 219 2611 417 
Q 2853 616 2950 1006 
L 3413 1006 
Q 3275 459 2904 184 
Q 2534 -91 1931 -91 
Q 1203 -91 761 389 
Q 319 869 319 1663 
Q 319 2450 753 2931 
Q 1188 3413 1894 3413 
Q 2647 3413 3050 2948 
Q 3453 2484 3469 1600 
z
M 2791 1931 
Q 2772 2513 2545 2808 
Q 2319 3103 1894 3103 
Q 1497 3103 1269 2806 
Q 1041 2509 991 1931 
L 2791 1931 
z
" transform="scale(0.015625)"/>
     <path id="DejaVuSerif-20" transform="scale(0.015625)"/>
     <path id="DejaVuSerif-28" d="M 2041 -997 
Q 1281 -656 893 83 
Q 506 822 506 1931 
Q 506 3044 893 3783 
Q 1281 4522 2041 4863 
L 2041 4556 
Q 1559 4225 1350 3623 
Q 1141 3022 1141 1931 
Q 1141 844 1350 242 
Q 1559 -359 2041 -691 
L 2041 -997 
z
" transform="scale(0.015625)"/>
     <path id="DejaVuSerif-6d" d="M 3316 2675 
Q 3481 3041 3739 3227 
Q 3997 3413 4341 3413 
Q 4863 3413 5119 3089 
Q 5375 2766 5375 2113 
L 5375 331 
L 5894 331 
L 5894 0 
L 4300 0 
L 4300 331 
L 4800 331 
L 4800 2047 
Q 4800 2556 4650 2772 
Q 4500 2988 4153 2988 
Q 3769 2988 3567 2697 
Q 3366 2406 3366 1850 
L 3366 331 
L 3866 331 
L 3866 0 
L 2291 0 
L 2291 331 
L 2791 331 
L 2791 2069 
Q 2791 2566 2641 2777 
Q 2491 2988 2144 2988 
Q 1759 2988 1557 2697 
Q 1356 2406 1356 1850 
L 1356 331 
L 1856 331 
L 1856 0 
L 263 0 
L 263 331 
L 781 331 
L 781 2994 
L 231 2994 
L 231 3322 
L 1356 3322 
L 1356 2731 
Q 1516 3063 1762 3238 
Q 2009 3413 2322 3413 
Q 2709 3413 2968 3220 
Q 3228 3028 3316 2675 
z
" transform="scale(0.015625)"/>
     <path id="DejaVuSerif-29" d="M 453 -997 
L 453 -691 
Q 934 -359 1145 242 
Q 1356 844 1356 1931 
Q 1356 3022 1145 3623 
Q 934 4225 453 4556 
L 453 4863 
Q 1216 4522 1603 3783 
Q 1991 3044 1991 1931 
Q 1991 822 1603 83 
Q 1216 -656 453 -997 
z
" transform="scale(0.015625)"/>
    </defs>
    <use xlink:href="#DejaVuSerif-44"/>
    <use xlink:href="#DejaVuSerif-69" x="80.175781"/>
    <use xlink:href="#DejaVuSerif-73" x="112.158203"/>
    <use xlink:href="#DejaVuSerif-74" x="163.476562"/>
    <use xlink:href="#DejaVuSerif-61" x="203.662109"/>
    <use xlink:href="#DejaVuSerif-6e" x="263.28125"/>
    <use xlink:href="#DejaVuSerif-63" x="327.685547"/>
    <use xlink:href="#DejaVuSerif-65" x="383.691406"/>
    <use xlink:href="#DejaVuSerif-20" x="442.871094"/>
    <use xlink:href="#DejaVuSerif-28" x="474.658203"/>
    <use xlink:href="#DejaVuSerif-6d" x="513.671875"/>
    <use xlink:href="#DejaVuSerif-29" x="608.496094"/>
   </g>
  </g>
  <g id="text_17">
   <!-- Reader-tag angle -->
   <g transform="translate(272.388692 97.727791) rotate(-315) scale(0.14 -0.14)">
    <defs>
     <path id="DejaVuSerif-52" d="M 3066 2316 
Q 3284 2256 3442 2114 
Q 3600 1972 3725 1716 
L 4403 331 
L 4972 331 
L 4972 0 
L 3872 0 
L 3144 1484 
Q 2934 1916 2759 2042 
Q 2584 2169 2278 2169 
L 1581 2169 
L 1581 331 
L 2241 331 
L 2241 0 
L 353 0 
L 353 331 
L 947 331 
L 947 4331 
L 353 4331 
L 353 4666 
L 2719 4666 
Q 3400 4666 3770 4341 
Q 4141 4016 4141 3419 
Q 4141 2938 3870 2661 
Q 3600 2384 3066 2316 
z
M 1581 2503 
L 2503 2503 
Q 2975 2503 3200 2726 
Q 3425 2950 3425 3419 
Q 3425 3888 3200 4109 
Q 2975 4331 2503 4331 
L 1581 4331 
L 1581 2503 
z
" transform="scale(0.015625)"/>
     <path id="DejaVuSerif-64" d="M 3359 331 
L 3909 331 
L 3909 0 
L 2784 0 
L 2784 519 
Q 2616 206 2355 57 
Q 2094 -91 1709 -91 
Q 1097 -91 708 395 
Q 319 881 319 1663 
Q 319 2444 706 2928 
Q 1094 3413 1709 3413 
Q 2094 3413 2355 3264 
Q 2616 3116 2784 2803 
L 2784 4531 
L 2241 4531 
L 2241 4863 
L 3359 4863 
L 3359 331 
z
M 2784 1497 
L 2784 1825 
Q 2784 2422 2554 2737 
Q 2325 3053 1888 3053 
Q 1444 3053 1217 2703 
Q 991 2353 991 1663 
Q 991 975 1217 622 
Q 1444 269 1888 269 
Q 2325 269 2554 583 
Q 2784 897 2784 1497 
z
" transform="scale(0.015625)"/>
     <path id="DejaVuSerif-72" d="M 3059 3328 
L 3059 2497 
L 2728 2497 
Q 2713 2744 2591 2866 
Q 2469 2988 2234 2988 
Q 1809 2988 1582 2694 
Q 1356 2400 1356 1850 
L 1356 331 
L 2022 331 
L 2022 0 
L 263 0 
L 263 331 
L 781 331 
L 781 2994 
L 231 2994 
L 231 3322 
L 1356 3322 
L 1356 2731 
Q 1525 3078 1790 3245 
Q 2056 3413 2438 3413 
Q 2578 3413 2733 3391 
Q 2888 3369 3059 3328 
z
" transform="scale(0.015625)"/>
     <path id="DejaVuSerif-2d" d="M 281 1959 
L 1881 1959 
L 1881 1472 
L 281 1472 
L 281 1959 
z
" transform="scale(0.015625)"/>
     <path id="DejaVuSerif-67" d="M 3359 2988 
L 3359 72 
Q 3359 -644 2965 -1033 
Q 2572 -1422 1844 -1422 
Q 1516 -1422 1216 -1362 
Q 916 -1303 641 -1184 
L 641 -488 
L 941 -488 
Q 997 -813 1206 -963 
Q 1416 -1113 1806 -1113 
Q 2313 -1113 2548 -827 
Q 2784 -541 2784 72 
L 2784 519 
Q 2616 206 2355 57 
Q 2094 -91 1709 -91 
Q 1097 -91 708 395 
Q 319 881 319 1663 
Q 319 2444 706 2928 
Q 1094 3413 1709 3413 
Q 2094 3413 2355 3264 
Q 2616 3116 2784 2803 
L 2784 3322 
L 3909 3322 
L 3909 2988 
L 3359 2988 
z
M 2784 1825 
Q 2784 2422 2554 2737 
Q 2325 3053 1888 3053 
Q 1444 3053 1217 2703 
Q 991 2353 991 1663 
Q 991 975 1217 622 
Q 1444 269 1888 269 
Q 2325 269 2554 583 
Q 2784 897 2784 1497 
L 2784 1825 
z
" transform="scale(0.015625)"/>
     <path id="DejaVuSerif-6c" d="M 1313 331 
L 1856 331 
L 1856 0 
L 184 0 
L 184 331 
L 738 331 
L 738 4531 
L 184 4531 
L 184 4863 
L 1313 4863 
L 1313 331 
z
" transform="scale(0.015625)"/>
    </defs>
    <use xlink:href="#DejaVuSerif-52"/>
    <use xlink:href="#DejaVuSerif-65" x="75.292969"/>
    <use xlink:href="#DejaVuSerif-61" x="134.472656"/>
    <use xlink:href="#DejaVuSerif-64" x="194.091797"/>
    <use xlink:href="#DejaVuSerif-65" x="258.105469"/>
    <use xlink:href="#DejaVuSerif-72" x="317.285156"/>
    <use xlink:href="#DejaVuSerif-2d" x="365.087891"/>
    <use xlink:href="#DejaVuSerif-74" x="398.876953"/>
    <use xlink:href="#DejaVuSerif-61" x="439.0625"/>
    <use xlink:href="#DejaVuSerif-67" x="498.681641"/>
    <use xlink:href="#DejaVuSerif-20" x="562.695312"/>
    <use xlink:href="#DejaVuSerif-61" x="594.482422"/>
    <use xlink:href="#DejaVuSerif-6e" x="654.101562"/>
    <use xlink:href="#DejaVuSerif-67" x="718.505859"/>
    <use xlink:href="#DejaVuSerif-6c" x="782.519531"/>
    <use xlink:href="#DejaVuSerif-65" x="814.501953"/>
   </g>
  </g>
  <g id="text_18">
   <!-- 40 μV @ 5.0 m → -->
   <g transform="translate(165.189706 419.688) scale(0.14 -0.14)">
    <defs>
     <path id="DejaVuSerif-3bc" d="M 2309 3322 
L 3384 3322 
L 3384 325 
L 3928 325 
L 3928 0 
L 2809 0 
L 2809 588 
Q 2647 256 2417 82 
Q 2188 -91 1906 -91 
Q 1728 -91 1581 -34 
Q 1434 22 1313 134 
L 1313 -1331 
L 738 -1331 
L 738 2988 
L 219 2988 
L 219 3322 
L 1313 3322 
L 1313 1388 
Q 1313 781 1463 556 
Q 1613 331 1991 331 
Q 2391 331 2600 625 
Q 2809 919 2809 1478 
L 2809 2988 
L 2309 2988 
L 2309 3322 
z
" transform="scale(0.015625)"/>
     <path id="DejaVuSerif-56" d="M 1119 4331 
L 2497 750 
L 3872 4331 
L 3347 4331 
L 3347 4666 
L 4716 4666 
L 4716 4331 
L 4263 4331 
L 2597 0 
L 2059 0 
L 403 4331 
L -63 4331 
L -63 4666 
L 1638 4666 
L 1638 4331 
L 1119 4331 
z
" transform="scale(0.015625)"/>
     <path id="DejaVuSerif-40" d="M 4044 775 
Q 3859 519 3629 394 
Q 3400 269 3109 269 
Q 2563 269 2222 659 
Q 1881 1050 1881 1678 
Q 1881 2306 2222 2695 
Q 2563 3084 3109 3084 
Q 3400 3084 3629 2959 
Q 3859 2834 4044 2578 
L 4044 3022 
L 4531 3022 
L 4531 609 
Q 5063 725 5356 1115 
Q 5650 1506 5650 2094 
Q 5650 2441 5544 2750 
Q 5438 3059 5228 3322 
Q 4897 3738 4420 3958 
Q 3944 4178 3384 4178 
Q 3103 4178 2828 4118 
Q 2553 4059 2284 3938 
Q 1653 3647 1303 3058 
Q 953 2469 953 1697 
Q 953 1175 1109 736 
Q 1266 297 1563 -25 
Q 1903 -397 2370 -592 
Q 2838 -788 3378 -788 
Q 3781 -788 4131 -669 
Q 4481 -550 4781 -313 
L 4947 -531 
Q 4609 -822 4181 -967 
Q 3753 -1113 3244 -1113 
Q 2672 -1113 2151 -905 
Q 1631 -697 1241 -313 
Q 838 84 630 595 
Q 422 1106 422 1697 
Q 422 2272 631 2781 
Q 841 3291 1241 3688 
Q 1638 4081 2177 4293 
Q 2716 4506 3322 4506 
Q 3991 4506 4542 4247 
Q 5094 3988 5466 3500 
Q 5703 3194 5825 2834 
Q 5947 2475 5947 2088 
Q 5947 1250 5437 764 
Q 4928 278 4047 269 
L 4044 775 
z
M 4044 1516 
L 4044 1844 
Q 4044 2234 3820 2476 
Q 3597 2719 3238 2719 
Q 2859 2719 2648 2445 
Q 2438 2172 2438 1678 
Q 2438 1181 2650 907 
Q 2863 634 3244 634 
Q 3600 634 3822 879 
Q 4044 1125 4044 1516 
z
" transform="scale(0.015625)"/>
     <path id="DejaVuSerif-2192" d="M 366 2322 
L 4391 2322 
L 3788 3375 
L 3822 3375 
L 5125 2084 
L 5125 2053 
L 3822 763 
L 3788 763 
L 4391 1816 
L 366 1816 
L 366 2322 
z
" transform="scale(0.015625)"/>
    </defs>
    <use xlink:href="#DejaVuSerif-34"/>
    <use xlink:href="#DejaVuSerif-30" x="63.623047"/>
    <use xlink:href="#DejaVuSerif-20" x="127.246094"/>
    <use xlink:href="#DejaVuSerif-3bc" x="159.033203"/>
    <use xlink:href="#DejaVuSerif-56" x="224.023438"/>
    <use xlink:href="#DejaVuSerif-20" x="296.240234"/>
    <use xlink:href="#DejaVuSerif-40" x="328.027344"/>
    <use xlink:href="#DejaVuSerif-20" x="428.027344"/>
    <use xlink:href="#DejaVuSerif-35" x="459.814453"/>
    <use xlink:href="#DejaVuSerif-2e" x="523.4375"/>
    <use xlink:href="#DejaVuSerif-30" x="555.224609"/>
    <use xlink:href="#DejaVuSerif-20" x="618.847656"/>
    <use xlink:href="#DejaVuSerif-6d" x="650.634766"/>
    <use xlink:href="#DejaVuSerif-20" x="745.458984"/>
    <use xlink:href="#DejaVuSerif-2192" x="777.246094"/>
   </g>
  </g>
  <g id="text_19">
   <!-- 40 μV @ 6.9 m → -->
   <g transform="translate(172.146018 257.127781) rotate(-60) scale(0.14 -0.14)">
    <use xlink:href="#DejaVuSerif-34"/>
    <use xlink:href="#DejaVuSerif-30" x="63.623047"/>
    <use xlink:href="#DejaVuSerif-20" x="127.246094"/>
    <use xlink:href="#DejaVuSerif-3bc" x="159.033203"/>
    <use xlink:href="#DejaVuSerif-56" x="224.023438"/>
    <use xlink:href="#DejaVuSerif-20" x="296.240234"/>
    <use xlink:href="#DejaVuSerif-40" x="328.027344"/>
    <use xlink:href="#DejaVuSerif-20" x="428.027344"/>
    <use xlink:href="#DejaVuSerif-36" x="459.814453"/>
    <use xlink:href="#DejaVuSerif-2e" x="523.4375"/>
    <use xlink:href="#DejaVuSerif-39" x="555.224609"/>
    <use xlink:href="#DejaVuSerif-20" x="618.847656"/>
    <use xlink:href="#DejaVuSerif-6d" x="650.634766"/>
    <use xlink:href="#DejaVuSerif-20" x="745.458984"/>
    <use xlink:href="#DejaVuSerif-2192" x="777.246094"/>
   </g>
  </g>
 </g>
 <defs>
  <clipPath id="pd483d60ad9">
   <path d="M 409.894375 434.986563 
C 409.894375 332.235201 369.033019 233.587162 296.376835 160.930978 
C 223.720651 88.274793 125.072611 47.413437 22.32125 47.413437 
L 22.32125 434.986563 
C 22.32125 434.986563 22.32125 434.986563 22.32125 434.986563 
C 22.32125 434.986563 22.32125 434.986563 22.32125 434.986563 
z
"/>
  </clipPath>
 </defs>
</svg>
