<?xml version="1.0" encoding="utf-8" standalone="no"?>
<!DOCTYPE svg PUBLIC "-//W3C//DTD SVG 1.1//EN"
  "http://www.w3.org/Graphics/SVG/1.1/DTD/svg11.dtd">
<svg xmlns:xlink="http://www.w3.org/1999/xlink" width="504pt" height="428.4pt" viewBox="0 0 504 428.4" xmlns="http://www.w3.org/2000/svg" version="1.1">
 <metadata>
  <rdf:RDF xmlns:dc="http://purl.org/dc/elements/1.1/" xmlns:cc="http://creativecommons.org/ns#" xmlns:rdf="http://www.w3.org/1999/02/22-rdf-syntax-ns#">
   <cc:Work>
    <dc:type rdf:resource="http://purl.org/dc/dcmitype/StillImage"/>
    <dc:date>2023-04-10T18:28:32.111725</dc:date>
    <dc:format>image/svg+xml</dc:format>
    <dc:creator>
     <cc:Agent>
      <dc:title>Matplotlib v3.7.1, https://matplotlib.org/</dc:title>
     </cc:Agent>
    </dc:creator>
   </cc:Work>
  </rdf:RDF>
 </metadata>
 <defs>
  <style type="text/css">*{stroke-linejoin: round; stroke-linecap: butt}</style>
 </defs>
 <g id="figure_1">
  <g id="patch_1">
   <path d="M 0 428.4 
L 504 428.4 
L 504 0 
L 0 0 
L 0 428.4 
z
" style="fill: none"/>
  </g>
  <g id="axes_1">
   <g id="patch_2">
    <path d="M 423.234 381.276 
C 423.234 293.82312 388.456424 209.862625 326.6179 148.0241 
C 264.779375 86.185576 180.81888 51.408 93.366 51.408 
L 93.366 381.276 
C 93.366 381.276 93.366 381.276 93.366 381.276 
C 93.366 381.276 93.366 381.276 93.366 381.276 
L 423.234 381.276 
z
" style="fill: none"/>
   </g>
   <g id="PolyCollection_1">
    <defs>
     <path id="m1a258f60c1" d="M 407.274446 -47.124 
L 93.366 -47.124 
L 93.366 -47.124 
L 93.366 -47.124 
L 93.366 -47.124 
L 93.366 -47.124 
L 93.366 -47.124 
L 93.366 -47.124 
L 93.366 -47.124 
L 93.366 -47.124 
L 93.366 -47.124 
L 93.366 -47.124 
L 93.366 -47.124 
L 93.366 -47.124 
L 93.366 -47.124 
L 93.366 -47.124 
L 93.366 -47.124 
L 93.366 -47.124 
L 93.366 -47.124 
L 93.366 -47.124 
L 93.366 -47.124 
L 93.366 -47.124 
L 93.366 -47.124 
L 93.366 -47.124 
L 93.366 -47.124 
L 93.366 -47.124 
L 93.366 -47.124 
L 93.366 -47.124 
L 93.366 -47.124 
L 93.366 -47.124 
L 93.366 -47.124 
L 93.366 -47.124 
L 93.366 -47.124 
L 93.366 -47.124 
L 93.366 -47.124 
L 93.366 -47.124 
L 93.366 -47.124 
L 93.366 -47.124 
L 93.366 -47.124 
L 93.366 -47.124 
L 93.366 -47.124 
L 93.366 -47.124 
L 93.366 -47.124 
L 93.366 -47.124 
L 93.366 -47.124 
L 93.366 -47.124 
L 93.366 -47.124 
L 93.366 -47.124 
L 93.366 -47.124 
L 93.366 -47.124 
L 93.366 -47.124 
L 93.366 -47.124 
L 93.366 -47.124 
L 93.366 -47.124 
L 93.366 -47.124 
L 93.366 -47.124 
L 93.366 -47.124 
L 93.366 -47.124 
L 93.366 -47.124 
L 93.366 -47.124 
L 93.366 -47.124 
L 93.366 -47.124 
L 93.366 -47.124 
L 93.366 -47.124 
L 93.366 -47.124 
L 93.366 -47.124 
L 93.366 -47.124 
L 93.366 -47.124 
L 93.366 -47.124 
L 93.366 -47.124 
L 93.366 -47.124 
L 93.366 -47.124 
L 93.366 -47.124 
L 93.366 -47.124 
L 93.366 -47.124 
L 93.366 -47.124 
L 93.366 -47.124 
L 93.366 -47.124 
L 93.366 -47.124 
L 93.366 -47.124 
L 93.366 -47.124 
L 93.366 -47.124 
L 93.366 -47.124 
L 93.366 -47.124 
L 93.366 -47.124 
L 93.366 -47.124 
L 93.366 -47.124 
L 93.366 -47.124 
L 93.366 -47.124 
L 93.366 -47.124 
L 93.366 -47.124 
L 93.366 -47.124 
L 93.366 -47.124 
L 93.366 -47.124 
L 93.366 -47.124 
L 93.366 -47.124 
L 93.366 -47.124 
L 93.366 -47.124 
L 93.366 -47.124 
L 93.366 -47.124 
L 93.366 -47.124 
L 93.366 -47.124 
L 93.366 -47.124 
L 93.366 -47.124 
L 93.366 -47.124 
L 93.366 -47.124 
L 93.366 -47.124 
L 93.366 -47.124 
L 93.366 -47.124 
L 93.366 -47.124 
L 93.366 -47.124 
L 93.366 -47.124 
L 93.366 -47.124 
L 93.366 -47.124 
L 93.366 -47.124 
L 93.366 -47.124 
L 93.366 -47.124 
L 93.366 -47.124 
L 93.366 -47.124 
L 93.366 -47.124 
L 93.366 -47.124 
L 93.366 -47.124 
L 93.366 -47.124 
L 93.366 -47.124 
L 93.366 -47.124 
L 93.366 -47.124 
L 93.366 -47.124 
L 93.366 -47.124 
L 93.366 -47.124 
L 93.366 -47.124 
L 93.366 -47.124 
L 93.366 -47.124 
L 93.366 -47.124 
L 93.366 -47.124 
L 93.366 -47.124 
L 93.366 -47.124 
L 93.366 -47.124 
L 93.366 -47.124 
L 93.366 -47.124 
L 93.366 -47.124 
L 93.366 -47.124 
L 93.366 -47.124 
L 93.366 -47.124 
L 93.366 -47.124 
L 93.366 -47.124 
L 93.366 -47.124 
L 93.366 -47.124 
L 93.366 -47.124 
L 93.366 -47.124 
L 93.366 -47.124 
L 93.366 -47.124 
L 93.366 -47.124 
L 93.366 -47.124 
L 93.366 -47.124 
L 93.366 -47.124 
L 93.366 -47.124 
L 93.366 -47.124 
L 93.366 -47.124 
L 93.366 -47.124 
L 93.366 -47.124 
L 93.366 -47.124 
L 93.366 -47.124 
L 93.366 -47.124 
L 93.366 -47.124 
L 93.366 -47.124 
L 93.366 -47.124 
L 93.366 -47.124 
L 93.366 -47.124 
L 93.366 -47.124 
L 93.366 -47.124 
L 93.366 -47.124 
L 93.366 -47.124 
L 93.366 -47.124 
L 93.366 -47.124 
L 93.366 -47.124 
L 93.366 -47.124 
L 93.366 -47.124 
L 93.366 -47.124 
L 93.366 -47.124 
L 93.366 -47.124 
L 93.366 -47.124 
L 93.366 -47.124 
L 93.366 -47.124 
L 93.366 -47.124 
L 93.366 -47.124 
L 93.366 -47.124 
L 93.366 -47.124 
L 93.366 -47.124 
L 93.366 -47.124 
L 93.366 -47.124 
L 93.366 -47.124 
L 93.366 -47.124 
L 93.366 -47.124 
L 93.366 -47.124 
L 93.366 -47.124 
L 93.366 -47.124 
L 93.366 -47.124 
L 93.366 -47.124 
L 93.366 -47.124 
L 93.366 -47.124 
L 93.366 -47.124 
L 93.366 -47.124 
L 93.366 -47.124 
L 93.366 -47.124 
L 93.366 -47.124 
L 93.366 -47.124 
L 93.366 -47.124 
L 93.366 -47.124 
L 93.366 -47.124 
L 93.366 -47.124 
L 93.366 -47.124 
L 93.366 -47.124 
L 93.366 -47.124 
L 93.366 -47.124 
L 93.366 -47.124 
L 93.366 -47.124 
L 93.366 -47.124 
L 93.366 -47.124 
L 93.366 -47.124 
L 93.366 -47.124 
L 93.366 -47.124 
L 93.366 -47.124 
L 93.366 -47.124 
L 93.366 -47.124 
L 93.366 -47.124 
L 93.366 -47.124 
L 93.366 -47.124 
L 93.366 -47.124 
L 93.366 -47.124 
L 93.366 -47.124 
L 93.366 -47.124 
L 93.366 -47.124 
L 93.366 -47.124 
L 93.366 -47.124 
L 93.366 -47.124 
L 93.366 -47.124 
L 93.366 -47.124 
L 93.366 -47.124 
L 93.366 -47.124 
L 93.366 -47.124 
L 93.366 -47.124 
L 93.366 -47.124 
L 93.366 -47.124 
L 93.366 -47.124 
L 93.366 -47.124 
L 93.366 -47.124 
L 93.366 -47.124 
L 93.366 -47.124 
L 93.366 -47.124 
L 93.366 -47.124 
L 93.366 -47.124 
L 93.366 -47.124 
L 93.366 -47.124 
L 93.366 -47.124 
L 93.366 -47.124 
L 93.366 -47.124 
L 93.366 -47.124 
L 93.366 -47.124 
L 93.366 -47.124 
L 93.366 -47.124 
L 93.366 -47.124 
L 93.366 -47.124 
L 93.366 -47.124 
L 93.366 -47.124 
L 93.366 -47.124 
L 93.366 -47.124 
L 93.366 -47.124 
L 93.366 -47.124 
L 93.366 -47.124 
L 93.366 -47.124 
L 93.366 -47.124 
L 93.366 -47.124 
L 93.366 -47.124 
L 93.366 -47.124 
L 93.366 -47.124 
L 93.366 -47.124 
L 93.366 -47.124 
L 93.366 -47.124 
L 93.366 -47.124 
L 93.366 -47.124 
L 93.366 -47.124 
L 93.366 -47.124 
L 93.366 -47.124 
L 93.366 -47.124 
L 93.366 -47.124 
L 93.366 -47.124 
L 93.366 -47.124 
L 93.366 -47.124 
L 93.366 -47.124 
L 93.366 -47.124 
L 93.366 -47.124 
L 93.366 -47.124 
L 93.366 -47.124 
L 93.366 -47.124 
L 93.366 -47.124 
L 93.366 -47.124 
L 93.366 -47.124 
L 93.366 -47.124 
L 93.366 -47.124 
L 93.366 -47.124 
L 93.366 -47.124 
L 93.366 -47.124 
L 93.366 -47.124 
L 93.366 -47.124 
L 93.366 -47.124 
L 93.366 -47.124 
L 93.366 -47.124 
L 93.366 -47.124 
L 93.366 -47.124 
L 93.366 -47.124 
L 93.366 -47.124 
L 93.366 -47.124 
L 93.366 -47.124 
L 93.366 -47.124 
L 93.366 -47.124 
L 93.366 -47.124 
L 93.366 -47.124 
L 93.366 -47.124 
L 93.366 -47.124 
L 93.366 -47.124 
L 93.366 -47.124 
L 93.366 -47.124 
L 93.366 -47.124 
L 93.366 -47.124 
L 93.366 -47.124 
L 93.366 -47.124 
L 93.366 -47.124 
L 93.366 -47.124 
L 93.366 -47.124 
L 93.366 -47.124 
L 93.366 -47.124 
L 93.366 -47.124 
L 93.366 -47.124 
L 93.366 -47.124 
L 93.366 -47.124 
L 93.366 -47.124 
L 93.366 -47.124 
L 93.366 -47.124 
L 93.366 -47.124 
L 93.366 -47.124 
L 93.366 -47.124 
L 93.366 -47.124 
L 93.366 -47.124 
L 93.366 -47.124 
L 93.366 -47.124 
L 93.366 -47.124 
L 93.366 -47.124 
L 93.366 -47.124 
L 93.366 -47.124 
L 93.366 -47.124 
L 93.366 -47.124 
L 93.366 -47.124 
L 93.366 -47.124 
L 93.366 -47.124 
L 93.366 -47.124 
L 93.366 -47.124 
L 93.366 -47.124 
L 93.366 -47.124 
L 93.366 -47.124 
L 93.366 -47.124 
L 93.366 -47.124 
L 93.366 -47.124 
L 93.366 -47.124 
L 93.366 -47.124 
L 93.366 -47.124 
L 93.366 -47.124 
L 93.366 -47.124 
L 93.366 -47.124 
L 93.366 -47.124 
L 93.366 -47.124 
L 93.366 -47.124 
L 93.366 -47.124 
L 93.366 -47.124 
L 93.366 -47.124 
L 93.366 -47.124 
L 93.366 -47.124 
L 93.366 -47.124 
L 93.366 -47.124 
L 93.366 -47.124 
L 93.366 -47.124 
L 93.366 -47.124 
L 93.366 -47.124 
L 93.366 -47.124 
L 93.366 -47.124 
L 93.366 -47.124 
L 93.366 -47.124 
L 93.366 -47.124 
L 93.366 -47.124 
L 93.366 -47.124 
L 93.366 -47.124 
L 93.366 -47.124 
L 93.366 -47.124 
L 93.366 -47.124 
L 93.366 -47.124 
L 93.366 -47.124 
L 93.366 -47.124 
L 93.366 -47.124 
L 93.366 -47.124 
L 93.366 -47.124 
L 93.366 -47.124 
L 93.366 -47.124 
L 93.366 -47.124 
L 93.366 -47.124 
L 93.366 -47.124 
L 93.366 -47.124 
L 93.366 -47.124 
L 93.366 -47.124 
L 93.366 -47.124 
L 93.366 -47.124 
L 93.366 -47.124 
L 93.366 -47.124 
L 93.366 -47.124 
L 93.366 -47.124 
L 93.366 -47.124 
L 93.366 -47.124 
L 93.366 -47.124 
L 93.366 -47.124 
L 93.366 -47.124 
L 93.366 -47.124 
L 93.366 -47.124 
L 93.366 -47.124 
L 93.366 -47.124 
L 93.366 -47.124 
L 93.366 -47.124 
L 93.366 -47.124 
L 93.366 -47.124 
L 93.366 -47.124 
L 93.366 -47.124 
L 93.366 -47.124 
L 93.366 -47.124 
L 93.366 -47.124 
L 93.366 -47.124 
L 93.366 -47.124 
L 93.366 -47.124 
L 93.366 -47.124 
L 93.366 -47.124 
L 93.366 -47.124 
L 93.366 -47.124 
L 93.366 -47.124 
L 93.366 -47.124 
L 93.366 -47.124 
L 93.366 -47.124 
L 93.366 -47.124 
L 93.366 -47.124 
L 93.366 -47.124 
L 93.366 -47.124 
L 93.366 -47.124 
L 93.366 -47.124 
L 93.366 -47.124 
L 93.366 -47.124 
L 93.366 -47.124 
L 93.366 -47.124 
L 93.366 -47.124 
L 93.366 -47.124 
L 93.366 -47.124 
L 93.366 -47.124 
L 93.366 -47.124 
L 93.366 -47.124 
L 93.366 -47.124 
L 93.366 -47.124 
L 93.366 -47.124 
L 93.366 -47.124 
L 93.366 -47.124 
L 93.366 -47.124 
L 93.366 -47.124 
L 93.366 -47.124 
L 93.366 -47.124 
L 93.366 -47.124 
L 93.366 -47.124 
L 93.366 -47.124 
L 93.366 -47.124 
L 93.366 -47.124 
L 93.366 -47.124 
L 93.366 -47.124 
L 93.366 -47.124 
L 93.366 -47.124 
L 93.366 -47.124 
L 93.366 -47.124 
L 93.366 -47.124 
L 93.366 -47.124 
L 93.366 -47.124 
L 93.366 -47.124 
L 93.366 -47.124 
L 93.366 -47.124 
L 93.366 -47.124 
L 93.366 -47.124 
L 93.366 -47.124 
L 93.366 -47.124 
L 93.366 -47.124 
L 93.366 -47.124 
L 93.366 -47.124 
L 93.366 -47.124 
L 93.366 -47.124 
L 93.366 -47.124 
L 93.366 -47.124 
L 93.366 -47.124 
L 93.366 -47.124 
L 93.366 -47.124 
L 93.366 -47.124 
L 93.366 -47.124 
L 93.366 -47.124 
L 93.366 -286.671972 
L 93.366 -286.671972 
L 94.120548 -286.822903 
L 94.876041 -286.970685 
L 95.632465 -287.115324 
L 96.389805 -287.256827 
L 97.148047 -287.395203 
L 97.907176 -287.53046 
L 98.667179 -287.662604 
L 99.428041 -287.791644 
L 100.189748 -287.917588 
L 100.952287 -288.040444 
L 101.715644 -288.16022 
L 102.479805 -288.276923 
L 103.244758 -288.390563 
L 104.010489 -288.501147 
L 104.776984 -288.608683 
L 105.544232 -288.713181 
L 106.312219 -288.814647 
L 107.080932 -288.913091 
L 107.85036 -289.008521 
L 108.620489 -289.100946 
L 109.391307 -289.190374 
L 110.162802 -289.276814 
L 110.934963 -289.360274 
L 111.707777 -289.440764 
L 112.481233 -289.518292 
L 113.255319 -289.592866 
L 114.030023 -289.664496 
L 114.805335 -289.73319 
L 115.581243 -289.798958 
L 116.357736 -289.861808 
L 117.134803 -289.92175 
L 117.912434 -289.978792 
L 118.690618 -290.032943 
L 119.469344 -290.084214 
L 120.248602 -290.132611 
L 121.028382 -290.178146 
L 121.808674 -290.220827 
L 122.589468 -290.260663 
L 123.370753 -290.297664 
L 124.152522 -290.331838 
L 124.934763 -290.363196 
L 125.717468 -290.391747 
L 126.500627 -290.417499 
L 127.284231 -290.440462 
L 128.068272 -290.460646 
L 128.85274 -290.478061 
L 129.637627 -290.492715 
L 130.422925 -290.504617 
L 131.208624 -290.513779 
L 131.994717 -290.520208 
L 132.781195 -290.523915 
L 133.56805 -290.524909 
L 134.355276 -290.523199 
L 135.142863 -290.518796 
L 135.930805 -290.511708 
L 136.719093 -290.501946 
L 137.507722 -290.489518 
L 138.296682 -290.474435 
L 139.085968 -290.456706 
L 139.875573 -290.43634 
L 140.66549 -290.413348 
L 141.455711 -290.387738 
L 142.246232 -290.359521 
L 143.037045 -290.328706 
L 143.828144 -290.295302 
L 144.619524 -290.25932 
L 145.411177 -290.220769 
L 146.203099 -290.179657 
L 146.995284 -290.135996 
L 147.787727 -290.089795 
L 148.580421 -290.041062 
L 149.373362 -289.989809 
L 150.166544 -289.936043 
L 150.959964 -289.879776 
L 151.753615 -289.821016 
L 152.547493 -289.759772 
L 153.341594 -289.696055 
L 154.135912 -289.629874 
L 154.930445 -289.561238 
L 155.725187 -289.490157 
L 156.520135 -289.416641 
L 157.315285 -289.340698 
L 158.110633 -289.262338 
L 158.906175 -289.18157 
L 159.701908 -289.098404 
L 160.497829 -289.01285 
L 161.293934 -288.924915 
L 162.09022 -288.834611 
L 162.886684 -288.741945 
L 163.683324 -288.646928 
L 164.480137 -288.549568 
L 165.27712 -288.449874 
L 166.07427 -288.347856 
L 166.871586 -288.243523 
L 167.669066 -288.136884 
L 168.466706 -288.027947 
L 169.264506 -287.916723 
L 170.062463 -287.803219 
L 170.860577 -287.687445 
L 171.658844 -287.569409 
L 172.457265 -287.449121 
L 173.255837 -287.326589 
L 174.054559 -287.201823 
L 174.853432 -287.074829 
L 175.652452 -286.945619 
L 176.451621 -286.814199 
L 177.250936 -286.680579 
L 178.050399 -286.544767 
L 178.850007 -286.406771 
L 179.649762 -286.266601 
L 180.449662 -286.124264 
L 181.249708 -285.979769 
L 182.049901 -285.833124 
L 182.850239 -285.684337 
L 183.650724 -285.533416 
L 184.451355 -285.38037 
L 185.252134 -285.225207 
L 186.053062 -285.067934 
L 186.854138 -284.90856 
L 187.655364 -284.747092 
L 188.456742 -284.583539 
L 189.258271 -284.417907 
L 190.059955 -284.250206 
L 190.861793 -284.080441 
L 191.663787 -283.908622 
L 192.46594 -283.734755 
L 193.268252 -283.558847 
L 194.070727 -283.380908 
L 194.873365 -283.200942 
L 195.676168 -283.018959 
L 196.47914 -282.834964 
L 197.282282 -282.648965 
L 198.085597 -282.46097 
L 198.889088 -282.270984 
L 199.692756 -282.079016 
L 200.496606 -281.885071 
L 201.300639 -281.689156 
L 202.104858 -281.491279 
L 202.909268 -281.291445 
L 203.71387 -281.089661 
L 204.518669 -280.885934 
L 205.323668 -280.680269 
L 206.12887 -280.472674 
L 206.934278 -280.263154 
L 207.739898 -280.051716 
L 208.545731 -279.838364 
L 209.351784 -279.623106 
L 210.158058 -279.405948 
L 210.96456 -279.186894 
L 211.771292 -278.96595 
L 212.578259 -278.743123 
L 213.385466 -278.518417 
L 214.192917 -278.291838 
L 215.000618 -278.063391 
L 215.808571 -277.833081 
L 216.616783 -277.600914 
L 217.425259 -277.366895 
L 218.234003 -277.131028 
L 219.04302 -276.893319 
L 219.852316 -276.653771 
L 220.661896 -276.41239 
L 221.471766 -276.16918 
L 222.281931 -275.924146 
L 223.092396 -275.677292 
L 223.903167 -275.428622 
L 224.714251 -275.17814 
L 225.525651 -274.92585 
L 226.337366 -274.671739 
L 227.149386 -274.415788 
L 227.961704 -274.157976 
L 228.774309 -273.898283 
L 229.587194 -273.636689 
L 230.400349 -273.373173 
L 231.213764 -273.107716 
L 232.02743 -272.840298 
L 232.841336 -272.570899 
L 233.655472 -272.299499 
L 234.469828 -272.026078 
L 235.284394 -271.750617 
L 236.099158 -271.473096 
L 236.914109 -271.193497 
L 237.729237 -270.911799 
L 238.544529 -270.627983 
L 239.359974 -270.342031 
L 240.17556 -270.053923 
L 240.991275 -269.763641 
L 241.807107 -269.471165 
L 242.623043 -269.176477 
L 243.439071 -268.879559 
L 244.255177 -268.580391 
L 245.071349 -268.278957 
L 245.887572 -267.975236 
L 246.703834 -267.669212 
L 247.520121 -267.360866 
L 248.336419 -267.05018 
L 249.152713 -266.737136 
L 249.96899 -266.421718 
L 250.785234 -266.103906 
L 251.601432 -265.783685 
L 252.417568 -265.461036 
L 253.233626 -265.135942 
L 254.049593 -264.808387 
L 254.865451 -264.478353 
L 255.681186 -264.145824 
L 256.496782 -263.810783 
L 257.312222 -263.473213 
L 258.12749 -263.133099 
L 258.94257 -262.790423 
L 259.757445 -262.44517 
L 260.572098 -262.097323 
L 261.386512 -261.746868 
L 262.20067 -261.393787 
L 263.014554 -261.038067 
L 263.828147 -260.67969 
L 264.641431 -260.318642 
L 265.454389 -259.954909 
L 266.267001 -259.588474 
L 267.07925 -259.219323 
L 267.891118 -258.847441 
L 268.702584 -258.472814 
L 269.513632 -258.095428 
L 270.324241 -257.715268 
L 271.134392 -257.33232 
L 271.944067 -256.946571 
L 272.753245 -256.558006 
L 273.561906 -256.166612 
L 274.370032 -255.772376 
L 275.177601 -255.375284 
L 275.984595 -254.975323 
L 276.790991 -254.57248 
L 277.59677 -254.166743 
L 278.401911 -253.758099 
L 279.206393 -253.346536 
L 280.010195 -252.932041 
L 280.813296 -252.514602 
L 281.615674 -252.094207 
L 282.417308 -251.670845 
L 283.218177 -251.244504 
L 284.018258 -250.815172 
L 284.817529 -250.382839 
L 285.615969 -249.947494 
L 286.413555 -249.509125 
L 287.210265 -249.067722 
L 288.006075 -248.623274 
L 288.800964 -248.175772 
L 289.594908 -247.725204 
L 290.387885 -247.271562 
L 291.17987 -246.814835 
L 291.970842 -246.355014 
L 292.760776 -245.892089 
L 293.549648 -245.426051 
L 294.337433 -244.956889 
L 295.124105 -244.484594 
L 295.90964 -244.009154 
L 296.694012 -243.530561 
L 297.477194 -243.048805 
L 298.259161 -242.563877 
L 299.039887 -242.075767 
L 299.819346 -241.584467 
L 300.597511 -241.089969 
L 301.374356 -240.592263 
L 302.149854 -240.091341 
L 302.923979 -239.587197 
L 303.696703 -239.079821 
L 304.468 -238.569206 
L 305.237842 -238.055346 
L 306.006202 -237.538232 
L 306.773052 -237.017859 
L 307.538366 -236.494219 
L 308.302114 -235.967307 
L 309.064271 -235.437115 
L 309.824806 -234.903639 
L 310.583693 -234.366872 
L 311.340904 -233.82681 
L 312.096409 -233.283446 
L 312.85018 -232.736776 
L 313.60219 -232.186795 
L 314.352408 -231.633499 
L 315.100807 -231.076883 
L 315.847358 -230.516944 
L 316.592031 -229.953677 
L 317.334797 -229.387079 
L 318.075627 -228.817148 
L 318.814492 -228.243879 
L 319.551363 -227.66727 
L 320.286209 -227.087319 
L 321.019002 -226.504023 
L 321.74971 -225.91738 
L 322.478306 -225.327388 
L 323.204758 -224.734046 
L 323.929036 -224.137353 
L 324.651111 -223.537308 
L 325.370953 -222.933909 
L 326.08853 -222.327156 
L 326.803813 -221.717049 
L 327.51677 -221.103589 
L 328.227373 -220.486774 
L 328.935589 -219.866606 
L 329.641388 -219.243085 
L 330.34474 -218.616213 
L 331.045613 -217.985991 
L 331.743977 -217.35242 
L 332.4398 -216.715502 
L 333.133052 -216.075239 
L 333.823701 -215.431633 
L 334.511716 -214.784687 
L 335.197066 -214.134405 
L 335.879719 -213.480788 
L 336.559644 -212.823841 
L 337.236809 -212.163566 
L 337.911184 -211.499969 
L 338.582735 -210.833053 
L 339.251433 -210.162822 
L 339.917244 -209.489282 
L 340.580138 -208.812436 
L 341.240082 -208.132292 
L 341.897045 -207.448853 
L 342.550994 -206.762127 
L 343.201899 -206.072118 
L 343.849725 -205.378834 
L 344.494443 -204.682281 
L 345.13602 -203.982465 
L 345.774423 -203.279395 
L 346.40962 -202.573077 
L 347.04158 -201.863519 
L 347.67027 -201.150729 
L 348.295658 -200.434716 
L 348.917712 -199.715488 
L 349.536399 -198.993054 
L 350.151687 -198.267423 
L 350.763544 -197.538604 
L 351.371938 -196.806607 
L 351.976836 -196.071442 
L 352.578217 -195.333126 
L 353.176078 -194.591686 
L 353.770418 -193.847149 
L 354.361234 -193.099542 
L 354.948525 -192.348894 
L 355.532291 -191.59523 
L 356.11253 -190.838579 
L 356.689241 -190.078967 
L 357.262424 -189.316421 
L 357.832078 -188.550969 
L 358.398204 -187.782635 
L 358.960802 -187.011448 
L 359.519871 -186.237434 
L 360.075412 -185.460619 
L 360.627425 -184.681029 
L 361.175912 -183.89869 
L 361.720874 -183.113628 
L 362.262311 -182.32587 
L 362.800226 -181.53544 
L 363.334619 -180.742365 
L 363.865492 -179.94667 
L 364.392847 -179.14838 
L 364.916687 -178.347521 
L 365.437013 -177.544118 
L 365.953829 -176.738195 
L 366.467136 -175.929777 
L 366.976938 -175.11889 
L 367.483237 -174.305557 
L 367.986038 -173.489804 
L 368.485342 -172.671654 
L 368.981154 -171.851132 
L 369.473477 -171.028262 
L 369.962315 -170.203068 
L 370.447673 -169.375573 
L 370.929554 -168.545801 
L 371.407963 -167.713775 
L 371.882903 -166.87952 
L 372.354381 -166.043057 
L 372.822401 -165.204411 
L 373.286968 -164.363604 
L 373.748087 -163.520658 
L 374.205763 -162.675597 
L 374.660002 -161.828443 
L 375.110809 -160.979219 
L 375.558191 -160.127945 
L 376.002152 -159.274645 
L 376.442701 -158.419341 
L 376.879842 -157.562053 
L 377.313581 -156.702804 
L 377.743927 -155.841615 
L 378.170885 -154.978508 
L 378.594461 -154.113503 
L 379.014664 -153.24662 
L 379.4315 -152.377882 
L 379.844977 -151.507309 
L 380.255101 -150.634921 
L 380.661881 -149.760738 
L 381.065324 -148.884781 
L 381.465438 -148.00707 
L 381.862231 -147.127624 
L 382.255711 -146.246462 
L 382.645886 -145.363606 
L 383.032765 -144.479073 
L 383.416355 -143.592883 
L 383.796666 -142.705055 
L 384.173707 -141.815608 
L 384.547485 -140.92456 
L 384.918011 -140.031931 
L 385.285293 -139.137737 
L 385.649341 -138.241998 
L 386.010163 -137.344731 
L 386.367769 -136.445954 
L 386.722169 -135.545684 
L 387.073373 -134.64394 
L 387.42139 -133.740739 
L 387.76623 -132.836096 
L 388.107903 -131.93003 
L 388.44642 -131.022558 
L 388.781789 -130.113695 
L 389.114023 -129.203458 
L 389.443131 -128.291863 
L 389.769124 -127.378927 
L 390.092012 -126.464665 
L 390.411806 -125.549092 
L 390.728517 -124.632225 
L 391.042156 -123.714079 
L 391.352733 -122.794668 
L 391.660261 -121.874008 
L 391.96475 -120.952114 
L 392.266211 -120.028999 
L 392.564656 -119.104679 
L 392.860097 -118.179167 
L 393.152544 -117.252477 
L 393.442009 -116.324625 
L 393.728505 -115.395622 
L 394.012043 -114.465482 
L 394.292635 -113.53422 
L 394.570292 -112.601847 
L 394.845027 -111.668377 
L 395.116853 -110.733822 
L 395.38578 -109.798195 
L 395.651821 -108.861509 
L 395.91499 -107.923774 
L 396.175297 -106.985004 
L 396.432755 -106.04521 
L 396.687378 -105.104404 
L 396.939177 -104.162597 
L 397.188166 -103.219799 
L 397.434356 -102.276023 
L 397.677761 -101.331279 
L 397.918393 -100.385577 
L 398.156265 -99.438928 
L 398.391391 -98.491342 
L 398.623783 -97.542829 
L 398.853454 -96.593399 
L 399.080418 -95.643062 
L 399.304687 -94.691826 
L 399.526274 -93.739702 
L 399.745194 -92.786697 
L 399.961458 -91.832822 
L 400.17508 -90.878085 
L 400.386075 -89.922493 
L 400.594454 -88.966056 
L 400.800232 -88.008782 
L 401.003421 -87.050677 
L 401.204036 -86.091751 
L 401.40209 -85.13201 
L 401.597596 -84.171461 
L 401.790569 -83.210112 
L 401.98102 -82.24797 
L 402.168965 -81.285041 
L 402.354417 -80.321332 
L 402.537389 -79.356849 
L 402.717895 -78.391597 
L 402.89595 -77.425584 
L 403.071565 -76.458814 
L 403.244756 -75.491294 
L 403.415536 -74.523027 
L 403.583919 -73.55402 
L 403.749919 -72.584278 
L 403.913548 -71.613804 
L 404.074822 -70.642604 
L 404.233754 -69.670681 
L 404.390357 -68.698041 
L 404.544646 -67.724686 
L 404.696635 -66.75062 
L 404.846336 -65.775847 
L 404.993765 -64.800371 
L 405.138934 -63.824194 
L 405.281857 -62.847319 
L 405.422549 -61.869749 
L 405.561023 -60.891486 
L 405.697292 -59.912532 
L 405.831371 -58.932891 
L 405.963274 -57.952563 
L 406.093013 -56.97155 
L 406.220603 -55.989855 
L 406.346058 -55.007477 
L 406.46939 -54.024419 
L 406.590614 -53.04068 
L 406.709744 -52.056263 
L 406.826792 -51.071167 
L 406.941773 -50.085393 
L 407.0547 -49.09894 
L 407.165586 -48.111809 
L 407.274446 -47.124 
z
" style="stroke: #000000; stroke-opacity: 0.075"/>
    </defs>
    <g clip-path="url(#p47fd7c3e3c)">
     <use xlink:href="#m1a258f60c1" x="0" y="428.4" style="fill-opacity: 0.075; stroke: #000000; stroke-opacity: 0.075"/>
    </g>
   </g>
   <g id="matplotlib.axis_1">
    <g id="xtick_1">
     <g id="line2d_1">
      <path d="M 93.366 381.276 
L 423.234 381.276 
" clip-path="url(#p47fd7c3e3c)" style="fill: none; stroke: #b0b0b0; stroke-width: 0.8; stroke-linecap: square"/>
     </g>
     <g id="text_1">
      <!-- 0° -->
      <g transform="translate(429.848375 384.863188) scale(0.13 -0.13)">
       <defs>
        <path id="DejaVuSerif-30" d="M 2034 219 
Q 2513 219 2750 744 
Q 2988 1269 2988 2328 
Q 2988 3391 2750 3916 
Q 2513 4441 2034 4441 
Q 1556 4441 1318 3916 
Q 1081 3391 1081 2328 
Q 1081 1269 1318 744 
Q 1556 219 2034 219 
z
M 2034 -91 
Q 1275 -91 848 546 
Q 422 1184 422 2328 
Q 422 3475 848 4112 
Q 1275 4750 2034 4750 
Q 2797 4750 3222 4112 
Q 3647 3475 3647 2328 
Q 3647 1184 3222 546 
Q 2797 -91 2034 -91 
z
" transform="scale(0.015625)"/>
        <path id="DejaVuSerif-b0" d="M 1600 4319 
Q 1363 4319 1200 4155 
Q 1038 3991 1038 3750 
Q 1038 3513 1198 3353 
Q 1359 3194 1600 3194 
Q 1838 3194 2000 3355 
Q 2163 3516 2163 3750 
Q 2163 3984 1997 4151 
Q 1831 4319 1600 4319 
z
M 1600 4750 
Q 1800 4750 1984 4673 
Q 2169 4597 2303 4453 
Q 2447 4313 2519 4134 
Q 2591 3956 2591 3750 
Q 2591 3338 2302 3052 
Q 2013 2766 1594 2766 
Q 1172 2766 890 3047 
Q 609 3328 609 3750 
Q 609 4169 896 4459 
Q 1184 4750 1600 4750 
z
" transform="scale(0.015625)"/>
       </defs>
       <use xlink:href="#DejaVuSerif-30"/>
       <use xlink:href="#DejaVuSerif-b0" x="63.623047"/>
      </g>
     </g>
    </g>
    <g id="xtick_2">
     <g id="line2d_2">
      <path d="M 93.366 381.276 
L 411.99402 295.899879 
" clip-path="url(#p47fd7c3e3c)" style="fill: none; stroke: #b0b0b0; stroke-width: 0.8; stroke-linecap: square"/>
     </g>
     <g id="text_2">
      <!-- 15° -->
      <g transform="translate(413.995732 295.8636) scale(0.13 -0.13)">
       <defs>
        <path id="DejaVuSerif-31" d="M 909 0 
L 909 331 
L 1722 331 
L 1722 4213 
L 781 3603 
L 781 4013 
L 1919 4750 
L 2350 4750 
L 2350 331 
L 3163 331 
L 3163 0 
L 909 0 
z
" transform="scale(0.015625)"/>
        <path id="DejaVuSerif-35" d="M 3219 4666 
L 3219 4153 
L 1081 4153 
L 1081 2816 
Q 1244 2928 1461 2984 
Q 1678 3041 1947 3041 
Q 2703 3041 3140 2622 
Q 3578 2203 3578 1478 
Q 3578 738 3136 323 
Q 2694 -91 1894 -91 
Q 1572 -91 1234 -12 
Q 897 66 544 225 
L 544 1131 
L 897 1131 
Q 925 688 1179 453 
Q 1434 219 1894 219 
Q 2388 219 2653 544 
Q 2919 869 2919 1478 
Q 2919 2084 2655 2407 
Q 2391 2731 1894 2731 
Q 1613 2731 1398 2631 
Q 1184 2531 1019 2322 
L 750 2322 
L 750 4666 
L 3219 4666 
z
" transform="scale(0.015625)"/>
       </defs>
       <use xlink:href="#DejaVuSerif-31"/>
       <use xlink:href="#DejaVuSerif-35" x="63.623047"/>
       <use xlink:href="#DejaVuSerif-b0" x="127.246094"/>
      </g>
     </g>
    </g>
    <g id="xtick_3">
     <g id="line2d_3">
      <path d="M 93.366 381.276 
L 379.040068 216.342 
" clip-path="url(#p47fd7c3e3c)" style="fill: none; stroke: #b0b0b0; stroke-width: 0.8; stroke-linecap: square"/>
     </g>
     <g id="text_3">
      <!-- 30° -->
      <g transform="translate(379.643174 212.929188) scale(0.13 -0.13)">
       <defs>
        <path id="DejaVuSerif-33" d="M 622 4469 
Q 988 4606 1323 4678 
Q 1659 4750 1953 4750 
Q 2638 4750 3022 4454 
Q 3406 4159 3406 3634 
Q 3406 3213 3140 2930 
Q 2875 2647 2388 2547 
Q 2963 2466 3280 2130 
Q 3597 1794 3597 1259 
Q 3597 606 3158 257 
Q 2719 -91 1894 -91 
Q 1528 -91 1179 -12 
Q 831 66 488 225 
L 488 1131 
L 838 1131 
Q 869 681 1141 450 
Q 1413 219 1906 219 
Q 2384 219 2661 495 
Q 2938 772 2938 1253 
Q 2938 1803 2653 2086 
Q 2369 2369 1819 2369 
L 1522 2369 
L 1522 2688 
L 1678 2688 
Q 2225 2688 2498 2914 
Q 2772 3141 2772 3597 
Q 2772 4006 2547 4223 
Q 2322 4441 1900 4441 
Q 1478 4441 1245 4241 
Q 1013 4041 972 3647 
L 622 3647 
L 622 4469 
z
" transform="scale(0.015625)"/>
       </defs>
       <use xlink:href="#DejaVuSerif-33"/>
       <use xlink:href="#DejaVuSerif-30" x="63.623047"/>
       <use xlink:href="#DejaVuSerif-b0" x="127.246094"/>
      </g>
     </g>
    </g>
    <g id="xtick_4">
     <g id="line2d_4">
      <path d="M 93.366 381.276 
L 326.6179 148.0241 
" clip-path="url(#p47fd7c3e3c)" style="fill: none; stroke: #b0b0b0; stroke-width: 0.8; stroke-linecap: square"/>
     </g>
     <g id="text_4">
      <!-- 45° -->
      <g transform="translate(324.996145 141.711793) scale(0.13 -0.13)">
       <defs>
        <path id="DejaVuSerif-34" d="M 2234 1581 
L 2234 4063 
L 641 1581 
L 2234 1581 
z
M 3609 0 
L 1484 0 
L 1484 331 
L 2234 331 
L 2234 1247 
L 197 1247 
L 197 1588 
L 2241 4750 
L 2859 4750 
L 2859 1581 
L 3750 1581 
L 3750 1247 
L 2859 1247 
L 2859 331 
L 3609 331 
L 3609 0 
z
" transform="scale(0.015625)"/>
       </defs>
       <use xlink:href="#DejaVuSerif-34"/>
       <use xlink:href="#DejaVuSerif-35" x="63.623047"/>
       <use xlink:href="#DejaVuSerif-b0" x="127.246094"/>
      </g>
     </g>
    </g>
    <g id="xtick_5">
     <g id="line2d_5">
      <path d="M 93.366 381.276 
L 258.3 95.601932 
" clip-path="url(#p47fd7c3e3c)" style="fill: none; stroke: #b0b0b0; stroke-width: 0.8; stroke-linecap: square"/>
     </g>
     <g id="text_5">
      <!-- 60° -->
      <g transform="translate(253.77875 87.064764) scale(0.13 -0.13)">
       <defs>
        <path id="DejaVuSerif-36" d="M 2094 219 
Q 2534 219 2771 542 
Q 3009 866 3009 1472 
Q 3009 2078 2771 2401 
Q 2534 2725 2094 2725 
Q 1647 2725 1412 2412 
Q 1178 2100 1178 1509 
Q 1178 888 1415 553 
Q 1653 219 2094 219 
z
M 1075 2569 
Q 1288 2803 1556 2918 
Q 1825 3034 2163 3034 
Q 2859 3034 3264 2615 
Q 3669 2197 3669 1472 
Q 3669 763 3233 336 
Q 2797 -91 2069 -91 
Q 1278 -91 853 498 
Q 428 1088 428 2181 
Q 428 3406 931 4078 
Q 1434 4750 2350 4750 
Q 2597 4750 2869 4703 
Q 3141 4656 3425 4563 
L 3425 3794 
L 3072 3794 
Q 3034 4109 2831 4275 
Q 2628 4441 2284 4441 
Q 1678 4441 1381 3981 
Q 1084 3522 1075 2569 
z
" transform="scale(0.015625)"/>
       </defs>
       <use xlink:href="#DejaVuSerif-36"/>
       <use xlink:href="#DejaVuSerif-30" x="63.623047"/>
       <use xlink:href="#DejaVuSerif-b0" x="127.246094"/>
      </g>
     </g>
    </g>
    <g id="xtick_6">
     <g id="line2d_6">
      <path d="M 93.366 381.276 
L 178.742121 62.64798 
" clip-path="url(#p47fd7c3e3c)" style="fill: none; stroke: #b0b0b0; stroke-width: 0.8; stroke-linecap: square"/>
     </g>
     <g id="text_6">
      <!-- 75° -->
      <g transform="translate(170.844337 52.712205) scale(0.13 -0.13)">
       <defs>
        <path id="DejaVuSerif-37" d="M 3609 4347 
L 1784 0 
L 1319 0 
L 3059 4153 
L 903 4153 
L 903 3578 
L 538 3578 
L 538 4666 
L 3609 4666 
L 3609 4347 
z
" transform="scale(0.015625)"/>
       </defs>
       <use xlink:href="#DejaVuSerif-37"/>
       <use xlink:href="#DejaVuSerif-35" x="63.623047"/>
       <use xlink:href="#DejaVuSerif-b0" x="127.246094"/>
      </g>
     </g>
    </g>
    <g id="xtick_7">
     <g id="line2d_7">
      <path d="M 93.366 381.276 
L 93.366 51.408 
" clip-path="url(#p47fd7c3e3c)" style="fill: none; stroke: #b0b0b0; stroke-width: 0.8; stroke-linecap: square"/>
     </g>
     <g id="text_7">
      <!-- 90° -->
      <g transform="translate(81.84475 40.995187) scale(0.13 -0.13)">
       <defs>
        <path id="DejaVuSerif-39" d="M 2994 2091 
Q 2784 1856 2512 1740 
Q 2241 1625 1900 1625 
Q 1206 1625 804 2044 
Q 403 2463 403 3188 
Q 403 3897 839 4323 
Q 1275 4750 2003 4750 
Q 2794 4750 3217 4161 
Q 3641 3572 3641 2478 
Q 3641 1253 3137 581 
Q 2634 -91 1722 -91 
Q 1475 -91 1203 -44 
Q 931 3 647 97 
L 647 872 
L 997 872 
Q 1038 556 1241 387 
Q 1444 219 1784 219 
Q 2391 219 2687 676 
Q 2984 1134 2994 2091 
z
M 1978 4441 
Q 1534 4441 1298 4117 
Q 1063 3794 1063 3188 
Q 1063 2581 1298 2256 
Q 1534 1931 1978 1931 
Q 2422 1931 2658 2245 
Q 2894 2559 2894 3150 
Q 2894 3772 2656 4106 
Q 2419 4441 1978 4441 
z
" transform="scale(0.015625)"/>
       </defs>
       <use xlink:href="#DejaVuSerif-39"/>
       <use xlink:href="#DejaVuSerif-30" x="63.623047"/>
       <use xlink:href="#DejaVuSerif-b0" x="127.246094"/>
      </g>
     </g>
    </g>
   </g>
   <g id="matplotlib.axis_2">
    <g id="ytick_1">
     <g id="line2d_8">
      <path d="M 132.604556 381.276 
C 132.604556 370.873279 128.467683 360.885986 121.111849 353.530151 
C 113.756014 346.174317 103.768721 342.037444 93.366 342.037444 
" clip-path="url(#p47fd7c3e3c)" style="fill: none; stroke: #b0b0b0; stroke-width: 0.8; stroke-linecap: square"/>
     </g>
     <g id="text_8">
      <!-- 0.05 -->
      <g transform="translate(118.131899 398.153969) scale(0.13 -0.13)">
       <defs>
        <path id="DejaVuSerif-2e" d="M 603 325 
Q 603 500 722 622 
Q 841 744 1019 744 
Q 1191 744 1312 622 
Q 1434 500 1434 325 
Q 1434 153 1312 31 
Q 1191 -91 1019 -91 
Q 841 -91 722 29 
Q 603 150 603 325 
z
" transform="scale(0.015625)"/>
       </defs>
       <use xlink:href="#DejaVuSerif-30"/>
       <use xlink:href="#DejaVuSerif-2e" x="63.623047"/>
       <use xlink:href="#DejaVuSerif-30" x="95.410156"/>
       <use xlink:href="#DejaVuSerif-35" x="159.033203"/>
      </g>
     </g>
    </g>
    <g id="ytick_2">
     <g id="line2d_9">
      <path d="M 171.843111 381.276 
C 171.843111 360.470558 163.569366 340.495971 148.857698 325.784302 
C 134.146029 311.072634 114.171442 302.798889 93.366 302.798889 
" clip-path="url(#p47fd7c3e3c)" style="fill: none; stroke: #b0b0b0; stroke-width: 0.8; stroke-linecap: square"/>
     </g>
     <g id="text_9">
      <!-- 0.10 -->
      <g transform="translate(157.370455 398.153969) scale(0.13 -0.13)">
       <use xlink:href="#DejaVuSerif-30"/>
       <use xlink:href="#DejaVuSerif-2e" x="63.623047"/>
       <use xlink:href="#DejaVuSerif-31" x="95.410156"/>
       <use xlink:href="#DejaVuSerif-30" x="159.033203"/>
      </g>
     </g>
    </g>
    <g id="ytick_3">
     <g id="line2d_10">
      <path d="M 211.081667 381.276 
C 211.081667 350.067838 198.67105 320.105957 176.603546 298.038454 
C 154.536043 275.97095 124.574162 263.560333 93.366 263.560333 
" clip-path="url(#p47fd7c3e3c)" style="fill: none; stroke: #b0b0b0; stroke-width: 0.8; stroke-linecap: square"/>
     </g>
     <g id="text_10">
      <!-- 0.15 -->
      <g transform="translate(196.609011 398.153969) scale(0.13 -0.13)">
       <use xlink:href="#DejaVuSerif-30"/>
       <use xlink:href="#DejaVuSerif-2e" x="63.623047"/>
       <use xlink:href="#DejaVuSerif-31" x="95.410156"/>
       <use xlink:href="#DejaVuSerif-35" x="159.033203"/>
      </g>
     </g>
    </g>
    <g id="ytick_4">
     <g id="line2d_11">
      <path d="M 250.320223 381.276 
C 250.320223 339.665117 233.772733 299.715942 204.349395 270.292605 
C 174.926058 240.869267 134.976883 224.321777 93.366 224.321777 
" clip-path="url(#p47fd7c3e3c)" style="fill: none; stroke: #b0b0b0; stroke-width: 0.8; stroke-linecap: square"/>
     </g>
     <g id="text_11">
      <!-- 0.20 -->
      <g transform="translate(235.847567 398.153969) scale(0.13 -0.13)">
       <defs>
        <path id="DejaVuSerif-32" d="M 819 3553 
L 469 3553 
L 469 4384 
Q 803 4563 1142 4656 
Q 1481 4750 1806 4750 
Q 2534 4750 2956 4397 
Q 3378 4044 3378 3438 
Q 3378 2753 2422 1800 
Q 2347 1728 2309 1691 
L 1131 513 
L 3078 513 
L 3078 1088 
L 3444 1088 
L 3444 0 
L 434 0 
L 434 341 
L 1850 1753 
Q 2319 2222 2519 2614 
Q 2719 3006 2719 3438 
Q 2719 3909 2473 4175 
Q 2228 4441 1797 4441 
Q 1350 4441 1106 4219 
Q 863 3997 819 3553 
z
" transform="scale(0.015625)"/>
       </defs>
       <use xlink:href="#DejaVuSerif-30"/>
       <use xlink:href="#DejaVuSerif-2e" x="63.623047"/>
       <use xlink:href="#DejaVuSerif-32" x="95.410156"/>
       <use xlink:href="#DejaVuSerif-30" x="159.033203"/>
      </g>
     </g>
    </g>
    <g id="ytick_5">
     <g id="line2d_12">
      <path d="M 289.558779 381.276 
C 289.558779 329.262396 268.874416 279.325928 232.095244 242.546756 
C 195.316072 205.767584 145.379604 185.083221 93.366 185.083221 
" clip-path="url(#p47fd7c3e3c)" style="fill: none; stroke: #b0b0b0; stroke-width: 0.8; stroke-linecap: square"/>
     </g>
     <g id="text_12">
      <!-- 0.25 -->
      <g transform="translate(275.086122 398.153969) scale(0.13 -0.13)">
       <use xlink:href="#DejaVuSerif-30"/>
       <use xlink:href="#DejaVuSerif-2e" x="63.623047"/>
       <use xlink:href="#DejaVuSerif-32" x="95.410156"/>
       <use xlink:href="#DejaVuSerif-35" x="159.033203"/>
      </g>
     </g>
    </g>
    <g id="ytick_6">
     <g id="line2d_13">
      <path d="M 328.797334 381.276 
C 328.797334 318.859675 303.976099 258.935914 259.841093 214.800907 
C 215.706086 170.665901 155.782325 145.844666 93.366 145.844666 
" clip-path="url(#p47fd7c3e3c)" style="fill: none; stroke: #b0b0b0; stroke-width: 0.8; stroke-linecap: square"/>
     </g>
     <g id="text_13">
      <!-- 0.30 -->
      <g transform="translate(314.324678 398.153969) scale(0.13 -0.13)">
       <use xlink:href="#DejaVuSerif-30"/>
       <use xlink:href="#DejaVuSerif-2e" x="63.623047"/>
       <use xlink:href="#DejaVuSerif-33" x="95.410156"/>
       <use xlink:href="#DejaVuSerif-30" x="159.033203"/>
      </g>
     </g>
    </g>
    <g id="ytick_7">
     <g id="line2d_14">
      <path d="M 368.03589 381.276 
C 368.03589 308.456954 339.077783 238.545899 287.586942 187.055058 
C 236.096101 135.564217 166.185046 106.60611 93.366 106.60611 
" clip-path="url(#p47fd7c3e3c)" style="fill: none; stroke: #b0b0b0; stroke-width: 0.8; stroke-linecap: square"/>
     </g>
     <g id="text_14">
      <!-- 0.35 -->
      <g transform="translate(353.563234 398.153969) scale(0.13 -0.13)">
       <use xlink:href="#DejaVuSerif-30"/>
       <use xlink:href="#DejaVuSerif-2e" x="63.623047"/>
       <use xlink:href="#DejaVuSerif-33" x="95.410156"/>
       <use xlink:href="#DejaVuSerif-35" x="159.033203"/>
      </g>
     </g>
    </g>
    <g id="ytick_8">
     <g id="line2d_15">
      <path d="M 407.274446 381.276 
C 407.274446 298.054234 374.179466 218.155885 315.332791 159.309209 
C 256.486115 100.462534 176.587766 67.367554 93.366 67.367554 
" clip-path="url(#p47fd7c3e3c)" style="fill: none; stroke: #b0b0b0; stroke-width: 0.8; stroke-linecap: square"/>
     </g>
     <g id="text_15">
      <!-- 0.40 -->
      <g transform="translate(392.801789 398.153969) scale(0.13 -0.13)">
       <use xlink:href="#DejaVuSerif-30"/>
       <use xlink:href="#DejaVuSerif-2e" x="63.623047"/>
       <use xlink:href="#DejaVuSerif-34" x="95.410156"/>
       <use xlink:href="#DejaVuSerif-30" x="159.033203"/>
      </g>
     </g>
    </g>
   </g>
   <g id="line2d_16">
    <path d="M 407.274446 381.276 
L 407.406405 375.34391 
L 407.301885 369.411535 
L 406.967684 363.487663 
L 406.410875 357.580573 
L 405.638778 351.698024 
L 404.658939 345.847252 
L 403.479105 340.034963 
L 402.107199 334.267329 
L 400.274662 327.602348 
L 398.204722 321.013808 
L 395.910598 314.508719 
L 393.405636 308.093083 
L 390.703257 301.771896 
L 387.816907 295.54915 
L 384.310154 288.561773 
L 380.600517 281.709734 
L 376.707643 274.994245 
L 372.650836 268.414875 
L 367.914452 261.173173 
L 363.020501 254.095798 
L 357.428369 246.415239 
L 351.126811 238.172839 
L 344.115585 229.402268 
L 338.156084 222.27094 
L 332.053335 215.324544 
L 326.411188 209.253842 
L 321.258667 204.021246 
L 315.962757 198.961719 
L 311.201786 194.692349 
L 306.314958 190.585283 
L 301.29644 186.655843 
L 296.141522 182.920165 
L 290.847098 179.394705 
L 285.42088 176.086278 
L 279.880299 172.990949 
L 274.242545 170.10324 
L 268.524083 167.416608 
L 262.740592 164.923483 
L 256.070272 162.300136 
L 249.355144 159.904097 
L 242.614378 157.719639 
L 235.022097 155.493673 
L 226.601086 153.276969 
L 218.219746 151.295232 
L 209.060977 149.35983 
L 199.974759 147.658479 
L 190.15312 146.041937 
L 179.625433 144.537825 
L 168.420415 143.161207 
L 155.77683 141.835072 
L 140.187946 140.442942 
L 115.588844 138.518006 
L 93.366 136.746425 
L 93.366 136.746425 
" clip-path="url(#p47fd7c3e3c)" style="fill: none; stroke-dasharray: 1.5,2.475; stroke-dashoffset: 0; stroke: #000000; stroke-width: 1.5"/>
   </g>
   <g id="line2d_17">
    <path d="M 407.274446 381.276 
L 406.093013 371.42845 
L 404.696635 361.64938 
L 403.071565 351.941186 
L 401.40209 343.26799 
L 399.526274 334.660298 
L 397.434356 326.123977 
L 395.116853 317.666178 
L 392.860097 310.220833 
L 390.411806 302.850908 
L 387.76623 295.563904 
L 384.918011 288.368069 
L 381.862231 281.272376 
L 378.594461 274.286497 
L 375.110809 267.420781 
L 371.882903 261.52048 
L 368.485342 255.728346 
L 364.916687 250.052479 
L 361.175912 244.50131 
L 357.262424 239.083579 
L 353.176078 233.808314 
L 348.917712 228.684512 
L 344.494443 223.717719 
L 339.917244 218.910718 
L 335.197066 214.265595 
L 330.34474 209.783787 
L 325.370953 205.466091 
L 319.551363 200.73273 
L 313.60219 196.213205 
L 307.538366 191.905781 
L 301.374356 187.807737 
L 295.124105 183.915406 
L 288.800964 180.224228 
L 281.615674 176.305793 
L 274.370032 172.627624 
L 267.07925 169.180677 
L 259.757445 165.95483 
L 251.601432 162.616315 
L 243.439071 159.520441 
L 234.469828 156.373922 
L 225.525651 153.47415 
L 215.808571 150.566919 
L 206.934278 148.136846 
L 198.085597 145.93903 
L 189.258271 143.982093 
L 181.249708 142.420231 
L 173.255837 141.073411 
L 165.27712 139.950126 
L 157.315285 139.059302 
L 149.373362 138.410191 
L 142.246232 138.040479 
L 135.142863 137.881204 
L 128.068272 137.939354 
L 121.028382 138.221854 
L 114.030023 138.735504 
L 107.080932 139.486909 
L 100.952287 140.359556 
L 94.876041 141.429315 
L 93.366 141.728028 
L 93.366 141.728028 
" clip-path="url(#p47fd7c3e3c)" style="fill: none; stroke-dasharray: 5.55,2.4; stroke-dashoffset: 0; stroke: #000000; stroke-width: 1.5"/>
   </g>
   <g id="patch_3">
    <path d="M 423.234 381.276 
C 423.234 293.82312 388.456424 209.862625 326.6179 148.0241 
C 264.779375 86.185576 180.81888 51.408 93.366 51.408 
" style="fill: none; stroke: #000000; stroke-width: 0.8; stroke-linejoin: miter; stroke-linecap: square"/>
   </g>
   <g id="patch_4">
    <path d="M 93.366 381.276 
L 423.234 381.276 
" style="fill: none; stroke: #000000; stroke-width: 0.8; stroke-linejoin: miter; stroke-linecap: square"/>
   </g>
   <g id="patch_5">
    <path d="M 93.366 381.276 
L 93.366 51.408 
" style="fill: none; stroke: #000000; stroke-width: 0.8; stroke-linejoin: miter; stroke-linecap: square"/>
   </g>
   <g id="Quiver_1">
    <path d="M 132.554745 379.957469 
L 148.157367 379.368036 
L 146.739213 376.780784 
L 160.073961 380.238267 
L 147.03808 384.691973 
L 148.256989 382.005099 
L 132.654367 382.594531 
L 132.554745 379.957469 
" style="fill: #fde725"/>
    <path d="M 171.717354 379.962535 
L 187.260028 378.474406 
L 185.695048 375.973233 
L 199.206975 378.656056 
L 186.449592 383.854025 
L 187.511543 381.101337 
L 171.968869 382.589465 
L 171.717354 379.962535 
" style="fill: #46c06f"/>
    <path d="M 211.003033 379.958873 
L 226.589033 379.028366 
L 225.114637 376.472747 
L 238.521809 379.637783 
L 225.586444 384.375507 
L 226.746302 381.662619 
L 211.160302 382.593127 
L 211.003033 379.958873 
" style="fill: #1f948c"/>
    <path d="M 250.280429 379.957128 
L 265.887079 379.486238 
L 264.48862 376.888288 
L 277.796719 380.446968 
L 264.727381 384.801519 
L 265.966666 382.123982 
L 250.360016 382.594872 
L 250.280429 379.957128 
" style="fill: #2b758e"/>
    <path d="M 289.491773 379.95823 
L 305.08538 379.165335 
L 303.6336 376.596801 
L 317.012311 379.880058 
L 304.035631 384.503419 
L 305.21939 381.800874 
L 289.625784 382.59377 
L 289.491773 379.95823 
" style="fill: #365c8d"/>
    <path d="M 328.739179 379.95781 
L 344.337758 379.269638 
L 342.903257 376.691413 
L 356.259621 380.064429 
L 343.25219 384.600552 
L 344.454069 381.906017 
L 328.85549 382.59419 
L 328.739179 379.95781 
" style="fill: #404588"/>
    <path d="M 367.941881 379.959881 
L 383.515954 378.847447 
L 382.011818 376.309218 
L 395.455032 379.31749 
L 382.575869 384.205931 
L 383.703971 381.479685 
L 368.129898 382.592119 
L 367.941881 379.959881 
" style="fill: #472f7d"/>
    <path d="M 406.525338 380.189794 
L 419.378778 371.325352 
L 416.794356 369.902048 
L 429.903742 365.669589 
L 421.289003 376.419285 
L 420.876994 373.497765 
L 408.023553 382.362206 
L 406.525338 380.189794 
" style="fill: #482677"/>
    <path d="M 130.346974 370.175023 
L 141.532922 359.281731 
L 138.746511 358.311708 
L 150.961105 351.941983 
L 144.269871 363.983456 
L 143.374042 361.172313 
L 132.188094 372.065606 
L 130.346974 370.175023 
" style="fill: #dde318"/>
    <path d="M 168.543507 359.802872 
L 182.290965 352.400395 
L 179.878085 350.702442 
L 193.372339 347.932099 
L 183.631453 357.672984 
L 183.542088 354.723909 
L 169.79463 362.126386 
L 168.543507 359.802872 
" style="fill: #40bd72"/>
    <path d="M 206.648887 349.558679 
L 221.443685 344.56837 
L 219.349988 342.489557 
L 233.117784 342.023188 
L 221.880286 349.991145 
L 222.287118 347.068899 
L 207.492319 352.059208 
L 206.648887 349.558679 
" style="fill: #20938c"/>
    <path d="M 244.495647 339.422826 
L 259.055758 333.784351 
L 256.872345 331.799978 
L 270.606137 330.726366 
L 259.73129 339.18257 
L 260.00874 336.245215 
L 245.448628 341.88369 
L 244.495647 339.422826 
" style="fill: #2c738e"/>
    <path d="M 282.38559 329.271692 
L 296.891839 323.496056 
L 294.689795 321.532377 
L 308.412843 320.329198 
L 297.618287 328.887659 
L 297.868003 325.947816 
L 283.361754 331.723453 
L 282.38559 329.271692 
" style="fill: #365c8d"/>
    <path d="M 320.227618 319.141406 
L 334.433307 312.661618 
L 332.137651 310.808244 
L 345.785222 308.933809 
L 335.423177 318.011129 
L 335.528483 315.06258 
L 321.322794 321.542368 
L 320.227618 319.141406 
" style="fill: #424186"/>
    <path d="M 358.220592 308.948084 
L 372.871649 303.550326 
L 370.721234 301.53024 
L 384.470854 300.683107 
L 373.458125 308.958945 
L 373.783946 306.026561 
L 359.132889 311.424319 
L 358.220592 308.948084 
" style="fill: #472d7b"/>
    <path d="M 395.988189 298.850344 
L 409.953553 291.867662 
L 407.59321 290.097405 
L 421.165184 287.737061 
L 411.133725 297.178434 
L 411.133725 294.228005 
L 397.168361 301.210687 
L 395.988189 298.850344 
" style="fill: #48186a"/>
    <path d="M 126.101172 361.223757 
L 131.22459 346.474525 
L 128.298797 346.85501 
L 136.367687 335.689764 
L 135.777281 349.452799 
L 133.717417 347.340455 
L 128.594 362.089687 
L 126.101172 361.223757 
" style="fill: #cde11d"/>
    <path d="M 160.285621 341.229975 
L 169.840674 328.881283 
L 166.946102 328.309896 
L 178.15145 320.296789 
L 173.207411 333.154711 
L 171.927777 330.496221 
L 162.372724 342.844914 
L 160.285621 341.229975 
" style="fill: #38b977"/>
    <path d="M 194.343358 321.520868 
L 204.961388 310.073305 
L 202.12929 309.246108 
L 214.004472 302.264006 
L 207.933688 314.629898 
L 206.896187 311.867902 
L 196.278158 323.315465 
L 194.343358 321.520868 
" style="fill: #21908d"/>
    <path d="M 228.335728 301.890103 
L 239.089691 290.570142 
L 236.267672 289.709187 
L 248.225378 282.869379 
L 242.007371 295.161901 
L 241.002924 292.387713 
L 230.248961 303.707674 
L 228.335728 301.890103 
" style="fill: #2e6f8e"/>
    <path d="M 262.340923 282.246603 
L 273.381513 271.206013 
L 270.58249 270.273006 
L 282.711589 263.741952 
L 276.180535 275.871051 
L 275.247528 273.072028 
L 264.206938 284.112618 
L 262.340923 282.246603 
" style="fill: #38598c"/>
    <path d="M 296.223129 262.738637 
L 305.946528 250.52206 
L 303.060059 249.911055 
L 314.374176 242.052274 
L 309.25438 254.841229 
L 308.011302 252.165451 
L 298.287903 264.382029 
L 296.223129 262.738637 
" style="fill: #424186"/>
    <path d="M 330.203299 243.121142 
L 339.905602 230.887804 
L 337.018083 230.281781 
L 348.318622 222.403487 
L 343.220902 235.201259 
L 341.973208 232.52763 
L 332.270906 244.760968 
L 330.203299 243.121142 
" style="fill: #482979"/>
    <path d="M 364.209409 223.471858 
L 374.266785 211.528724 
L 371.398308 210.838165 
L 382.925336 203.295133 
L 377.453982 215.93768 
L 376.285343 213.228563 
L 366.227967 225.171696 
L 364.209409 223.471858 
" style="fill: #481467"/>
    <path d="M 119.804594 353.351009 
L 121.924445 337.88183 
L 119.130793 338.8308 
L 124.84398 326.295682 
L 126.974321 339.905654 
L 124.538954 338.240115 
L 122.419103 353.709293 
L 119.804594 353.351009 
" style="fill: #a5db36"/>
    <path d="M 147.569646 325.498069 
L 150.956745 310.256126 
L 148.094408 310.97171 
L 154.820899 298.949896 
L 155.822717 312.689112 
L 153.532848 310.828593 
L 150.145749 326.070536 
L 147.569646 325.498069 
" style="fill: #32b67a"/>
    <path d="M 175.322698 297.721542 
L 179.072812 282.564831 
L 176.194203 283.211858 
L 183.20586 271.354103 
L 183.879296 285.113324 
L 181.634509 283.198653 
L 177.884395 298.355365 
L 175.322698 297.721542 
" style="fill: #23898e"/>
    <path d="M 203.10271 269.860421 
L 208.216889 255.107983 
L 205.291335 255.490299 
L 213.353231 244.320002 
L 212.771444 258.083404 
L 210.710259 255.972351 
L 205.59608 270.724789 
L 203.10271 269.860421 
" style="fill: #31688e"/>
    <path d="M 230.890555 242.00849 
L 237.26003 227.752999 
L 234.312385 227.881157 
L 243.309108 217.449059 
L 241.540522 231.11075 
L 239.669409 228.82953 
L 233.299934 243.085021 
L 230.890555 242.00849 
" style="fill: #39568c"/>
    <path d="M 258.584396 214.398764 
L 263.343089 199.52785 
L 260.427552 199.980261 
L 268.219073 188.61972 
L 267.967733 202.393119 
L 265.856483 200.332136 
L 261.09779 215.20305 
L 258.584396 214.398764 
" style="fill: #443983"/>
    <path d="M 286.354487 186.583825 
L 291.930742 171.999772 
L 288.994599 172.289761 
L 297.404294 161.378907 
L 296.38933 175.117158 
L 294.395653 172.942237 
L 288.819397 187.526291 
L 286.354487 186.583825 
" style="fill: #482878"/>
    <path d="M 314.043434 159.028914 
L 317.360258 143.771525 
L 314.501249 144.500292 
L 321.172269 132.447608 
L 322.23739 146.182062 
L 319.938971 144.332115 
L 316.622147 159.589504 
L 314.043434 159.028914 
" style="fill: #471164"/>
    <path d="M 111.668575 347.208968 
L 112.679681 331.627989 
L 109.960831 332.7738 
L 114.765394 319.863112 
L 117.861046 333.286474 
L 115.313086 331.79888 
L 114.30198 347.37986 
L 111.668575 347.208968 
" style="fill: #7fd34e"/>
    <path d="M 131.333703 312.957948 
L 135.533112 297.919524 
L 132.636527 298.480617 
L 139.997882 286.836728 
L 140.261644 300.609895 
L 138.074818 298.629283 
L 133.875408 313.667708 
L 131.333703 312.957948 
" style="fill: #27ad81"/>
    <path d="M 150.935782 279.045008 
L 154.32288 263.803066 
L 151.460544 264.51865 
L 158.187035 252.496836 
L 159.188853 266.236052 
L 156.898983 264.375533 
L 153.511885 279.617476 
L 150.935782 279.045008 
" style="fill: #24868e"/>
    <path d="M 170.540909 245.136878 
L 173.058784 229.727479 
L 170.241601 230.604126 
L 176.275991 218.220434 
L 178.054817 231.880795 
L 175.66319 230.153036 
L 173.145314 245.562434 
L 170.540909 245.136878 
" style="fill: #31678e"/>
    <path d="M 190.157739 211.170855 
L 192.491445 195.732492 
L 189.684929 196.642713 
L 195.571027 184.187852 
L 197.512832 197.826001 
L 195.100746 196.126921 
L 192.76704 211.565284 
L 190.157739 211.170855 
" style="fill: #3c508b"/>
    <path d="M 209.77659 177.192111 
L 212.076672 161.748702 
L 209.272146 162.665032 
L 215.131108 150.197384 
L 217.102607 163.831271 
L 214.686826 162.137448 
L 212.386744 177.580857 
L 209.77659 177.192111 
" style="fill: #463480"/>
    <path d="M 229.415989 143.105075 
L 232.963896 127.899759 
L 230.09416 128.585069 
L 236.94726 116.634977 
L 237.803897 130.384008 
L 235.533808 128.499406 
L 231.985901 143.704721 
L 229.415989 143.105075 
" style="fill: #482071"/>
    <path d="M 249.036632 109.117695 
L 252.653098 93.92854 
L 249.7803 94.600897 
L 256.687239 82.681842 
L 257.481843 96.434598 
L 255.220279 94.539773 
L 251.603813 109.728928 
L 249.036632 109.117695 
" style="fill: #470d60"/>
    <path d="M 102.446888 344.139852 
L 93.389817 331.421412 
L 92.005608 334.026982 
L 87.576138 320.982846 
L 98.454394 329.434665 
L 95.539412 329.890639 
L 104.596483 342.609079 
L 102.446888 344.139852 
" style="fill: #73d056"/>
    <path d="M 112.673141 306.32881 
L 102.545248 294.445416 
L 101.392665 297.161403 
L 95.846575 284.551463 
L 107.418048 292.026133 
L 104.553709 292.733659 
L 114.681601 304.617053 
L 112.673141 306.32881 
" style="fill: #22a785"/>
    <path d="M 123.110436 268.675401 
L 110.046386 260.124387 
L 109.705148 263.055016 
L 100.832969 252.516794 
L 114.040874 256.430991 
L 111.491628 257.916378 
L 124.555678 266.467393 
L 123.110436 268.675401 
" style="fill: #297a8e"/>
    <path d="M 133.000855 230.544554 
L 122.650337 218.854557 
L 121.549254 221.591828 
L 115.765999 209.088882 
L 127.476577 216.343678 
L 124.626111 217.105174 
L 134.976629 228.795171 
L 133.000855 230.544554 
" style="fill: #34608d"/>
    <path d="M 143.161103 192.648145 
L 132.749933 181.012132 
L 131.6631 183.755092 
L 125.814904 171.28239 
L 137.56305 178.476189 
L 134.716583 179.252498 
L 145.127753 190.888511 
L 143.161103 192.648145 
" style="fill: #3e4a89"/>
    <path d="M 153.350883 154.783292 
L 142.505657 143.550736 
L 141.523694 146.332962 
L 135.206405 134.091167 
L 147.219075 140.833974 
L 144.404117 141.71774 
L 155.249343 152.950296 
L 153.350883 154.783292 
" style="fill: #472d7b"/>
    <path d="M 163.499182 116.874045 
L 152.745219 105.554084 
L 151.740772 108.328272 
L 145.522765 96.03575 
L 157.48047 102.875558 
L 154.658452 103.736513 
L 165.412415 115.056474 
L 163.499182 116.874045 
" style="fill: #481b6d"/>
    <path d="M 173.609666 78.922426 
L 163.448371 67.067582 
L 162.303437 69.786802 
L 156.72188 57.192521 
L 168.314344 64.634596 
L 165.452007 65.35018 
L 175.613302 77.205024 
L 173.609666 78.922426 
" style="fill: #450457"/>
    <path d="M 92.831529 343.243822 
L 78.55606 336.919247 
L 78.693496 339.866474 
L 68.233133 330.90263 
L 81.900322 332.628208 
L 79.625002 334.506492 
L 93.900471 340.831067 
L 92.831529 343.243822 
" style="fill: #77d153"/>
    <path d="M 93.017808 304.07159 
L 77.957509 299.951319 
L 78.533826 302.844914 
L 66.851388 295.544891 
L 80.622978 295.208706 
L 78.653892 297.405917 
L 93.714192 301.526187 
L 93.017808 304.07159 
" style="fill: #21a685"/>
    <path d="M 93.084574 264.849443 
L 77.8301 261.519241 
L 78.556359 264.378888 
L 66.50953 257.697301 
L 80.244912 256.644224 
L 78.392951 258.94102 
L 93.647426 262.271222 
L 93.084574 264.849443 
" style="fill: #277e8e"/>
    <path d="M 93.040884 225.600568 
L 77.908527 221.753358 
L 78.537085 224.636056 
L 66.724526 217.548521 
L 80.487783 216.963312 
L 78.558759 219.195777 
L 93.691116 223.042986 
L 93.040884 225.600568 
" style="fill: #355e8d"/>
    <path d="M 93.041492 186.362167 
L 77.907308 182.52215 
L 78.537236 185.404548 
L 66.72131 178.322628 
L 80.484287 177.730878 
L 78.556325 179.96426 
L 93.690508 183.804276 
L 93.041492 186.362167 
" style="fill: #404688"/>
    <path d="M 93.114153 147.13988 
L 77.787454 144.159688 
L 78.578973 147.001963 
L 66.382375 140.59785 
L 80.090056 139.230679 
L 78.291148 141.56926 
L 93.617847 144.549452 
L 93.114153 147.13988 
" style="fill: #482878"/>
    <path d="M 93.10723 107.899959 
L 77.796687 104.83785 
L 78.572996 107.684317 
L 66.410818 101.215074 
L 80.125615 99.921225 
L 78.314226 102.250153 
L 93.62477 105.312261 
L 93.10723 107.899959 
" style="fill: #481668"/>
    <path d="M 93.136695 68.666949 
L 77.760529 65.953508 
L 78.601313 68.781601 
L 66.295285 62.590369 
L 79.977143 60.985235 
L 78.219139 63.354719 
L 93.595305 66.06816 
L 93.136695 68.666949 
" style="fill: #440154"/>
   </g>
  </g>
 </g>
 <defs>
  <clipPath id="p47fd7c3e3c">
   <path d="M 423.234 381.276 
C 423.234 293.82312 388.456424 209.862625 326.6179 148.0241 
C 264.779375 86.185576 180.81888 51.408 93.366 51.408 
L 93.366 381.276 
C 93.366 381.276 93.366 381.276 93.366 381.276 
C 93.366 381.276 93.366 381.276 93.366 381.276 
z
"/>
  </clipPath>
 </defs>
</svg>
